G04*
G04 #@! TF.GenerationSoftware,Altium Limited,Altium Designer,18.0.7 (293)*
G04*
G04 Layer_Color=8388736*
%FSLAX44Y44*%
%MOMM*%
G71*
G01*
G75*
%ADD35R,1.4732X1.9812*%
%ADD36R,0.7532X1.3032*%
%ADD37R,6.4262X6.9342*%
%ADD38R,2.4638X1.7272*%
%ADD39O,2.7032X0.9032*%
%ADD40O,0.9032X2.7032*%
%ADD41O,2.2032X0.8032*%
%ADD42R,1.0532X0.5032*%
%ADD43R,1.9812X1.4732*%
%ADD44R,9.6032X11.0032*%
%ADD45R,1.0032X4.8032*%
%ADD46R,1.3232X1.9232*%
%ADD47R,2.3622X2.9464*%
%ADD48R,1.9232X1.3232*%
%ADD49R,2.2032X2.2032*%
%ADD50O,2.0032X2.2032*%
%ADD51R,2.0032X2.2032*%
%ADD52C,4.9632*%
%ADD53C,2.2032*%
%ADD54C,1.4202*%
%ADD55R,3.9532X2.4532*%
%ADD56C,1.6032*%
%ADD57C,5.7232*%
%ADD58C,1.7032*%
%ADD59R,1.7032X1.7032*%
%ADD60R,1.7032X1.7032*%
%ADD61R,1.4032X1.4032*%
%ADD62C,1.4032*%
%ADD63C,4.2032*%
%ADD64C,1.4732*%
G36*
X616204Y1325372D02*
Y1322832D01*
X537210D01*
Y1486230D01*
X614786D01*
X616204Y1325372D01*
D02*
G37*
G36*
X112425Y1484895D02*
X112424Y1322070D01*
X28448Y1322070D01*
X27940Y1322578D01*
X27940Y1412240D01*
X38608Y1422908D01*
X71882Y1456182D01*
X75438Y1459738D01*
Y1485793D01*
X111527Y1485793D01*
X112425Y1484895D01*
D02*
G37*
G36*
X337818Y1467866D02*
X337818Y1467590D01*
X337566Y1315974D01*
X322326Y1298956D01*
X306324Y1281430D01*
X267716D01*
X236220Y1249172D01*
X236220Y1207770D01*
X151130D01*
X123832Y1174751D01*
X123698Y1160272D01*
X123190Y1105408D01*
X123190Y1069185D01*
X112092Y1058086D01*
Y880110D01*
X45212D01*
X44196Y881126D01*
X27178D01*
Y1317542D01*
X27686Y1317752D01*
X237061D01*
X238234Y1317752D01*
X239522Y1317752D01*
X239776Y1318006D01*
X238760Y1319022D01*
Y1319022D01*
X238760Y1319022D01*
X238506Y1320195D01*
Y1469136D01*
X336655D01*
X337818Y1467866D01*
D02*
G37*
G36*
X436880Y1274064D02*
X408813Y1233805D01*
X352679Y1233805D01*
X341503Y1222629D01*
X330200Y1206754D01*
Y1113028D01*
X238760D01*
Y1190498D01*
Y1249172D01*
X252603Y1263015D01*
X269293Y1279706D01*
X308665Y1279705D01*
X340360Y1315421D01*
X340360Y1468120D01*
X395034Y1468120D01*
X436880D01*
Y1274064D01*
D02*
G37*
G36*
X635000Y1320800D02*
Y1114044D01*
X632460Y1111504D01*
X615780Y1094825D01*
Y878228D01*
X614879Y877333D01*
X540004Y877824D01*
X539496Y878884D01*
Y1113028D01*
X332740D01*
Y1206668D01*
X352931Y1231771D01*
X366268Y1231771D01*
X380492Y1231771D01*
X409956Y1231770D01*
X423164Y1250950D01*
X438658Y1272286D01*
Y1300480D01*
Y1320155D01*
X439557Y1321053D01*
X635000Y1320800D01*
D02*
G37*
G36*
X629920Y741680D02*
X289560D01*
X269240Y721360D01*
Y335280D01*
X248920Y314960D01*
Y238760D01*
X187960Y177800D01*
X177800Y167640D01*
Y40640D01*
X86360D01*
Y223520D01*
X101600Y238760D01*
Y314960D01*
Y320040D01*
X111760Y330200D01*
Y721360D01*
X30480D01*
Y741680D01*
Y751840D01*
Y756920D01*
Y868680D01*
X629920D01*
Y741680D01*
D02*
G37*
D35*
X1337280Y152400D02*
D03*
X1365280D02*
D03*
X1364978Y95068D02*
D03*
X1336978D02*
D03*
X1337280Y330200D02*
D03*
X1365280D02*
D03*
X1461800Y274320D02*
D03*
X1433800D02*
D03*
X1337280D02*
D03*
X1365280D02*
D03*
X1337280Y218440D02*
D03*
X1365280D02*
D03*
X1144240Y274320D02*
D03*
X1172240D02*
D03*
X1360200Y518160D02*
D03*
X1332200D02*
D03*
X1235680Y401320D02*
D03*
X1263680D02*
D03*
Y518160D02*
D03*
X1235680D02*
D03*
X1143466Y41185D02*
D03*
X1171466D02*
D03*
X1336774Y40577D02*
D03*
X1364774D02*
D03*
X1234758Y41241D02*
D03*
X1262757D02*
D03*
X1263680Y579120D02*
D03*
X1235680D02*
D03*
Y274320D02*
D03*
X1263680D02*
D03*
X1172240Y218440D02*
D03*
X1144240D02*
D03*
X1052800D02*
D03*
X1080800D02*
D03*
X1332200Y1259840D02*
D03*
X1360200D02*
D03*
X1461800Y579120D02*
D03*
X1433800D02*
D03*
X1461800Y635000D02*
D03*
X1433800D02*
D03*
X1461800Y695960D02*
D03*
X1433800D02*
D03*
Y812800D02*
D03*
X1461800D02*
D03*
Y883920D02*
D03*
X1433800D02*
D03*
X1235680Y1076960D02*
D03*
X1263680D02*
D03*
Y1005840D02*
D03*
X1235680D02*
D03*
X1332200Y635000D02*
D03*
X1360200D02*
D03*
Y579120D02*
D03*
X1332200D02*
D03*
X1461800Y1005840D02*
D03*
X1433800D02*
D03*
X1360200Y944880D02*
D03*
X1332200D02*
D03*
X1235680Y889000D02*
D03*
X1263680D02*
D03*
X1235680Y755650D02*
D03*
X1263680D02*
D03*
X1332200Y1198880D02*
D03*
X1360200D02*
D03*
X1263680Y638810D02*
D03*
X1235680D02*
D03*
X887760Y807720D02*
D03*
X859760D02*
D03*
X963960D02*
D03*
X935960D02*
D03*
X735360D02*
D03*
X707360D02*
D03*
X963960Y741680D02*
D03*
X935960D02*
D03*
X811560Y807720D02*
D03*
X783560D02*
D03*
X963960Y604520D02*
D03*
X935960D02*
D03*
X735360Y528320D02*
D03*
X707360D02*
D03*
X935960Y670560D02*
D03*
X963960D02*
D03*
X735360Y604520D02*
D03*
X707360D02*
D03*
X1035080Y670560D02*
D03*
X1007080D02*
D03*
X887760Y604520D02*
D03*
X859760D02*
D03*
X735360Y736600D02*
D03*
X707360D02*
D03*
Y396240D02*
D03*
X735360D02*
D03*
X811560Y457200D02*
D03*
X783560D02*
D03*
X887760Y259080D02*
D03*
X859760D02*
D03*
X963960Y457200D02*
D03*
X935960D02*
D03*
X707360D02*
D03*
X735360D02*
D03*
X935960Y528320D02*
D03*
X963960D02*
D03*
X783560Y396240D02*
D03*
X811560D02*
D03*
X941040Y259080D02*
D03*
X969040D02*
D03*
X814608D02*
D03*
X786608D02*
D03*
X735360D02*
D03*
X707360D02*
D03*
X735360Y335280D02*
D03*
X707360D02*
D03*
X887760Y457200D02*
D03*
X859760D02*
D03*
X618520Y274320D02*
D03*
X590520D02*
D03*
X331440Y121920D02*
D03*
X359440D02*
D03*
X516920Y269240D02*
D03*
X488920D02*
D03*
X681960Y1417320D02*
D03*
X709960D02*
D03*
X201960D02*
D03*
X173960D02*
D03*
X687040Y980440D02*
D03*
X715040D02*
D03*
X191800Y883920D02*
D03*
X163800D02*
D03*
X605436Y1458692D02*
D03*
X633436D02*
D03*
X124013Y1458694D02*
D03*
X96013D02*
D03*
X1085880Y1285240D02*
D03*
X1057880D02*
D03*
X461040Y1092200D02*
D03*
X433040D02*
D03*
X209834Y1050036D02*
D03*
X181834D02*
D03*
X1004600Y1397000D02*
D03*
X976600D02*
D03*
X1004600Y1457960D02*
D03*
X976600D02*
D03*
X125760Y1041400D02*
D03*
X97760D02*
D03*
X605760Y1036320D02*
D03*
X633760D02*
D03*
X237998Y893318D02*
D03*
X265998D02*
D03*
X237998Y944880D02*
D03*
X265998D02*
D03*
X1052800Y1137920D02*
D03*
X1080800D02*
D03*
X1004600D02*
D03*
X976600D02*
D03*
X1012160Y812800D02*
D03*
X1040160D02*
D03*
X1080800Y889000D02*
D03*
X1052800D02*
D03*
X824200Y955040D02*
D03*
X852200D02*
D03*
X748000D02*
D03*
X776000D02*
D03*
X1052800D02*
D03*
X1080800D02*
D03*
X776000Y1209040D02*
D03*
X748000D02*
D03*
X900400Y955040D02*
D03*
X928400D02*
D03*
X776000Y1016000D02*
D03*
X748000D02*
D03*
X852200D02*
D03*
X824200D02*
D03*
X1080800D02*
D03*
X1052800D02*
D03*
X704880Y1209040D02*
D03*
X676880D02*
D03*
X427960Y60960D02*
D03*
X455960D02*
D03*
X1433800Y1259840D02*
D03*
X1461800D02*
D03*
X354360Y55880D02*
D03*
X326360D02*
D03*
X1172240Y157480D02*
D03*
X1144240D02*
D03*
X1263680Y462280D02*
D03*
X1235680D02*
D03*
X1172240Y330200D02*
D03*
X1144240D02*
D03*
X1461490Y458899D02*
D03*
X1433490D02*
D03*
X1263680Y330200D02*
D03*
X1235680D02*
D03*
Y218440D02*
D03*
X1263680D02*
D03*
X1264950Y1136650D02*
D03*
X1236950D02*
D03*
X1433800Y518160D02*
D03*
X1461800D02*
D03*
Y751840D02*
D03*
X1433800D02*
D03*
X1235680Y944880D02*
D03*
X1263680D02*
D03*
Y1198880D02*
D03*
X1235680D02*
D03*
X1264950Y819150D02*
D03*
X1236950D02*
D03*
X1461800Y1076960D02*
D03*
X1433800D02*
D03*
X1360200Y695960D02*
D03*
X1332200D02*
D03*
X1433800Y944880D02*
D03*
X1461800D02*
D03*
Y1137920D02*
D03*
X1433800D02*
D03*
X1263680Y694690D02*
D03*
X1235680D02*
D03*
X707360Y670560D02*
D03*
X735360D02*
D03*
X1035080Y741680D02*
D03*
X1007080D02*
D03*
X783560Y604520D02*
D03*
X811560D02*
D03*
X783560Y335280D02*
D03*
X811560D02*
D03*
X859760Y528320D02*
D03*
X887760D02*
D03*
X618520Y340360D02*
D03*
X590520D02*
D03*
X488920D02*
D03*
X516920D02*
D03*
X392400D02*
D03*
X420400D02*
D03*
X392400Y269240D02*
D03*
X420400D02*
D03*
X824200Y1076960D02*
D03*
X852200D02*
D03*
X262920Y248920D02*
D03*
X234920D02*
D03*
X262920Y289560D02*
D03*
X234920D02*
D03*
X87600D02*
D03*
X115600D02*
D03*
X87600Y248920D02*
D03*
X115600D02*
D03*
X900400Y1397000D02*
D03*
X928400D02*
D03*
X900400Y1457960D02*
D03*
X928400D02*
D03*
X1057880Y1341120D02*
D03*
X1085880D02*
D03*
X237998Y996442D02*
D03*
X265998D02*
D03*
X852200Y1280160D02*
D03*
X824200D02*
D03*
X852200Y1341120D02*
D03*
X824200D02*
D03*
X852200Y1397000D02*
D03*
X824200D02*
D03*
X753080Y1280160D02*
D03*
X781080D02*
D03*
X753080Y1341120D02*
D03*
X781080D02*
D03*
X753080Y1397000D02*
D03*
X781080D02*
D03*
X900400Y1193800D02*
D03*
X928400D02*
D03*
X900400Y1137920D02*
D03*
X928400D02*
D03*
X1057880Y1229360D02*
D03*
X1085880D02*
D03*
X1080800Y1076960D02*
D03*
X1052800D02*
D03*
X776000Y1082040D02*
D03*
X748000D02*
D03*
X776000Y1148080D02*
D03*
X748000D02*
D03*
D36*
X476910Y652080D02*
D03*
X495910D02*
D03*
X486410D02*
D03*
X476910Y628080D02*
D03*
X495910D02*
D03*
X486410D02*
D03*
D37*
X401320Y436880D02*
D03*
X386080Y193040D02*
D03*
D38*
X472948Y461518D02*
D03*
Y412242D02*
D03*
X457708Y217678D02*
D03*
Y168402D02*
D03*
D39*
X1230260Y166370D02*
D03*
Y153670D02*
D03*
Y140970D02*
D03*
Y128270D02*
D03*
Y115570D02*
D03*
Y102870D02*
D03*
Y90170D02*
D03*
X1279260Y166370D02*
D03*
Y153670D02*
D03*
Y140970D02*
D03*
Y128270D02*
D03*
Y115570D02*
D03*
Y102870D02*
D03*
Y90170D02*
D03*
X1321700Y461010D02*
D03*
Y448310D02*
D03*
Y435610D02*
D03*
Y422910D02*
D03*
Y410210D02*
D03*
Y397510D02*
D03*
Y384810D02*
D03*
X1370700Y461010D02*
D03*
Y448310D02*
D03*
Y435610D02*
D03*
Y422910D02*
D03*
Y410210D02*
D03*
Y397510D02*
D03*
Y384810D02*
D03*
X1321700Y826770D02*
D03*
Y814070D02*
D03*
Y801370D02*
D03*
Y788670D02*
D03*
Y775970D02*
D03*
Y763270D02*
D03*
Y750570D02*
D03*
X1370700Y826770D02*
D03*
Y814070D02*
D03*
Y801370D02*
D03*
Y788670D02*
D03*
Y775970D02*
D03*
Y763270D02*
D03*
Y750570D02*
D03*
X1321700Y1141730D02*
D03*
Y1129030D02*
D03*
Y1116330D02*
D03*
Y1103630D02*
D03*
Y1090930D02*
D03*
Y1078230D02*
D03*
Y1065530D02*
D03*
X1370700Y1141730D02*
D03*
Y1129030D02*
D03*
Y1116330D02*
D03*
Y1103630D02*
D03*
Y1090930D02*
D03*
Y1078230D02*
D03*
Y1065530D02*
D03*
X874660Y389890D02*
D03*
Y377190D02*
D03*
Y364490D02*
D03*
Y351790D02*
D03*
Y339090D02*
D03*
Y326390D02*
D03*
Y313690D02*
D03*
X923660Y389890D02*
D03*
Y377190D02*
D03*
Y364490D02*
D03*
Y351790D02*
D03*
Y339090D02*
D03*
Y326390D02*
D03*
Y313690D02*
D03*
X930540Y1085850D02*
D03*
Y1073150D02*
D03*
Y1060450D02*
D03*
Y1047750D02*
D03*
Y1035050D02*
D03*
Y1022350D02*
D03*
Y1009650D02*
D03*
X979540Y1085850D02*
D03*
Y1073150D02*
D03*
Y1060450D02*
D03*
Y1047750D02*
D03*
Y1035050D02*
D03*
Y1022350D02*
D03*
Y1009650D02*
D03*
D40*
X798830Y691780D02*
D03*
X811530D02*
D03*
X824230D02*
D03*
X836930D02*
D03*
X849630D02*
D03*
X862330D02*
D03*
X875030D02*
D03*
X798830Y740780D02*
D03*
X811530D02*
D03*
X824230D02*
D03*
X836930D02*
D03*
X849630D02*
D03*
X862330D02*
D03*
X875030D02*
D03*
X394970Y959220D02*
D03*
X382270D02*
D03*
X369570D02*
D03*
X356870D02*
D03*
X344170D02*
D03*
X331470D02*
D03*
X318770D02*
D03*
X394970Y910220D02*
D03*
X382270D02*
D03*
X369570D02*
D03*
X356870D02*
D03*
X344170D02*
D03*
X331470D02*
D03*
X318770D02*
D03*
D41*
X994960Y1248410D02*
D03*
Y1261110D02*
D03*
Y1273810D02*
D03*
Y1286510D02*
D03*
Y1299210D02*
D03*
Y1311910D02*
D03*
Y1324610D02*
D03*
Y1337310D02*
D03*
Y1350010D02*
D03*
Y1362710D02*
D03*
X904960Y1248410D02*
D03*
Y1261110D02*
D03*
Y1273810D02*
D03*
Y1286510D02*
D03*
Y1299210D02*
D03*
Y1311910D02*
D03*
Y1324610D02*
D03*
Y1337310D02*
D03*
Y1350010D02*
D03*
Y1362710D02*
D03*
D42*
X1142490Y1226940D02*
D03*
Y1231940D02*
D03*
Y1236940D02*
D03*
Y1241940D02*
D03*
X1173990D02*
D03*
Y1236940D02*
D03*
Y1231940D02*
D03*
Y1226940D02*
D03*
D43*
X614680Y562640D02*
D03*
Y534640D02*
D03*
X396240Y654080D02*
D03*
Y626080D02*
D03*
Y562640D02*
D03*
Y534640D02*
D03*
X497840Y1024920D02*
D03*
Y996920D02*
D03*
X436880Y900400D02*
D03*
Y928400D02*
D03*
Y966440D02*
D03*
Y994440D02*
D03*
X589280Y80040D02*
D03*
Y52040D02*
D03*
X640080D02*
D03*
Y80040D02*
D03*
X614680Y450880D02*
D03*
Y422880D02*
D03*
Y201960D02*
D03*
Y173960D02*
D03*
X645160Y626080D02*
D03*
Y654080D02*
D03*
X543560Y562640D02*
D03*
Y534640D02*
D03*
X584200Y654080D02*
D03*
Y626080D02*
D03*
X472440Y562640D02*
D03*
Y534640D02*
D03*
X523240Y92680D02*
D03*
Y120680D02*
D03*
X497840Y1068040D02*
D03*
Y1096040D02*
D03*
X498094Y965738D02*
D03*
Y937738D02*
D03*
X436880Y1032480D02*
D03*
Y1060480D02*
D03*
D44*
X82577Y1263650D02*
D03*
X585470D02*
D03*
X82546Y818030D02*
D03*
X585470Y812800D02*
D03*
D45*
X107977Y1355150D02*
D03*
X95277D02*
D03*
X69877D02*
D03*
X57177D02*
D03*
X44477D02*
D03*
X120677D02*
D03*
X610870D02*
D03*
X598170D02*
D03*
X572770D02*
D03*
X560070D02*
D03*
X547370D02*
D03*
X623570D02*
D03*
X107946Y909530D02*
D03*
X95246D02*
D03*
X69846D02*
D03*
X57146D02*
D03*
X44446D02*
D03*
X120646D02*
D03*
X610870Y904300D02*
D03*
X598170D02*
D03*
X572770D02*
D03*
X560070D02*
D03*
X547370D02*
D03*
X623570D02*
D03*
D46*
X1092630Y157480D02*
D03*
X1051130D02*
D03*
X1178990Y96520D02*
D03*
X1137490D02*
D03*
X462710Y121920D02*
D03*
X421210D02*
D03*
X716710Y1351280D02*
D03*
X675210D02*
D03*
X208710Y1356360D02*
D03*
X167210D02*
D03*
X721790Y924560D02*
D03*
X680290D02*
D03*
X198550Y934720D02*
D03*
X157050D02*
D03*
X1051130Y1397000D02*
D03*
X1092630D02*
D03*
Y1457960D02*
D03*
X1051130D02*
D03*
X858950D02*
D03*
X817450D02*
D03*
X858950Y1193800D02*
D03*
X817450D02*
D03*
D47*
X1370330Y883920D02*
D03*
X1325880D02*
D03*
X1322070Y1005840D02*
D03*
X1366520D02*
D03*
X1413510Y1198880D02*
D03*
X1457960D02*
D03*
D48*
X543560Y416130D02*
D03*
Y457630D02*
D03*
X538480Y172290D02*
D03*
Y213790D02*
D03*
D49*
X96840Y1417320D02*
D03*
X136840D02*
D03*
X604840D02*
D03*
X644840D02*
D03*
X96840Y985520D02*
D03*
X136840D02*
D03*
X604840Y980440D02*
D03*
X644840D02*
D03*
D50*
X1336839Y1361049D02*
D03*
X1322989Y1389449D02*
D03*
X1309139Y1361049D02*
D03*
X1295289Y1389449D02*
D03*
X1281439Y1361049D02*
D03*
X1267589Y1389449D02*
D03*
X1253739Y1361049D02*
D03*
X1239889Y1389449D02*
D03*
D51*
X1226039Y1361049D02*
D03*
D52*
X1156489Y1375249D02*
D03*
X1406389D02*
D03*
D53*
X1158055Y1304647D02*
D03*
X1447800Y213360D02*
D03*
Y330200D02*
D03*
X1066646Y44072D02*
D03*
X1066800Y96520D02*
D03*
X1087120Y579120D02*
D03*
X1158240Y401320D02*
D03*
X1341513Y1303699D02*
D03*
X1158240Y955040D02*
D03*
X1437571Y1304084D02*
D03*
X1158240Y640080D02*
D03*
Y889000D02*
D03*
X1066849Y313436D02*
D03*
X1158240Y695960D02*
D03*
X1087120Y487680D02*
D03*
X797560Y528320D02*
D03*
X1087120Y640080D02*
D03*
X696319Y1456427D02*
D03*
X182668Y1456696D02*
D03*
X695960Y1021080D02*
D03*
X185674Y1108964D02*
D03*
X53086Y1031494D02*
D03*
X1245438Y1303447D02*
D03*
X575564Y1119632D02*
D03*
X690880Y1270000D02*
D03*
X919480Y889000D02*
D03*
X767080Y1456352D02*
D03*
X843280Y1137920D02*
D03*
X1158240Y579120D02*
D03*
Y1076960D02*
D03*
Y1016000D02*
D03*
X990600Y889000D02*
D03*
X130200Y111760D02*
D03*
X225400D02*
D03*
X382880Y1391920D02*
D03*
X287680D02*
D03*
D54*
X1450949Y106508D02*
D03*
X1425549Y131908D02*
D03*
X1450949Y157308D02*
D03*
X797560Y883920D02*
D03*
X822960Y909320D02*
D03*
X848360Y883920D02*
D03*
X680720Y1143000D02*
D03*
X706120Y1117600D02*
D03*
X680720Y1092200D02*
D03*
D55*
X381740Y1143510D02*
D03*
Y1174510D02*
D03*
Y1205510D02*
D03*
X283740D02*
D03*
Y1174510D02*
D03*
Y1143510D02*
D03*
D56*
X294640Y1026160D02*
D03*
X307340Y1045210D02*
D03*
X320040Y1026160D02*
D03*
X332740Y1045210D02*
D03*
X345440Y1026160D02*
D03*
X358140Y1045210D02*
D03*
X370840Y1026160D02*
D03*
D57*
X837900Y152400D02*
D03*
X736900D02*
D03*
D58*
X824900Y52400D02*
D03*
X787400D02*
D03*
X749900D02*
D03*
X1066800Y386080D02*
D03*
X1434221Y401842D02*
D03*
X1021080Y462280D02*
D03*
Y487680D02*
D03*
X980440Y1193800D02*
D03*
X1005840D02*
D03*
X1173480Y1137920D02*
D03*
X1005840Y955040D02*
D03*
X1158240Y513080D02*
D03*
Y487680D02*
D03*
X1163320Y817880D02*
D03*
Y792480D02*
D03*
D59*
X1066800Y360680D02*
D03*
X1021080Y513080D02*
D03*
X1158240Y462280D02*
D03*
X1163320Y767080D02*
D03*
D60*
X1459621Y401842D02*
D03*
X1031240Y1193800D02*
D03*
X1148080Y1137920D02*
D03*
X980440Y955040D02*
D03*
D61*
X137160Y528320D02*
D03*
X233680D02*
D03*
X137160Y381000D02*
D03*
X238760D02*
D03*
X233680Y675640D02*
D03*
X137160D02*
D03*
D62*
X87160Y528320D02*
D03*
X283680D02*
D03*
X87160Y381000D02*
D03*
X288760D02*
D03*
X283680Y675640D02*
D03*
X87160D02*
D03*
D63*
X40000Y1460000D02*
D03*
X1460000D02*
D03*
Y40000D02*
D03*
X40000D02*
D03*
D64*
X952500Y352044D02*
D03*
M02*
