G04*
G04 #@! TF.GenerationSoftware,Altium Limited,Altium Designer,18.0.7 (293)*
G04*
G04 Layer_Color=65535*
%FSLAX44Y44*%
%MOMM*%
G71*
G01*
G75*
%ADD10C,0.2000*%
%ADD11C,0.2540*%
%ADD12C,0.2500*%
%ADD13C,0.1000*%
%ADD14C,0.5000*%
%ADD15C,0.2032*%
%ADD16C,0.1778*%
%ADD17C,0.1016*%
%ADD18C,0.1250*%
%ADD19R,0.7778X2.6000*%
D10*
X1370039Y1523299D02*
G03*
X1363089Y1530249I-6950J0D01*
G01*
X1370089Y1477249D02*
G03*
X1377039Y1470299I6950J0D01*
G01*
X1199789Y1530249D02*
G03*
X1192839Y1523299I0J-6950D01*
G01*
X1185839Y1470299D02*
G03*
X1192789Y1477249I0J6950D01*
G01*
X1474949Y103508D02*
G03*
X1474949Y105508I0J1000D01*
G01*
D02*
G03*
X1474949Y103508I0J-1000D01*
G01*
X794560Y859920D02*
G03*
X796560Y859920I1000J0D01*
G01*
D02*
G03*
X794560Y859920I-1000J0D01*
G01*
X656720Y1146000D02*
G03*
X656720Y1144000I0J-1000D01*
G01*
D02*
G03*
X656720Y1146000I0J1000D01*
G01*
X370840Y1009160D02*
G03*
X369840Y1009160I-500J0D01*
G01*
D02*
G03*
X370840Y1009160I500J0D01*
G01*
D02*
G03*
X369840Y1009160I-500J0D01*
G01*
X749900Y39400D02*
G03*
X749900Y38400I0J-500D01*
G01*
D02*
G03*
X749900Y39400I0J500D01*
G01*
D02*
G03*
X749900Y38400I0J-500D01*
G01*
X177160Y528320D02*
G03*
X177160Y528320I-65000J0D01*
G01*
X323680D02*
G03*
X323680Y528320I-65000J0D01*
G01*
X177160Y381000D02*
G03*
X177160Y381000I-65000J0D01*
G01*
X328760D02*
G03*
X328760Y381000I-65000J0D01*
G01*
X323680Y675640D02*
G03*
X323680Y675640I-65000J0D01*
G01*
X177160D02*
G03*
X177160Y675640I-65000J0D01*
G01*
X1370089Y1477249D02*
Y1523249D01*
X1192789Y1477249D02*
Y1523249D01*
X1211439Y1346249D02*
Y1440249D01*
X1127439Y1470249D02*
X1435439D01*
X1351439Y1346249D02*
Y1440249D01*
X1127439Y1346249D02*
X1435439D01*
X1199789Y1530249D02*
X1363089D01*
X1127439Y1346249D02*
Y1470249D01*
X1435439Y1346249D02*
Y1470249D01*
X1127439Y1440249D02*
X1435439D01*
X1375280Y139400D02*
Y165400D01*
X1327280Y139400D02*
X1375280D01*
X1327280Y165400D02*
X1375280D01*
X1327280Y139400D02*
Y165400D01*
X1326978Y82068D02*
Y108068D01*
X1374978D01*
X1326978Y82068D02*
X1374978D01*
Y108068D01*
X503910Y630080D02*
Y650080D01*
X468910Y630080D02*
Y650080D01*
X1212850Y81280D02*
Y175260D01*
X1296670Y81280D02*
Y175260D01*
X1212850D02*
X1296670D01*
X1212850Y81280D02*
X1296670D01*
X1304290Y375920D02*
Y469900D01*
X1388110Y375920D02*
Y469900D01*
X1304290D02*
X1388110D01*
X1304290Y375920D02*
X1388110D01*
X1304290Y741680D02*
Y835660D01*
X1388110Y741680D02*
Y835660D01*
X1304290D02*
X1388110D01*
X1304290Y741680D02*
X1388110D01*
X1304290Y1056640D02*
Y1150620D01*
X1388110Y1056640D02*
Y1150620D01*
X1304290D02*
X1388110D01*
X1304290Y1056640D02*
X1388110D01*
X789940Y674370D02*
X883920D01*
X789940Y758190D02*
X883920D01*
X789940Y674370D02*
Y758190D01*
X883920Y674370D02*
Y758190D01*
X857250Y304800D02*
Y398780D01*
X941070Y304800D02*
Y398780D01*
X857250D02*
X941070D01*
X857250Y304800D02*
X941070D01*
X309880Y976630D02*
X403860D01*
X309880Y892810D02*
X403860D01*
Y976630D01*
X309880Y892810D02*
Y976630D01*
X890270Y1372870D02*
X1009650D01*
Y1236980D02*
Y1372870D01*
X890270Y1236980D02*
Y1372870D01*
Y1236980D02*
X1009650D01*
X1169740Y1221940D02*
X1178240D01*
X1166240Y1224440D02*
Y1244440D01*
X1150240D02*
X1166240D01*
X1150240Y1224440D02*
Y1244440D01*
Y1224440D02*
X1166240D01*
X913130Y1000760D02*
Y1094740D01*
X996950Y1000760D02*
Y1094740D01*
X913130D02*
X996950D01*
X913130Y1000760D02*
X996950D01*
X1375280Y317200D02*
Y343200D01*
X1327280Y317200D02*
X1375280D01*
X1327280Y343200D02*
X1375280D01*
X1327280Y317200D02*
Y343200D01*
X1423800Y261320D02*
Y287320D01*
X1471800D01*
X1423800Y261320D02*
X1471800D01*
Y287320D01*
X1375280Y261320D02*
Y287320D01*
X1327280Y261320D02*
X1375280D01*
X1327280Y287320D02*
X1375280D01*
X1327280Y261320D02*
Y287320D01*
X1375280Y205440D02*
Y231440D01*
X1327280Y205440D02*
X1375280D01*
X1327280Y231440D02*
X1375280D01*
X1327280Y205440D02*
Y231440D01*
X1182240Y261320D02*
Y287320D01*
X1134240Y261320D02*
X1182240D01*
X1134240Y287320D02*
X1182240D01*
X1134240Y261320D02*
Y287320D01*
X1322200Y505160D02*
Y531160D01*
X1370200D01*
X1322200Y505160D02*
X1370200D01*
Y531160D01*
X1273680Y388320D02*
Y414320D01*
X1225680Y388320D02*
X1273680D01*
X1225680Y414320D02*
X1273680D01*
X1225680Y388320D02*
Y414320D01*
Y505160D02*
Y531160D01*
X1273680D01*
X1225680Y505160D02*
X1273680D01*
Y531160D01*
X1181466Y28185D02*
Y54185D01*
X1133466Y28185D02*
X1181466D01*
X1133466Y54185D02*
X1181466D01*
X1133466Y28185D02*
Y54185D01*
X1374774Y27577D02*
Y53577D01*
X1326774Y27577D02*
X1374774D01*
X1326774Y53577D02*
X1374774D01*
X1326774Y27577D02*
Y53577D01*
X1272757Y28241D02*
Y54241D01*
X1224758Y28241D02*
X1272757D01*
X1224758Y54241D02*
X1272757D01*
X1224758Y28241D02*
Y54241D01*
X1225680Y566120D02*
Y592120D01*
X1273680D01*
X1225680Y566120D02*
X1273680D01*
Y592120D01*
Y261320D02*
Y287320D01*
X1225680Y261320D02*
X1273680D01*
X1225680Y287320D02*
X1273680D01*
X1225680Y261320D02*
Y287320D01*
X1134240Y205440D02*
Y231440D01*
X1182240D01*
X1134240Y205440D02*
X1182240D01*
Y231440D01*
X1090800Y205440D02*
Y231440D01*
X1042800Y205440D02*
X1090800D01*
X1042800Y231440D02*
X1090800D01*
X1042800Y205440D02*
Y231440D01*
X1370200Y1246840D02*
Y1272840D01*
X1322200Y1246840D02*
X1370200D01*
X1322200Y1272840D02*
X1370200D01*
X1322200Y1246840D02*
Y1272840D01*
X1423800Y566120D02*
Y592120D01*
X1471800D01*
X1423800Y566120D02*
X1471800D01*
Y592120D01*
X1423800Y622000D02*
Y648000D01*
X1471800D01*
X1423800Y622000D02*
X1471800D01*
Y648000D01*
X1423800Y682960D02*
Y708960D01*
X1471800D01*
X1423800Y682960D02*
X1471800D01*
Y708960D01*
Y799800D02*
Y825800D01*
X1423800Y799800D02*
X1471800D01*
X1423800Y825800D02*
X1471800D01*
X1423800Y799800D02*
Y825800D01*
Y870920D02*
Y896920D01*
X1471800D01*
X1423800Y870920D02*
X1471800D01*
Y896920D01*
X1273680Y1063960D02*
Y1089960D01*
X1225680Y1063960D02*
X1273680D01*
X1225680Y1089960D02*
X1273680D01*
X1225680Y1063960D02*
Y1089960D01*
Y992840D02*
Y1018840D01*
X1273680D01*
X1225680Y992840D02*
X1273680D01*
Y1018840D01*
X1370200Y622000D02*
Y648000D01*
X1322200Y622000D02*
X1370200D01*
X1322200Y648000D02*
X1370200D01*
X1322200Y622000D02*
Y648000D01*
Y566120D02*
Y592120D01*
X1370200D01*
X1322200Y566120D02*
X1370200D01*
Y592120D01*
X1423800Y992840D02*
Y1018840D01*
X1471800D01*
X1423800Y992840D02*
X1471800D01*
Y1018840D01*
X1322200Y931880D02*
Y957880D01*
X1370200D01*
X1322200Y931880D02*
X1370200D01*
Y957880D01*
X1273680Y876000D02*
Y902000D01*
X1225680Y876000D02*
X1273680D01*
X1225680Y902000D02*
X1273680D01*
X1225680Y876000D02*
Y902000D01*
X1273680Y742650D02*
Y768650D01*
X1225680Y742650D02*
X1273680D01*
X1225680Y768650D02*
X1273680D01*
X1225680Y742650D02*
Y768650D01*
X1370200Y1185880D02*
Y1211880D01*
X1322200Y1185880D02*
X1370200D01*
X1322200Y1211880D02*
X1370200D01*
X1322200Y1185880D02*
Y1211880D01*
X1225680Y625810D02*
Y651810D01*
X1273680D01*
X1225680Y625810D02*
X1273680D01*
Y651810D01*
X849760Y794720D02*
Y820720D01*
X897760D01*
X849760Y794720D02*
X897760D01*
Y820720D01*
X925960Y794720D02*
Y820720D01*
X973960D01*
X925960Y794720D02*
X973960D01*
Y820720D01*
X697360Y794720D02*
Y820720D01*
X745360D01*
X697360Y794720D02*
X745360D01*
Y820720D01*
X925960Y728680D02*
Y754680D01*
X973960D01*
X925960Y728680D02*
X973960D01*
Y754680D01*
X773560Y794720D02*
Y820720D01*
X821560D01*
X773560Y794720D02*
X821560D01*
Y820720D01*
X925960Y591520D02*
Y617520D01*
X973960D01*
X925960Y591520D02*
X973960D01*
Y617520D01*
X697360Y515320D02*
Y541320D01*
X745360D01*
X697360Y515320D02*
X745360D01*
Y541320D01*
X973960Y657560D02*
Y683560D01*
X925960Y657560D02*
X973960D01*
X925960Y683560D02*
X973960D01*
X925960Y657560D02*
Y683560D01*
X697360Y591520D02*
Y617520D01*
X745360D01*
X697360Y591520D02*
X745360D01*
Y617520D01*
X997080Y657560D02*
Y683560D01*
X1045080D01*
X997080Y657560D02*
X1045080D01*
Y683560D01*
X849760Y591520D02*
Y617520D01*
X897760D01*
X849760Y591520D02*
X897760D01*
Y617520D01*
X697360Y723600D02*
Y749600D01*
X745360D01*
X697360Y723600D02*
X745360D01*
Y749600D01*
Y383240D02*
Y409240D01*
X697360Y383240D02*
X745360D01*
X697360Y409240D02*
X745360D01*
X697360Y383240D02*
Y409240D01*
X773560Y444200D02*
Y470200D01*
X821560D01*
X773560Y444200D02*
X821560D01*
Y470200D01*
X849760Y246080D02*
Y272080D01*
X897760D01*
X849760Y246080D02*
X897760D01*
Y272080D01*
X925960Y444200D02*
Y470200D01*
X973960D01*
X925960Y444200D02*
X973960D01*
Y470200D01*
X745360Y444200D02*
Y470200D01*
X697360Y444200D02*
X745360D01*
X697360Y470200D02*
X745360D01*
X697360Y444200D02*
Y470200D01*
X973960Y515320D02*
Y541320D01*
X925960Y515320D02*
X973960D01*
X925960Y541320D02*
X973960D01*
X925960Y515320D02*
Y541320D01*
X821560Y383240D02*
Y409240D01*
X773560Y383240D02*
X821560D01*
X773560Y409240D02*
X821560D01*
X773560Y383240D02*
Y409240D01*
X979040Y246080D02*
Y272080D01*
X931040Y246080D02*
X979040D01*
X931040Y272080D02*
X979040D01*
X931040Y246080D02*
Y272080D01*
X776608Y246080D02*
Y272080D01*
X824608D01*
X776608Y246080D02*
X824608D01*
Y272080D01*
X697360Y246080D02*
Y272080D01*
X745360D01*
X697360Y246080D02*
X745360D01*
Y272080D01*
X697360Y322280D02*
Y348280D01*
X745360D01*
X697360Y322280D02*
X745360D01*
Y348280D01*
X849760Y444200D02*
Y470200D01*
X897760D01*
X849760Y444200D02*
X897760D01*
Y470200D01*
X601680Y524640D02*
X627680D01*
X601680D02*
Y572640D01*
X627680Y524640D02*
Y572640D01*
X601680D02*
X627680D01*
X580520Y261320D02*
Y287320D01*
X628520D01*
X580520Y261320D02*
X628520D01*
Y287320D01*
X369440Y108920D02*
Y134920D01*
X321440Y108920D02*
X369440D01*
X321440Y134920D02*
X369440D01*
X321440Y108920D02*
Y134920D01*
X383240Y616080D02*
X409240D01*
X383240D02*
Y664080D01*
X409240Y616080D02*
Y664080D01*
X383240D02*
X409240D01*
X383240Y524640D02*
X409240D01*
X383240D02*
Y572640D01*
X409240Y524640D02*
Y572640D01*
X383240D02*
X409240D01*
X478920Y256240D02*
Y282240D01*
X526920D01*
X478920Y256240D02*
X526920D01*
Y282240D01*
X719960Y1404320D02*
Y1430320D01*
X671960Y1404320D02*
X719960D01*
X671960Y1430320D02*
X719960D01*
X671960Y1404320D02*
Y1430320D01*
X163960Y1404320D02*
Y1430320D01*
X211960D01*
X163960Y1404320D02*
X211960D01*
Y1430320D01*
X725040Y967440D02*
Y993440D01*
X677040Y967440D02*
X725040D01*
X677040Y993440D02*
X725040D01*
X677040Y967440D02*
Y993440D01*
X153800Y870920D02*
Y896920D01*
X201800D01*
X153800Y870920D02*
X201800D01*
Y896920D01*
X643436Y1445692D02*
Y1471692D01*
X595436Y1445692D02*
X643436D01*
X595436Y1471692D02*
X643436D01*
X595436Y1445692D02*
Y1471692D01*
X86013Y1445694D02*
Y1471694D01*
X134013D01*
X86013Y1445694D02*
X134013D01*
Y1471694D01*
X1047880Y1272240D02*
Y1298240D01*
X1095880D01*
X1047880Y1272240D02*
X1095880D01*
Y1298240D01*
X423040Y1079200D02*
Y1105200D01*
X471040D01*
X423040Y1079200D02*
X471040D01*
Y1105200D01*
X171834Y1037036D02*
Y1063036D01*
X219834D01*
X171834Y1037036D02*
X219834D01*
Y1063036D01*
X484840Y986920D02*
X510840D01*
X484840D02*
Y1034920D01*
X510840Y986920D02*
Y1034920D01*
X484840D02*
X510840D01*
X966600Y1384000D02*
Y1410000D01*
X1014600D01*
X966600Y1384000D02*
X1014600D01*
Y1410000D01*
X966600Y1444960D02*
Y1470960D01*
X1014600D01*
X966600Y1444960D02*
X1014600D01*
Y1470960D01*
X87760Y1028400D02*
Y1054400D01*
X135760D01*
X87760Y1028400D02*
X135760D01*
Y1054400D01*
X643760Y1023320D02*
Y1049320D01*
X595760Y1023320D02*
X643760D01*
X595760Y1049320D02*
X643760D01*
X595760Y1023320D02*
Y1049320D01*
X275998Y880318D02*
Y906318D01*
X227998Y880318D02*
X275998D01*
X227998Y906318D02*
X275998D01*
X227998Y880318D02*
Y906318D01*
X275998Y931880D02*
Y957880D01*
X227998Y931880D02*
X275998D01*
X227998Y957880D02*
X275998D01*
X227998Y931880D02*
Y957880D01*
X423880Y938400D02*
X449880D01*
Y890400D02*
Y938400D01*
X423880Y890400D02*
Y938400D01*
Y890400D02*
X449880D01*
X423880Y1004440D02*
X449880D01*
Y956440D02*
Y1004440D01*
X423880Y956440D02*
Y1004440D01*
Y956440D02*
X449880D01*
X1090800Y1124920D02*
Y1150920D01*
X1042800Y1124920D02*
X1090800D01*
X1042800Y1150920D02*
X1090800D01*
X1042800Y1124920D02*
Y1150920D01*
X966600Y1124920D02*
Y1150920D01*
X1014600D01*
X966600Y1124920D02*
X1014600D01*
Y1150920D01*
X1050160Y799800D02*
Y825800D01*
X1002160Y799800D02*
X1050160D01*
X1002160Y825800D02*
X1050160D01*
X1002160Y799800D02*
Y825800D01*
X1042800Y876000D02*
Y902000D01*
X1090800D01*
X1042800Y876000D02*
X1090800D01*
Y902000D01*
X862200Y942040D02*
Y968040D01*
X814200Y942040D02*
X862200D01*
X814200Y968040D02*
X862200D01*
X814200Y942040D02*
Y968040D01*
X786000Y942040D02*
Y968040D01*
X738000Y942040D02*
X786000D01*
X738000Y968040D02*
X786000D01*
X738000Y942040D02*
Y968040D01*
X1090800Y942040D02*
Y968040D01*
X1042800Y942040D02*
X1090800D01*
X1042800Y968040D02*
X1090800D01*
X1042800Y942040D02*
Y968040D01*
X738000Y1196040D02*
Y1222040D01*
X786000D01*
X738000Y1196040D02*
X786000D01*
Y1222040D01*
X938400Y942040D02*
Y968040D01*
X890400Y942040D02*
X938400D01*
X890400Y968040D02*
X938400D01*
X890400Y942040D02*
Y968040D01*
X738000Y1003000D02*
Y1029000D01*
X786000D01*
X738000Y1003000D02*
X786000D01*
Y1029000D01*
X814200Y1003000D02*
Y1029000D01*
X862200D01*
X814200Y1003000D02*
X862200D01*
Y1029000D01*
X1042800Y1003000D02*
Y1029000D01*
X1090800D01*
X1042800Y1003000D02*
X1090800D01*
Y1029000D01*
X666880Y1196040D02*
Y1222040D01*
X714880D01*
X666880Y1196040D02*
X714880D01*
Y1222040D01*
X576280Y42040D02*
X602280D01*
X576280D02*
Y90040D01*
X602280Y42040D02*
Y90040D01*
X576280D02*
X602280D01*
X725400Y90400D02*
Y119900D01*
Y90400D02*
Y119900D01*
Y90400D02*
X849400D01*
X725400D02*
X849400D01*
Y122400D01*
Y90400D02*
Y122400D01*
Y184900D02*
Y214400D01*
Y184900D02*
Y214400D01*
X725400D02*
X849400D01*
X725400D02*
X849400D01*
X725400Y182400D02*
Y214400D01*
Y182400D02*
Y214400D01*
X627080Y90040D02*
X653080D01*
Y42040D02*
Y90040D01*
X627080Y42040D02*
Y90040D01*
Y42040D02*
X653080D01*
X1054100Y398780D02*
X1079500D01*
Y347980D02*
Y398780D01*
X1054100Y347980D02*
X1079500D01*
X1054100D02*
Y398780D01*
X1421521Y389142D02*
Y414542D01*
X1472321D01*
Y389142D02*
Y414542D01*
X1421521Y389142D02*
X1472321D01*
X1008380Y525780D02*
X1033780D01*
Y449580D02*
Y525780D01*
X1008380Y449580D02*
X1033780D01*
X1008380D02*
Y525780D01*
X1043940Y1181100D02*
Y1206500D01*
X967740Y1181100D02*
X1043940D01*
X967740D02*
Y1206500D01*
X1043940D01*
X1186180Y1125220D02*
Y1150620D01*
X1135380Y1125220D02*
X1186180D01*
X1135380D02*
Y1150620D01*
X1186180D01*
X1018540Y942340D02*
Y967740D01*
X967740Y942340D02*
X1018540D01*
X967740D02*
Y967740D01*
X1018540D01*
X1145540Y449580D02*
X1170940D01*
X1145540D02*
Y525780D01*
X1170940D01*
Y449580D02*
Y525780D01*
X1150620Y754380D02*
X1176020D01*
X1150620D02*
Y830580D01*
X1176020D01*
Y754380D02*
Y830580D01*
X465960Y47960D02*
Y73960D01*
X417960Y47960D02*
X465960D01*
X417960Y73960D02*
X465960D01*
X417960Y47960D02*
Y73960D01*
X1042670Y144980D02*
Y169934D01*
X1101090Y144980D02*
Y170186D01*
X1042670Y144980D02*
X1101090D01*
X1042670Y169934D02*
X1101090Y170186D01*
X1129030Y84020D02*
Y108974D01*
X1187450Y84020D02*
Y109226D01*
X1129030Y84020D02*
X1187450D01*
X1129030Y108974D02*
X1187450Y109226D01*
X412750Y109420D02*
Y134374D01*
X471170Y109420D02*
Y134626D01*
X412750Y109420D02*
X471170D01*
X412750Y134374D02*
X471170Y134626D01*
X531060Y466090D02*
X556014D01*
X531060Y407670D02*
X556266D01*
X531060D02*
Y466090D01*
X556014D02*
X556266Y407670D01*
X525980Y222250D02*
X550934D01*
X525980Y163830D02*
X551186D01*
X525980D02*
Y222250D01*
X550934D02*
X551186Y163830D01*
X666750Y1338780D02*
Y1363734D01*
X725170Y1338780D02*
Y1363986D01*
X666750Y1338780D02*
X725170D01*
X666750Y1363734D02*
X725170Y1363986D01*
X158750Y1343860D02*
Y1368814D01*
X217170Y1343860D02*
Y1369066D01*
X158750Y1343860D02*
X217170D01*
X158750Y1368814D02*
X217170Y1369066D01*
X671830Y912060D02*
Y937014D01*
X730250Y912060D02*
Y937266D01*
X671830Y912060D02*
X730250D01*
X671830Y937014D02*
X730250Y937266D01*
X148590Y922220D02*
Y947174D01*
X207010Y922220D02*
Y947426D01*
X148590Y922220D02*
X207010D01*
X148590Y947174D02*
X207010Y947426D01*
X122840Y1404320D02*
Y1430320D01*
X109480D02*
X122840D01*
X122840Y1404320D02*
X122840Y1404320D01*
X109480Y1404320D02*
X122840D01*
X1101090Y1384546D02*
Y1409500D01*
X1042670Y1384294D02*
Y1409500D01*
X1101090D01*
X1042670Y1384294D02*
X1101090Y1384546D01*
X630840Y1404320D02*
Y1430320D01*
X617480D02*
X630840D01*
X630840Y1404320D02*
X630840Y1404320D01*
X617480Y1404320D02*
X630840D01*
X1042670Y1445460D02*
Y1470414D01*
X1101090Y1445460D02*
Y1470666D01*
X1042670Y1445460D02*
X1101090D01*
X1042670Y1470414D02*
X1101090Y1470666D01*
X122840Y972520D02*
Y998520D01*
X109480D02*
X122840D01*
X122840Y972520D02*
X122840Y972520D01*
X109480Y972520D02*
X122840D01*
X630840Y967440D02*
Y993440D01*
X617480D02*
X630840D01*
X630840Y967440D02*
X630840Y967440D01*
X617480Y967440D02*
X630840D01*
X808990Y1445460D02*
Y1470414D01*
X867410Y1445460D02*
Y1470666D01*
X808990Y1445460D02*
X867410D01*
X808990Y1470414D02*
X867410Y1470666D01*
X808990Y1181300D02*
Y1206254D01*
X867410Y1181300D02*
Y1206506D01*
X808990Y1181300D02*
X867410D01*
X808990Y1206254D02*
X867410Y1206506D01*
X1134240Y144480D02*
Y170480D01*
X1182240D01*
X1134240Y144480D02*
X1182240D01*
Y170480D01*
X1225680Y449280D02*
Y475280D01*
X1273680D01*
X1225680Y449280D02*
X1273680D01*
Y475280D01*
X1134240Y317200D02*
Y343200D01*
X1182240D01*
X1134240Y317200D02*
X1182240D01*
Y343200D01*
X1423490Y445899D02*
Y471899D01*
X1471490D01*
X1423490Y445899D02*
X1471490D01*
Y471899D01*
X1225680Y317200D02*
Y343200D01*
X1273680D01*
X1225680Y317200D02*
X1273680D01*
Y343200D01*
Y205440D02*
Y231440D01*
X1225680Y205440D02*
X1273680D01*
X1225680Y231440D02*
X1273680D01*
X1225680Y205440D02*
Y231440D01*
X1226950Y1123650D02*
Y1149650D01*
X1274950D01*
X1226950Y1123650D02*
X1274950D01*
Y1149650D01*
X1471800Y505160D02*
Y531160D01*
X1423800Y505160D02*
X1471800D01*
X1423800Y531160D02*
X1471800D01*
X1423800Y505160D02*
Y531160D01*
Y738840D02*
Y764840D01*
X1471800D01*
X1423800Y738840D02*
X1471800D01*
Y764840D01*
X1273680Y931880D02*
Y957880D01*
X1225680Y931880D02*
X1273680D01*
X1225680Y957880D02*
X1273680D01*
X1225680Y931880D02*
Y957880D01*
Y1185880D02*
Y1211880D01*
X1273680D01*
X1225680Y1185880D02*
X1273680D01*
Y1211880D01*
X1226950Y806150D02*
Y832150D01*
X1274950D01*
X1226950Y806150D02*
X1274950D01*
Y832150D01*
X1423800Y1063960D02*
Y1089960D01*
X1471800D01*
X1423800Y1063960D02*
X1471800D01*
Y1089960D01*
X1322200Y682960D02*
Y708960D01*
X1370200D01*
X1322200Y682960D02*
X1370200D01*
Y708960D01*
X1471800Y931880D02*
Y957880D01*
X1423800Y931880D02*
X1471800D01*
X1423800Y957880D02*
X1471800D01*
X1423800Y931880D02*
Y957880D01*
Y1124920D02*
Y1150920D01*
X1471800D01*
X1423800Y1124920D02*
X1471800D01*
Y1150920D01*
X1225680Y681690D02*
Y707690D01*
X1273680D01*
X1225680Y681690D02*
X1273680D01*
Y707690D01*
X745360Y657560D02*
Y683560D01*
X697360Y657560D02*
X745360D01*
X697360Y683560D02*
X745360D01*
X697360Y657560D02*
Y683560D01*
X997080Y728680D02*
Y754680D01*
X1045080D01*
X997080Y728680D02*
X1045080D01*
Y754680D01*
X821560Y591520D02*
Y617520D01*
X773560Y591520D02*
X821560D01*
X773560Y617520D02*
X821560D01*
X773560Y591520D02*
Y617520D01*
X821560Y322280D02*
Y348280D01*
X773560Y322280D02*
X821560D01*
X773560Y348280D02*
X821560D01*
X773560Y322280D02*
Y348280D01*
X897760Y515320D02*
Y541320D01*
X849760Y515320D02*
X897760D01*
X849760Y541320D02*
X897760D01*
X849760Y515320D02*
Y541320D01*
X632160Y664080D02*
X658160D01*
Y616080D02*
Y664080D01*
X632160Y616080D02*
Y664080D01*
Y616080D02*
X658160D01*
X530560Y524640D02*
X556560D01*
X530560D02*
Y572640D01*
X556560Y524640D02*
Y572640D01*
X530560D02*
X556560D01*
X571200Y616080D02*
X597200D01*
X571200D02*
Y664080D01*
X597200Y616080D02*
Y664080D01*
X571200D02*
X597200D01*
X459440Y524640D02*
X485440D01*
X459440D02*
Y572640D01*
X485440Y524640D02*
Y572640D01*
X459440D02*
X485440D01*
X580520Y327360D02*
Y353360D01*
X628520D01*
X580520Y327360D02*
X628520D01*
Y353360D01*
X526920Y327360D02*
Y353360D01*
X478920Y327360D02*
X526920D01*
X478920Y353360D02*
X526920D01*
X478920Y327360D02*
Y353360D01*
X430400Y327360D02*
Y353360D01*
X382400Y327360D02*
X430400D01*
X382400Y353360D02*
X430400D01*
X382400Y327360D02*
Y353360D01*
X430400Y256240D02*
Y282240D01*
X382400Y256240D02*
X430400D01*
X382400Y282240D02*
X430400D01*
X382400Y256240D02*
Y282240D01*
X510240Y130680D02*
X536240D01*
Y82680D02*
Y130680D01*
X510240Y82680D02*
Y130680D01*
Y82680D02*
X536240D01*
X862200Y1063960D02*
Y1089960D01*
X814200Y1063960D02*
X862200D01*
X814200Y1089960D02*
X862200D01*
X814200Y1063960D02*
Y1089960D01*
X224920Y235920D02*
Y261920D01*
X272920D01*
X224920Y235920D02*
X272920D01*
Y261920D01*
X224920Y276560D02*
Y302560D01*
X272920D01*
X224920Y276560D02*
X272920D01*
Y302560D01*
X125600Y276560D02*
Y302560D01*
X77600Y276560D02*
X125600D01*
X77600Y302560D02*
X125600D01*
X77600Y276560D02*
Y302560D01*
X125600Y235920D02*
Y261920D01*
X77600Y235920D02*
X125600D01*
X77600Y261920D02*
X125600D01*
X77600Y235920D02*
Y261920D01*
X938400Y1384000D02*
Y1410000D01*
X890400Y1384000D02*
X938400D01*
X890400Y1410000D02*
X938400D01*
X890400Y1384000D02*
Y1410000D01*
X938400Y1444960D02*
Y1470960D01*
X890400Y1444960D02*
X938400D01*
X890400Y1470960D02*
X938400D01*
X890400Y1444960D02*
Y1470960D01*
X484840Y1106040D02*
X510840D01*
Y1058040D02*
Y1106040D01*
X484840Y1058040D02*
Y1106040D01*
Y1058040D02*
X510840D01*
X1095880Y1328120D02*
Y1354120D01*
X1047880Y1328120D02*
X1095880D01*
X1047880Y1354120D02*
X1095880D01*
X1047880Y1328120D02*
Y1354120D01*
X485094Y927738D02*
X511094D01*
X485094D02*
Y975738D01*
X511094Y927738D02*
Y975738D01*
X485094D02*
X511094D01*
X275998Y983442D02*
Y1009442D01*
X227998Y983442D02*
X275998D01*
X227998Y1009442D02*
X275998D01*
X227998Y983442D02*
Y1009442D01*
X814200Y1267160D02*
Y1293160D01*
X862200D01*
X814200Y1267160D02*
X862200D01*
Y1293160D01*
X814200Y1328120D02*
Y1354120D01*
X862200D01*
X814200Y1328120D02*
X862200D01*
Y1354120D01*
X814200Y1384000D02*
Y1410000D01*
X862200D01*
X814200Y1384000D02*
X862200D01*
Y1410000D01*
X791080Y1267160D02*
Y1293160D01*
X743080Y1267160D02*
X791080D01*
X743080Y1293160D02*
X791080D01*
X743080Y1267160D02*
Y1293160D01*
X791080Y1328120D02*
Y1354120D01*
X743080Y1328120D02*
X791080D01*
X743080Y1354120D02*
X791080D01*
X743080Y1328120D02*
Y1354120D01*
X791080Y1384000D02*
Y1410000D01*
X743080Y1384000D02*
X791080D01*
X743080Y1410000D02*
X791080D01*
X743080Y1384000D02*
Y1410000D01*
X938400Y1180800D02*
Y1206800D01*
X890400Y1180800D02*
X938400D01*
X890400Y1206800D02*
X938400D01*
X890400Y1180800D02*
Y1206800D01*
X938400Y1124920D02*
Y1150920D01*
X890400Y1124920D02*
X938400D01*
X890400Y1150920D02*
X938400D01*
X890400Y1124920D02*
Y1150920D01*
X1095880Y1216360D02*
Y1242360D01*
X1047880Y1216360D02*
X1095880D01*
X1047880Y1242360D02*
X1095880D01*
X1047880Y1216360D02*
Y1242360D01*
X1042800Y1063960D02*
Y1089960D01*
X1090800D01*
X1042800Y1063960D02*
X1090800D01*
Y1089960D01*
X738000Y1069040D02*
Y1095040D01*
X786000D01*
X738000Y1069040D02*
X786000D01*
Y1095040D01*
X738000Y1135080D02*
Y1161080D01*
X786000D01*
X738000Y1135080D02*
X786000D01*
Y1161080D01*
X423880Y1070480D02*
X449880D01*
Y1022480D02*
Y1070480D01*
X423880Y1022480D02*
Y1070480D01*
Y1022480D02*
X449880D01*
D11*
X1173198Y1304647D02*
G03*
X1173198Y1304647I-15193J0D01*
G01*
X1462944Y213360D02*
G03*
X1462944Y213360I-15193J0D01*
G01*
Y330200D02*
G03*
X1462944Y330200I-15193J0D01*
G01*
X1081790Y44072D02*
G03*
X1081790Y44072I-15193J0D01*
G01*
X1081944Y96520D02*
G03*
X1081944Y96520I-15193J0D01*
G01*
X1102313Y579071D02*
G03*
X1102313Y579071I-15193J0D01*
G01*
X1173433Y401271D02*
G03*
X1173433Y401271I-15193J0D01*
G01*
X1356656Y1303699D02*
G03*
X1356656Y1303699I-15193J0D01*
G01*
X1173384Y955040D02*
G03*
X1173384Y955040I-15193J0D01*
G01*
X1452715Y1304084D02*
G03*
X1452715Y1304084I-15193J0D01*
G01*
X1173433Y640031D02*
G03*
X1173433Y640031I-15193J0D01*
G01*
Y888951D02*
G03*
X1173433Y888951I-15193J0D01*
G01*
X1081993Y313436D02*
G03*
X1081993Y313436I-15193J0D01*
G01*
X1173433Y695911D02*
G03*
X1173433Y695911I-15193J0D01*
G01*
X1102313Y487631D02*
G03*
X1102313Y487631I-15193J0D01*
G01*
X812753Y528271D02*
G03*
X812753Y528271I-15193J0D01*
G01*
X1102264Y640080D02*
G03*
X1102264Y640080I-15193J0D01*
G01*
X711463Y1456427D02*
G03*
X711463Y1456427I-15193J0D01*
G01*
X197812Y1456696D02*
G03*
X197812Y1456696I-15193J0D01*
G01*
X711104Y1021080D02*
G03*
X711104Y1021080I-15193J0D01*
G01*
X200818Y1108964D02*
G03*
X200818Y1108964I-15193J0D01*
G01*
X68230Y1031494D02*
G03*
X68230Y1031494I-15193J0D01*
G01*
X1260582Y1303447D02*
G03*
X1260582Y1303447I-15193J0D01*
G01*
X590708Y1119632D02*
G03*
X590708Y1119632I-15193J0D01*
G01*
X706024Y1270000D02*
G03*
X706024Y1270000I-15193J0D01*
G01*
X934624Y889000D02*
G03*
X934624Y889000I-15193J0D01*
G01*
X782273Y1456303D02*
G03*
X782273Y1456303I-15193J0D01*
G01*
X858473Y1137871D02*
G03*
X858473Y1137871I-15193J0D01*
G01*
X1173433Y579071D02*
G03*
X1173433Y579071I-15193J0D01*
G01*
Y1076911D02*
G03*
X1173433Y1076911I-15193J0D01*
G01*
Y1015951D02*
G03*
X1173433Y1015951I-15193J0D01*
G01*
X1005793Y888951D02*
G03*
X1005793Y888951I-15193J0D01*
G01*
X389128Y474726D02*
X444246D01*
X389128Y399034D02*
X444246D01*
X373888Y230886D02*
X429006D01*
X373888Y155194D02*
X429006D01*
X392665Y1242985D02*
Y1243660D01*
X136679Y1232154D02*
Y1321562D01*
X28475Y1232154D02*
Y1321562D01*
X639572Y1232154D02*
Y1321562D01*
X531368Y1232154D02*
Y1321562D01*
X136648Y786534D02*
Y875942D01*
X28444Y786534D02*
Y875942D01*
X639572Y781304D02*
Y870712D01*
X531368Y781304D02*
Y870712D01*
X275082Y35306D02*
Y178308D01*
X79756Y35306D02*
X275082D01*
X79756D02*
Y178308D01*
X275082D01*
X237998Y1325372D02*
Y1468374D01*
X433324D01*
Y1325372D02*
Y1468374D01*
X237998Y1325372D02*
X433324D01*
X137160Y538480D02*
Y549910D01*
X130810Y543560D02*
X143510D01*
X81280D02*
X92710D01*
X233680Y506730D02*
Y518160D01*
X227330Y513080D02*
X240030D01*
X278130D02*
X289560D01*
X137160Y391160D02*
Y402590D01*
X130810Y396240D02*
X143510D01*
X81280D02*
X92710D01*
X238760Y359410D02*
Y370840D01*
X232410Y365760D02*
X245110D01*
X283210D02*
X294640D01*
X233680Y654050D02*
Y665480D01*
X227330Y660400D02*
X240030D01*
X278130D02*
X289560D01*
X137160Y685800D02*
Y697230D01*
X130810Y690880D02*
X143510D01*
X81280D02*
X92710D01*
X657611Y435353D02*
Y425196D01*
X665229D01*
X662689Y430274D01*
Y432813D01*
X665229Y435353D01*
X670307D01*
X672846Y432813D01*
Y427735D01*
X670307Y425196D01*
X657611Y440431D02*
X667768D01*
X672846Y445509D01*
X667768Y450588D01*
X657611D01*
X673862Y171958D02*
Y177036D01*
Y174497D01*
X658627D01*
X661166Y171958D01*
X673862Y194811D02*
Y184654D01*
X663705Y194811D01*
X661166D01*
X658627Y192271D01*
Y187193D01*
X661166Y184654D01*
X658627Y199889D02*
X668784D01*
X673862Y204967D01*
X668784Y210046D01*
X658627D01*
X397002Y40637D02*
Y30480D01*
X386845Y40637D01*
X384306D01*
X381767Y38098D01*
Y33019D01*
X384306Y30480D01*
X397002Y53333D02*
X381767D01*
X389384Y45715D01*
Y55872D01*
X381767Y60950D02*
X391924D01*
X397002Y66028D01*
X391924Y71107D01*
X381767D01*
X720852Y12954D02*
Y28189D01*
X728469D01*
X731009Y25650D01*
Y20571D01*
X728469Y18032D01*
X720852D01*
X725930D02*
X731009Y12954D01*
X743705D02*
X738626D01*
X736087Y15493D01*
Y20571D01*
X738626Y23111D01*
X743705D01*
X746244Y20571D01*
Y18032D01*
X736087D01*
X753861Y12954D02*
Y25650D01*
Y20571D01*
X751322D01*
X756401D01*
X753861D01*
Y25650D01*
X756401Y28189D01*
X771636Y12954D02*
X766557D01*
X764018Y15493D01*
Y20571D01*
X766557Y23111D01*
X771636D01*
X774175Y20571D01*
Y18032D01*
X764018D01*
X779253Y23111D02*
Y12954D01*
Y18032D01*
X781792Y20571D01*
X784332Y23111D01*
X786871D01*
X802106Y12954D02*
X797027D01*
X794488Y15493D01*
Y20571D01*
X797027Y23111D01*
X802106D01*
X804645Y20571D01*
Y18032D01*
X794488D01*
X809723Y12954D02*
Y23111D01*
X817341D01*
X819880Y20571D01*
Y12954D01*
X835115Y23111D02*
X827497D01*
X824958Y20571D01*
Y15493D01*
X827497Y12954D01*
X835115D01*
X840193D02*
X845272D01*
X842733D01*
Y23111D01*
X840193D01*
X855428D02*
X860507D01*
X863046Y20571D01*
Y12954D01*
X855428D01*
X852889Y15493D01*
X855428Y18032D01*
X863046D01*
X405133Y1476253D02*
X415290D01*
Y1491488D01*
X405133D01*
X415290Y1483871D02*
X410212D01*
X400055Y1491488D02*
X394977D01*
X397516D01*
Y1476253D01*
X400055D01*
X379742Y1491488D02*
X384820D01*
X387359Y1488949D01*
Y1483871D01*
X384820Y1481331D01*
X379742D01*
X377202Y1483871D01*
Y1486410D01*
X387359D01*
X361967Y1481331D02*
X369585D01*
X372124Y1483871D01*
Y1488949D01*
X369585Y1491488D01*
X361967D01*
X354350Y1478792D02*
Y1481331D01*
X356889D01*
X351810D01*
X354350D01*
Y1488949D01*
X351810Y1491488D01*
X344193Y1481331D02*
Y1491488D01*
Y1486410D01*
X341654Y1483871D01*
X339115Y1481331D01*
X336576D01*
X326419Y1491488D02*
X321340D01*
X318801Y1488949D01*
Y1483871D01*
X321340Y1481331D01*
X326419D01*
X328958Y1483871D01*
Y1488949D01*
X326419Y1491488D01*
X313723D02*
X308645D01*
X311184D01*
Y1481331D01*
X313723D01*
X301027Y1491488D02*
Y1481331D01*
X298488D01*
X295949Y1483871D01*
Y1491488D01*
Y1483871D01*
X293409Y1481331D01*
X290870Y1483871D01*
Y1491488D01*
X283253Y1481331D02*
X278174D01*
X275635Y1483871D01*
Y1491488D01*
X283253D01*
X285792Y1488949D01*
X283253Y1486410D01*
X275635D01*
X270557Y1491488D02*
Y1481331D01*
X262939D01*
X260400Y1483871D01*
Y1491488D01*
X223520Y17778D02*
X233677D01*
X127000D02*
X137157D01*
X132078Y22856D02*
Y12699D01*
X167637Y10160D02*
X157480D01*
X167637Y20317D01*
Y22856D01*
X165098Y25395D01*
X160019D01*
X157480Y22856D01*
X180333Y10160D02*
Y25395D01*
X172715Y17778D01*
X182872D01*
X187950Y25395D02*
Y15238D01*
X193029Y10160D01*
X198107Y15238D01*
Y25395D01*
X1054354Y462534D02*
X1039119D01*
Y470151D01*
X1041658Y472691D01*
X1046737D01*
X1049276Y470151D01*
Y462534D01*
X1041658Y477769D02*
X1039119Y480308D01*
Y485387D01*
X1041658Y487926D01*
X1044197D01*
X1046737Y485387D01*
Y482847D01*
Y485387D01*
X1049276Y487926D01*
X1051815D01*
X1054354Y485387D01*
Y480308D01*
X1051815Y477769D01*
X1041658Y493004D02*
X1039119Y495543D01*
Y500622D01*
X1041658Y503161D01*
X1051815D01*
X1054354Y500622D01*
Y495543D01*
X1051815Y493004D01*
X1041658D01*
Y508239D02*
X1039119Y510778D01*
Y515857D01*
X1041658Y518396D01*
X1051815D01*
X1054354Y515857D01*
Y510778D01*
X1051815Y508239D01*
X1041658D01*
X330200Y883915D02*
Y871219D01*
X332739Y868680D01*
X337817D01*
X340357Y871219D01*
Y883915D01*
X345435Y868680D02*
X350513D01*
X347974D01*
Y883915D01*
X345435Y881376D01*
X358131D02*
X360670Y883915D01*
X365748D01*
X368288Y881376D01*
Y871219D01*
X365748Y868680D01*
X360670D01*
X358131Y871219D01*
Y881376D01*
X380984Y868680D02*
Y883915D01*
X373366Y876298D01*
X383523D01*
X822957Y1109976D02*
X820417Y1112515D01*
X815339D01*
X812800Y1109976D01*
Y1099819D01*
X815339Y1097280D01*
X820417D01*
X822957Y1099819D01*
X828035Y1097280D02*
X833113D01*
X830574D01*
Y1112515D01*
X828035Y1109976D01*
X850888Y1097280D02*
X840731D01*
X850888Y1107437D01*
Y1109976D01*
X848348Y1112515D01*
X843270D01*
X840731Y1109976D01*
X855966Y1099819D02*
X858505Y1097280D01*
X863584D01*
X866123Y1099819D01*
Y1109976D01*
X863584Y1112515D01*
X858505D01*
X855966Y1109976D01*
Y1107437D01*
X858505Y1104898D01*
X866123D01*
X1389045Y96379D02*
X1399202D01*
X1404280Y101457D01*
X1399202Y106536D01*
X1389045D01*
X1404280Y111614D02*
X1389045D01*
Y119232D01*
X1391584Y121771D01*
X1396663D01*
X1399202Y119232D01*
Y111614D01*
Y116692D02*
X1404280Y121771D01*
X1389045Y137006D02*
Y126849D01*
X1396663D01*
X1394124Y131927D01*
Y134467D01*
X1396663Y137006D01*
X1401741D01*
X1404280Y134467D01*
Y129388D01*
X1401741Y126849D01*
X1391584Y142084D02*
X1389045Y144623D01*
Y149702D01*
X1391584Y152241D01*
X1401741D01*
X1404280Y149702D01*
Y144623D01*
X1401741Y142084D01*
X1391584D01*
Y157319D02*
X1389045Y159859D01*
Y164937D01*
X1391584Y167476D01*
X1401741D01*
X1404280Y164937D01*
Y159859D01*
X1401741Y157319D01*
X1391584D01*
X492765Y406400D02*
X502922D01*
X508000Y411478D01*
X502922Y416557D01*
X492765D01*
X508000Y421635D02*
X492765D01*
Y429253D01*
X495304Y431792D01*
X500382D01*
X502922Y429253D01*
Y421635D01*
Y426713D02*
X508000Y431792D01*
Y447027D02*
Y436870D01*
X497843Y447027D01*
X495304D01*
X492765Y444488D01*
Y439409D01*
X495304Y436870D01*
Y452105D02*
X492765Y454644D01*
Y459723D01*
X495304Y462262D01*
X505461D01*
X508000Y459723D01*
Y454644D01*
X505461Y452105D01*
X495304D01*
X508000Y467340D02*
Y472419D01*
Y469879D01*
X492765D01*
X495304Y467340D01*
X480065Y159004D02*
X490222D01*
X495300Y164082D01*
X490222Y169161D01*
X480065D01*
X495300Y174239D02*
X480065D01*
Y181857D01*
X482604Y184396D01*
X487682D01*
X490222Y181857D01*
Y174239D01*
Y179317D02*
X495300Y184396D01*
Y199631D02*
Y189474D01*
X485143Y199631D01*
X482604D01*
X480065Y197092D01*
Y192013D01*
X482604Y189474D01*
Y204709D02*
X480065Y207248D01*
Y212327D01*
X482604Y214866D01*
X492761D01*
X495300Y212327D01*
Y207248D01*
X492761Y204709D01*
X482604D01*
Y219944D02*
X480065Y222484D01*
Y227562D01*
X482604Y230101D01*
X492761D01*
X495300Y227562D01*
Y222484D01*
X492761Y219944D01*
X482604D01*
X751845Y863600D02*
X762002D01*
X767080Y868678D01*
X762002Y873757D01*
X751845D01*
X767080Y878835D02*
X751845D01*
Y886453D01*
X754384Y888992D01*
X759463D01*
X762002Y886453D01*
Y878835D01*
Y883913D02*
X767080Y888992D01*
Y894070D02*
Y899148D01*
Y896609D01*
X751845D01*
X754384Y894070D01*
Y906766D02*
X751845Y909305D01*
Y914384D01*
X754384Y916923D01*
X764541D01*
X767080Y914384D01*
Y909305D01*
X764541Y906766D01*
X754384D01*
X767080Y922001D02*
Y927079D01*
Y924540D01*
X751845D01*
X754384Y922001D01*
X655320Y1188715D02*
Y1178558D01*
X660398Y1173480D01*
X665477Y1178558D01*
Y1188715D01*
X670555Y1173480D02*
Y1188715D01*
X678173D01*
X680712Y1186176D01*
Y1181097D01*
X678173Y1178558D01*
X670555D01*
X675633D02*
X680712Y1173480D01*
X685790D02*
X690869D01*
X688329D01*
Y1188715D01*
X685790Y1186176D01*
X698486D02*
X701025Y1188715D01*
X706104D01*
X708643Y1186176D01*
Y1176019D01*
X706104Y1173480D01*
X701025D01*
X698486Y1176019D01*
Y1186176D01*
X713721D02*
X716260Y1188715D01*
X721339D01*
X723878Y1186176D01*
Y1176019D01*
X721339Y1173480D01*
X716260D01*
X713721Y1176019D01*
Y1186176D01*
X1224280Y198115D02*
Y185419D01*
X1226819Y182880D01*
X1231898D01*
X1234437Y185419D01*
Y198115D01*
X1249672D02*
X1239515D01*
Y190497D01*
X1244593Y193037D01*
X1247133D01*
X1249672Y190497D01*
Y185419D01*
X1247133Y182880D01*
X1242054D01*
X1239515Y185419D01*
X1254750Y195576D02*
X1257289Y198115D01*
X1262368D01*
X1264907Y195576D01*
Y185419D01*
X1262368Y182880D01*
X1257289D01*
X1254750Y185419D01*
Y195576D01*
X1269985Y182880D02*
X1275064D01*
X1272524D01*
Y198115D01*
X1269985Y195576D01*
X1310640Y492755D02*
Y480059D01*
X1313179Y477520D01*
X1318257D01*
X1320797Y480059D01*
Y492755D01*
X1336032D02*
X1325875D01*
Y485137D01*
X1330953Y487677D01*
X1333493D01*
X1336032Y485137D01*
Y480059D01*
X1333493Y477520D01*
X1328414D01*
X1325875Y480059D01*
X1341110Y490216D02*
X1343649Y492755D01*
X1348728D01*
X1351267Y490216D01*
Y480059D01*
X1348728Y477520D01*
X1343649D01*
X1341110Y480059D01*
Y490216D01*
X1356345D02*
X1358884Y492755D01*
X1363963D01*
X1366502Y490216D01*
Y480059D01*
X1363963Y477520D01*
X1358884D01*
X1356345Y480059D01*
Y490216D01*
X1315720Y858515D02*
Y845819D01*
X1318259Y843280D01*
X1323338D01*
X1325877Y845819D01*
Y858515D01*
X1338573Y843280D02*
Y858515D01*
X1330955Y850898D01*
X1341112D01*
X1346190Y855976D02*
X1348729Y858515D01*
X1353808D01*
X1356347Y855976D01*
Y845819D01*
X1353808Y843280D01*
X1348729D01*
X1346190Y845819D01*
Y855976D01*
X1361425Y843280D02*
X1366504D01*
X1363964D01*
Y858515D01*
X1361425Y855976D01*
X1315720Y1173475D02*
Y1160779D01*
X1318259Y1158240D01*
X1323338D01*
X1325877Y1160779D01*
Y1173475D01*
X1338573Y1158240D02*
Y1173475D01*
X1330955Y1165857D01*
X1341112D01*
X1346190Y1170936D02*
X1348729Y1173475D01*
X1353808D01*
X1356347Y1170936D01*
Y1160779D01*
X1353808Y1158240D01*
X1348729D01*
X1346190Y1160779D01*
Y1170936D01*
X1361425D02*
X1363964Y1173475D01*
X1369043D01*
X1371582Y1170936D01*
Y1160779D01*
X1369043Y1158240D01*
X1363964D01*
X1361425Y1160779D01*
Y1170936D01*
X805688Y780791D02*
Y768095D01*
X808227Y765556D01*
X813306D01*
X815845Y768095D01*
Y780791D01*
X820923Y778252D02*
X823462Y780791D01*
X828541D01*
X831080Y778252D01*
Y775713D01*
X828541Y773174D01*
X826001D01*
X828541D01*
X831080Y770634D01*
Y768095D01*
X828541Y765556D01*
X823462D01*
X820923Y768095D01*
X836158Y778252D02*
X838697Y780791D01*
X843776D01*
X846315Y778252D01*
Y768095D01*
X843776Y765556D01*
X838697D01*
X836158Y768095D01*
Y778252D01*
X851393Y765556D02*
X856472D01*
X853932D01*
Y780791D01*
X851393Y778252D01*
X867918Y422651D02*
Y409955D01*
X870457Y407416D01*
X875536D01*
X878075Y409955D01*
Y422651D01*
X883153Y420112D02*
X885692Y422651D01*
X890771D01*
X893310Y420112D01*
Y417573D01*
X890771Y415033D01*
X888231D01*
X890771D01*
X893310Y412494D01*
Y409955D01*
X890771Y407416D01*
X885692D01*
X883153Y409955D01*
X898388Y420112D02*
X900927Y422651D01*
X906006D01*
X908545Y420112D01*
Y409955D01*
X906006Y407416D01*
X900927D01*
X898388Y409955D01*
Y420112D01*
X913623D02*
X916162Y422651D01*
X921241D01*
X923780Y420112D01*
Y409955D01*
X921241Y407416D01*
X916162D01*
X913623Y409955D01*
Y420112D01*
X235971Y1149858D02*
X248667D01*
X251206Y1152397D01*
Y1157476D01*
X248667Y1160015D01*
X235971D01*
X251206Y1165093D02*
Y1170171D01*
Y1167632D01*
X235971D01*
X238510Y1165093D01*
Y1177789D02*
X235971Y1180328D01*
Y1185406D01*
X238510Y1187946D01*
X248667D01*
X251206Y1185406D01*
Y1180328D01*
X248667Y1177789D01*
X238510D01*
Y1193024D02*
X235971Y1195563D01*
Y1200642D01*
X238510Y1203181D01*
X241049D01*
X243589Y1200642D01*
Y1198102D01*
Y1200642D01*
X246128Y1203181D01*
X248667D01*
X251206Y1200642D01*
Y1195563D01*
X248667Y1193024D01*
X1016767Y1297940D02*
X1029463D01*
X1032002Y1300479D01*
Y1305558D01*
X1029463Y1308097D01*
X1016767D01*
X1032002Y1313175D02*
Y1318253D01*
Y1315714D01*
X1016767D01*
X1019306Y1313175D01*
Y1325871D02*
X1016767Y1328410D01*
Y1333488D01*
X1019306Y1336028D01*
X1029463D01*
X1032002Y1333488D01*
Y1328410D01*
X1029463Y1325871D01*
X1019306D01*
X1032002Y1351263D02*
Y1341106D01*
X1021845Y1351263D01*
X1019306D01*
X1016767Y1348724D01*
Y1343645D01*
X1019306Y1341106D01*
X1139190Y1268725D02*
Y1256029D01*
X1141729Y1253490D01*
X1146807D01*
X1149347Y1256029D01*
Y1268725D01*
X1154425Y1253490D02*
X1159503D01*
X1156964D01*
Y1268725D01*
X1154425Y1266186D01*
X1167121D02*
X1169660Y1268725D01*
X1174738D01*
X1177278Y1266186D01*
Y1256029D01*
X1174738Y1253490D01*
X1169660D01*
X1167121Y1256029D01*
Y1266186D01*
X1182356Y1253490D02*
X1187434D01*
X1184895D01*
Y1268725D01*
X1182356Y1266186D01*
X930148Y1116579D02*
Y1103883D01*
X932687Y1101344D01*
X937766D01*
X940305Y1103883D01*
Y1116579D01*
X945383Y1101344D02*
X950461D01*
X947922D01*
Y1116579D01*
X945383Y1114040D01*
X958079D02*
X960618Y1116579D01*
X965696D01*
X968236Y1114040D01*
Y1103883D01*
X965696Y1101344D01*
X960618D01*
X958079Y1103883D01*
Y1114040D01*
X973314D02*
X975853Y1116579D01*
X980932D01*
X983471Y1114040D01*
Y1103883D01*
X980932Y1101344D01*
X975853D01*
X973314Y1103883D01*
Y1114040D01*
X1328928Y351790D02*
Y367025D01*
X1336546D01*
X1339085Y364486D01*
Y359408D01*
X1336546Y356868D01*
X1328928D01*
X1334006D02*
X1339085Y351790D01*
X1354320Y367025D02*
X1344163D01*
Y359408D01*
X1349241Y361947D01*
X1351781D01*
X1354320Y359408D01*
Y354329D01*
X1351781Y351790D01*
X1346702D01*
X1344163Y354329D01*
X1359398Y351790D02*
X1364476D01*
X1361937D01*
Y367025D01*
X1359398Y364486D01*
X1382251Y367025D02*
X1372094D01*
Y359408D01*
X1377172Y361947D01*
X1379712D01*
X1382251Y359408D01*
Y354329D01*
X1379712Y351790D01*
X1374633D01*
X1372094Y354329D01*
X1422400Y294640D02*
Y309875D01*
X1430018D01*
X1432557Y307336D01*
Y302257D01*
X1430018Y299718D01*
X1422400D01*
X1427478D02*
X1432557Y294640D01*
X1447792Y309875D02*
X1437635D01*
Y302257D01*
X1442713Y304797D01*
X1445253D01*
X1447792Y302257D01*
Y297179D01*
X1445253Y294640D01*
X1440174D01*
X1437635Y297179D01*
X1452870Y294640D02*
X1457948D01*
X1455409D01*
Y309875D01*
X1452870Y307336D01*
X1473184Y294640D02*
Y309875D01*
X1465566Y302257D01*
X1475723D01*
X1328928Y295910D02*
Y311145D01*
X1336546D01*
X1339085Y308606D01*
Y303528D01*
X1336546Y300988D01*
X1328928D01*
X1334006D02*
X1339085Y295910D01*
X1354320Y311145D02*
X1344163D01*
Y303528D01*
X1349241Y306067D01*
X1351781D01*
X1354320Y303528D01*
Y298449D01*
X1351781Y295910D01*
X1346702D01*
X1344163Y298449D01*
X1359398Y295910D02*
X1364476D01*
X1361937D01*
Y311145D01*
X1359398Y308606D01*
X1372094D02*
X1374633Y311145D01*
X1379712D01*
X1382251Y308606D01*
Y306067D01*
X1379712Y303528D01*
X1377172D01*
X1379712D01*
X1382251Y300988D01*
Y298449D01*
X1379712Y295910D01*
X1374633D01*
X1372094Y298449D01*
X1328928Y240030D02*
Y255265D01*
X1336546D01*
X1339085Y252726D01*
Y247647D01*
X1336546Y245108D01*
X1328928D01*
X1334006D02*
X1339085Y240030D01*
X1354320Y255265D02*
X1344163D01*
Y247647D01*
X1349241Y250187D01*
X1351781D01*
X1354320Y247647D01*
Y242569D01*
X1351781Y240030D01*
X1346702D01*
X1344163Y242569D01*
X1359398Y240030D02*
X1364476D01*
X1361937D01*
Y255265D01*
X1359398Y252726D01*
X1382251Y240030D02*
X1372094D01*
X1382251Y250187D01*
Y252726D01*
X1379712Y255265D01*
X1374633D01*
X1372094Y252726D01*
X1135761Y296037D02*
Y311272D01*
X1143379D01*
X1145918Y308733D01*
Y303654D01*
X1143379Y301115D01*
X1135761D01*
X1140839D02*
X1145918Y296037D01*
X1161153Y311272D02*
X1150996D01*
Y303654D01*
X1156074Y306194D01*
X1158614D01*
X1161153Y303654D01*
Y298576D01*
X1158614Y296037D01*
X1153535D01*
X1150996Y298576D01*
X1166231Y296037D02*
X1171310D01*
X1168770D01*
Y311272D01*
X1166231Y308733D01*
X1178927Y296037D02*
X1184005D01*
X1181466D01*
Y311272D01*
X1178927Y308733D01*
X1323848Y539750D02*
Y554985D01*
X1331465D01*
X1334005Y552446D01*
Y547368D01*
X1331465Y544828D01*
X1323848D01*
X1328926D02*
X1334005Y539750D01*
X1349240Y554985D02*
X1339083D01*
Y547368D01*
X1344161Y549907D01*
X1346701D01*
X1349240Y547368D01*
Y542289D01*
X1346701Y539750D01*
X1341622D01*
X1339083Y542289D01*
X1354318Y539750D02*
X1359397D01*
X1356857D01*
Y554985D01*
X1354318Y552446D01*
X1367014D02*
X1369553Y554985D01*
X1374632D01*
X1377171Y552446D01*
Y542289D01*
X1374632Y539750D01*
X1369553D01*
X1367014Y542289D01*
Y552446D01*
X1224280Y421640D02*
Y436875D01*
X1231898D01*
X1234437Y434336D01*
Y429258D01*
X1231898Y426718D01*
X1224280D01*
X1229358D02*
X1234437Y421640D01*
X1249672Y436875D02*
X1239515D01*
Y429258D01*
X1244593Y431797D01*
X1247133D01*
X1249672Y429258D01*
Y424179D01*
X1247133Y421640D01*
X1242054D01*
X1239515Y424179D01*
X1254750Y434336D02*
X1257289Y436875D01*
X1262368D01*
X1264907Y434336D01*
Y424179D01*
X1262368Y421640D01*
X1257289D01*
X1254750Y424179D01*
Y434336D01*
X1269985Y424179D02*
X1272524Y421640D01*
X1277603D01*
X1280142Y424179D01*
Y434336D01*
X1277603Y436875D01*
X1272524D01*
X1269985Y434336D01*
Y431797D01*
X1272524Y429258D01*
X1280142D01*
X1227328Y539750D02*
Y554985D01*
X1234946D01*
X1237485Y552446D01*
Y547368D01*
X1234946Y544828D01*
X1227328D01*
X1232406D02*
X1237485Y539750D01*
X1252720Y554985D02*
X1242563D01*
Y547368D01*
X1247641Y549907D01*
X1250181D01*
X1252720Y547368D01*
Y542289D01*
X1250181Y539750D01*
X1245102D01*
X1242563Y542289D01*
X1257798Y552446D02*
X1260337Y554985D01*
X1265416D01*
X1267955Y552446D01*
Y542289D01*
X1265416Y539750D01*
X1260337D01*
X1257798Y542289D01*
Y552446D01*
X1273033D02*
X1275572Y554985D01*
X1280651D01*
X1283190Y552446D01*
Y549907D01*
X1280651Y547368D01*
X1283190Y544828D01*
Y542289D01*
X1280651Y539750D01*
X1275572D01*
X1273033Y542289D01*
Y544828D01*
X1275572Y547368D01*
X1273033Y549907D01*
Y552446D01*
X1275572Y547368D02*
X1280651D01*
X1131365Y58978D02*
Y74213D01*
X1138982D01*
X1141522Y71674D01*
Y66596D01*
X1138982Y64056D01*
X1131365D01*
X1136443D02*
X1141522Y58978D01*
X1156757Y74213D02*
X1146600D01*
Y66596D01*
X1151678Y69135D01*
X1154217D01*
X1156757Y66596D01*
Y61517D01*
X1154217Y58978D01*
X1149139D01*
X1146600Y61517D01*
X1161835Y71674D02*
X1164374Y74213D01*
X1169452D01*
X1171992Y71674D01*
Y61517D01*
X1169452Y58978D01*
X1164374D01*
X1161835Y61517D01*
Y71674D01*
X1177070Y74213D02*
X1187227D01*
Y71674D01*
X1177070Y61517D01*
Y58978D01*
X1324543Y58761D02*
Y73996D01*
X1332160D01*
X1334700Y71457D01*
Y66379D01*
X1332160Y63840D01*
X1324543D01*
X1329621D02*
X1334700Y58761D01*
X1349935Y73996D02*
X1339778D01*
Y66379D01*
X1344856Y68918D01*
X1347396D01*
X1349935Y66379D01*
Y61301D01*
X1347396Y58761D01*
X1342317D01*
X1339778Y61301D01*
X1355013Y71457D02*
X1357552Y73996D01*
X1362631D01*
X1365170Y71457D01*
Y61301D01*
X1362631Y58761D01*
X1357552D01*
X1355013Y61301D01*
Y71457D01*
X1380405Y73996D02*
X1375327Y71457D01*
X1370248Y66379D01*
Y61301D01*
X1372787Y58761D01*
X1377866D01*
X1380405Y61301D01*
Y63840D01*
X1377866Y66379D01*
X1370248D01*
X1226235Y60339D02*
Y75574D01*
X1233852D01*
X1236392Y73035D01*
Y67957D01*
X1233852Y65418D01*
X1226235D01*
X1231313D02*
X1236392Y60339D01*
X1251627Y75574D02*
X1241470D01*
Y67957D01*
X1246548Y70496D01*
X1249087D01*
X1251627Y67957D01*
Y62879D01*
X1249087Y60339D01*
X1244009D01*
X1241470Y62879D01*
X1256705Y73035D02*
X1259244Y75574D01*
X1264323D01*
X1266862Y73035D01*
Y62879D01*
X1264323Y60339D01*
X1259244D01*
X1256705Y62879D01*
Y73035D01*
X1282097Y75574D02*
X1271940D01*
Y67957D01*
X1277018Y70496D01*
X1279557D01*
X1282097Y67957D01*
Y62879D01*
X1279557Y60339D01*
X1274479D01*
X1271940Y62879D01*
X1227328Y600710D02*
Y615945D01*
X1234946D01*
X1237485Y613406D01*
Y608327D01*
X1234946Y605788D01*
X1227328D01*
X1232406D02*
X1237485Y600710D01*
X1252720Y615945D02*
X1242563D01*
Y608327D01*
X1247641Y610867D01*
X1250181D01*
X1252720Y608327D01*
Y603249D01*
X1250181Y600710D01*
X1245102D01*
X1242563Y603249D01*
X1257798Y613406D02*
X1260337Y615945D01*
X1265416D01*
X1267955Y613406D01*
Y603249D01*
X1265416Y600710D01*
X1260337D01*
X1257798Y603249D01*
Y613406D01*
X1280651Y600710D02*
Y615945D01*
X1273033Y608327D01*
X1283190D01*
X1227328Y295910D02*
Y311145D01*
X1234946D01*
X1237485Y308606D01*
Y303528D01*
X1234946Y300988D01*
X1227328D01*
X1232406D02*
X1237485Y295910D01*
X1252720Y311145D02*
X1242563D01*
Y303528D01*
X1247641Y306067D01*
X1250181D01*
X1252720Y303528D01*
Y298449D01*
X1250181Y295910D01*
X1245102D01*
X1242563Y298449D01*
X1257798Y308606D02*
X1260337Y311145D01*
X1265416D01*
X1267955Y308606D01*
Y298449D01*
X1265416Y295910D01*
X1260337D01*
X1257798Y298449D01*
Y308606D01*
X1273033D02*
X1275572Y311145D01*
X1280651D01*
X1283190Y308606D01*
Y306067D01*
X1280651Y303528D01*
X1278112D01*
X1280651D01*
X1283190Y300988D01*
Y298449D01*
X1280651Y295910D01*
X1275572D01*
X1273033Y298449D01*
X1321571Y174214D02*
Y189449D01*
X1329189D01*
X1331728Y186910D01*
Y181832D01*
X1329189Y179293D01*
X1321571D01*
X1326650D02*
X1331728Y174214D01*
X1346963Y189449D02*
X1336806D01*
Y181832D01*
X1341885Y184371D01*
X1344424D01*
X1346963Y181832D01*
Y176754D01*
X1344424Y174214D01*
X1339346D01*
X1336806Y176754D01*
X1352041Y186910D02*
X1354581Y189449D01*
X1359659D01*
X1362198Y186910D01*
Y176754D01*
X1359659Y174214D01*
X1354581D01*
X1352041Y176754D01*
Y186910D01*
X1377433Y174214D02*
X1367277D01*
X1377433Y184371D01*
Y186910D01*
X1374894Y189449D01*
X1369816D01*
X1367277Y186910D01*
X1135888Y240030D02*
Y255265D01*
X1143505D01*
X1146045Y252726D01*
Y247647D01*
X1143505Y245108D01*
X1135888D01*
X1140966D02*
X1146045Y240030D01*
X1161280Y255265D02*
X1151123D01*
Y247647D01*
X1156201Y250187D01*
X1158741D01*
X1161280Y247647D01*
Y242569D01*
X1158741Y240030D01*
X1153662D01*
X1151123Y242569D01*
X1166358Y252726D02*
X1168897Y255265D01*
X1173976D01*
X1176515Y252726D01*
Y242569D01*
X1173976Y240030D01*
X1168897D01*
X1166358Y242569D01*
Y252726D01*
X1181593Y240030D02*
X1186672D01*
X1184132D01*
Y255265D01*
X1181593Y252726D01*
X1044448Y240030D02*
Y255265D01*
X1052066D01*
X1054605Y252726D01*
Y247647D01*
X1052066Y245108D01*
X1044448D01*
X1049526D02*
X1054605Y240030D01*
X1069840Y255265D02*
X1059683D01*
Y247647D01*
X1064761Y250187D01*
X1067301D01*
X1069840Y247647D01*
Y242569D01*
X1067301Y240030D01*
X1062222D01*
X1059683Y242569D01*
X1074918Y252726D02*
X1077457Y255265D01*
X1082536D01*
X1085075Y252726D01*
Y242569D01*
X1082536Y240030D01*
X1077457D01*
X1074918Y242569D01*
Y252726D01*
X1090153D02*
X1092692Y255265D01*
X1097771D01*
X1100310Y252726D01*
Y242569D01*
X1097771Y240030D01*
X1092692D01*
X1090153Y242569D01*
Y252726D01*
X1261364Y1255268D02*
Y1270503D01*
X1268981D01*
X1271521Y1267964D01*
Y1262886D01*
X1268981Y1260346D01*
X1261364D01*
X1266442D02*
X1271521Y1255268D01*
X1284217D02*
Y1270503D01*
X1276599Y1262886D01*
X1286756D01*
X1291834Y1255268D02*
X1296913D01*
X1294373D01*
Y1270503D01*
X1291834Y1267964D01*
X1314687Y1270503D02*
X1304530D01*
Y1262886D01*
X1309608Y1265425D01*
X1312148D01*
X1314687Y1262886D01*
Y1257807D01*
X1312148Y1255268D01*
X1307069D01*
X1304530Y1257807D01*
X1427480Y599440D02*
Y614675D01*
X1435098D01*
X1437637Y612136D01*
Y607057D01*
X1435098Y604518D01*
X1427480D01*
X1432558D02*
X1437637Y599440D01*
X1450333D02*
Y614675D01*
X1442715Y607057D01*
X1452872D01*
X1457950Y599440D02*
X1463029D01*
X1460489D01*
Y614675D01*
X1457950Y612136D01*
X1478264Y599440D02*
Y614675D01*
X1470646Y607057D01*
X1480803D01*
X1422400Y655320D02*
Y670555D01*
X1430018D01*
X1432557Y668016D01*
Y662937D01*
X1430018Y660398D01*
X1422400D01*
X1427478D02*
X1432557Y655320D01*
X1445253D02*
Y670555D01*
X1437635Y662937D01*
X1447792D01*
X1452870Y655320D02*
X1457948D01*
X1455409D01*
Y670555D01*
X1452870Y668016D01*
X1465566D02*
X1468105Y670555D01*
X1473184D01*
X1475723Y668016D01*
Y665477D01*
X1473184Y662937D01*
X1470644D01*
X1473184D01*
X1475723Y660398D01*
Y657859D01*
X1473184Y655320D01*
X1468105D01*
X1465566Y657859D01*
X1425448Y717550D02*
Y732785D01*
X1433065D01*
X1435605Y730246D01*
Y725167D01*
X1433065Y722628D01*
X1425448D01*
X1430526D02*
X1435605Y717550D01*
X1448301D02*
Y732785D01*
X1440683Y725167D01*
X1450840D01*
X1455918Y717550D02*
X1460997D01*
X1458457D01*
Y732785D01*
X1455918Y730246D01*
X1478771Y717550D02*
X1468614D01*
X1478771Y727707D01*
Y730246D01*
X1476232Y732785D01*
X1471153D01*
X1468614Y730246D01*
X1425448Y834390D02*
Y849625D01*
X1433065D01*
X1435605Y847086D01*
Y842008D01*
X1433065Y839468D01*
X1425448D01*
X1430526D02*
X1435605Y834390D01*
X1448301D02*
Y849625D01*
X1440683Y842008D01*
X1450840D01*
X1455918Y834390D02*
X1460997D01*
X1458457D01*
Y849625D01*
X1455918Y847086D01*
X1468614Y834390D02*
X1473692D01*
X1471153D01*
Y849625D01*
X1468614Y847086D01*
X1425448Y905510D02*
Y920745D01*
X1433065D01*
X1435605Y918206D01*
Y913128D01*
X1433065Y910588D01*
X1425448D01*
X1430526D02*
X1435605Y905510D01*
X1448301D02*
Y920745D01*
X1440683Y913128D01*
X1450840D01*
X1455918Y905510D02*
X1460997D01*
X1458457D01*
Y920745D01*
X1455918Y918206D01*
X1468614D02*
X1471153Y920745D01*
X1476232D01*
X1478771Y918206D01*
Y908049D01*
X1476232Y905510D01*
X1471153D01*
X1468614Y908049D01*
Y918206D01*
X1227328Y1098550D02*
Y1113785D01*
X1234946D01*
X1237485Y1111246D01*
Y1106168D01*
X1234946Y1103628D01*
X1227328D01*
X1232406D02*
X1237485Y1098550D01*
X1250181D02*
Y1113785D01*
X1242563Y1106168D01*
X1252720D01*
X1257798Y1111246D02*
X1260337Y1113785D01*
X1265416D01*
X1267955Y1111246D01*
Y1101089D01*
X1265416Y1098550D01*
X1260337D01*
X1257798Y1101089D01*
Y1111246D01*
X1273033Y1101089D02*
X1275572Y1098550D01*
X1280651D01*
X1283190Y1101089D01*
Y1111246D01*
X1280651Y1113785D01*
X1275572D01*
X1273033Y1111246D01*
Y1108707D01*
X1275572Y1106168D01*
X1283190D01*
X1224280Y1026160D02*
Y1041395D01*
X1231898D01*
X1234437Y1038856D01*
Y1033777D01*
X1231898Y1031238D01*
X1224280D01*
X1229358D02*
X1234437Y1026160D01*
X1247133D02*
Y1041395D01*
X1239515Y1033777D01*
X1249672D01*
X1254750Y1038856D02*
X1257289Y1041395D01*
X1262368D01*
X1264907Y1038856D01*
Y1028699D01*
X1262368Y1026160D01*
X1257289D01*
X1254750Y1028699D01*
Y1038856D01*
X1269985D02*
X1272524Y1041395D01*
X1277603D01*
X1280142Y1038856D01*
Y1036317D01*
X1277603Y1033777D01*
X1280142Y1031238D01*
Y1028699D01*
X1277603Y1026160D01*
X1272524D01*
X1269985Y1028699D01*
Y1031238D01*
X1272524Y1033777D01*
X1269985Y1036317D01*
Y1038856D01*
X1272524Y1033777D02*
X1277603D01*
X1323848Y656590D02*
Y671825D01*
X1331465D01*
X1334005Y669286D01*
Y664208D01*
X1331465Y661668D01*
X1323848D01*
X1328926D02*
X1334005Y656590D01*
X1346701D02*
Y671825D01*
X1339083Y664208D01*
X1349240D01*
X1354318Y669286D02*
X1356857Y671825D01*
X1361936D01*
X1364475Y669286D01*
Y659129D01*
X1361936Y656590D01*
X1356857D01*
X1354318Y659129D01*
Y669286D01*
X1369553Y671825D02*
X1379710D01*
Y669286D01*
X1369553Y659129D01*
Y656590D01*
X1320800Y599440D02*
Y614675D01*
X1328418D01*
X1330957Y612136D01*
Y607057D01*
X1328418Y604518D01*
X1320800D01*
X1325878D02*
X1330957Y599440D01*
X1343653D02*
Y614675D01*
X1336035Y607057D01*
X1346192D01*
X1351270Y612136D02*
X1353809Y614675D01*
X1358888D01*
X1361427Y612136D01*
Y601979D01*
X1358888Y599440D01*
X1353809D01*
X1351270Y601979D01*
Y612136D01*
X1376662Y614675D02*
X1371584Y612136D01*
X1366505Y607057D01*
Y601979D01*
X1369044Y599440D01*
X1374123D01*
X1376662Y601979D01*
Y604518D01*
X1374123Y607057D01*
X1366505D01*
X1425448Y1027430D02*
Y1042665D01*
X1433065D01*
X1435605Y1040126D01*
Y1035048D01*
X1433065Y1032508D01*
X1425448D01*
X1430526D02*
X1435605Y1027430D01*
X1448301D02*
Y1042665D01*
X1440683Y1035048D01*
X1450840D01*
X1455918Y1040126D02*
X1458457Y1042665D01*
X1463536D01*
X1466075Y1040126D01*
Y1029969D01*
X1463536Y1027430D01*
X1458457D01*
X1455918Y1029969D01*
Y1040126D01*
X1481310Y1042665D02*
X1471153D01*
Y1035048D01*
X1476232Y1037587D01*
X1478771D01*
X1481310Y1035048D01*
Y1029969D01*
X1478771Y1027430D01*
X1473692D01*
X1471153Y1029969D01*
X1320800Y965200D02*
Y980435D01*
X1328418D01*
X1330957Y977896D01*
Y972818D01*
X1328418Y970278D01*
X1320800D01*
X1325878D02*
X1330957Y965200D01*
X1343653D02*
Y980435D01*
X1336035Y972818D01*
X1346192D01*
X1351270Y977896D02*
X1353809Y980435D01*
X1358888D01*
X1361427Y977896D01*
Y967739D01*
X1358888Y965200D01*
X1353809D01*
X1351270Y967739D01*
Y977896D01*
X1374123Y965200D02*
Y980435D01*
X1366505Y972818D01*
X1376662D01*
X1227328Y910590D02*
Y925825D01*
X1234946D01*
X1237485Y923286D01*
Y918207D01*
X1234946Y915668D01*
X1227328D01*
X1232406D02*
X1237485Y910590D01*
X1250181D02*
Y925825D01*
X1242563Y918207D01*
X1252720D01*
X1257798Y923286D02*
X1260337Y925825D01*
X1265416D01*
X1267955Y923286D01*
Y913129D01*
X1265416Y910590D01*
X1260337D01*
X1257798Y913129D01*
Y923286D01*
X1273033D02*
X1275572Y925825D01*
X1280651D01*
X1283190Y923286D01*
Y920747D01*
X1280651Y918207D01*
X1278112D01*
X1280651D01*
X1283190Y915668D01*
Y913129D01*
X1280651Y910590D01*
X1275572D01*
X1273033Y913129D01*
X1227328Y777240D02*
Y792475D01*
X1234946D01*
X1237485Y789936D01*
Y784857D01*
X1234946Y782318D01*
X1227328D01*
X1232406D02*
X1237485Y777240D01*
X1250181D02*
Y792475D01*
X1242563Y784857D01*
X1252720D01*
X1257798Y789936D02*
X1260337Y792475D01*
X1265416D01*
X1267955Y789936D01*
Y779779D01*
X1265416Y777240D01*
X1260337D01*
X1257798Y779779D01*
Y789936D01*
X1283190Y777240D02*
X1273033D01*
X1283190Y787397D01*
Y789936D01*
X1280651Y792475D01*
X1275572D01*
X1273033Y789936D01*
X1323848Y1220470D02*
Y1235705D01*
X1331465D01*
X1334005Y1233166D01*
Y1228087D01*
X1331465Y1225548D01*
X1323848D01*
X1328926D02*
X1334005Y1220470D01*
X1346701D02*
Y1235705D01*
X1339083Y1228087D01*
X1349240D01*
X1354318Y1233166D02*
X1356857Y1235705D01*
X1361936D01*
X1364475Y1233166D01*
Y1223009D01*
X1361936Y1220470D01*
X1356857D01*
X1354318Y1223009D01*
Y1233166D01*
X1369553Y1220470D02*
X1374632D01*
X1372092D01*
Y1235705D01*
X1369553Y1233166D01*
X1227328Y660400D02*
Y675635D01*
X1234946D01*
X1237485Y673096D01*
Y668018D01*
X1234946Y665478D01*
X1227328D01*
X1232406D02*
X1237485Y660400D01*
X1250181D02*
Y675635D01*
X1242563Y668018D01*
X1252720D01*
X1257798Y673096D02*
X1260337Y675635D01*
X1265416D01*
X1267955Y673096D01*
Y662939D01*
X1265416Y660400D01*
X1260337D01*
X1257798Y662939D01*
Y673096D01*
X1273033D02*
X1275572Y675635D01*
X1280651D01*
X1283190Y673096D01*
Y662939D01*
X1280651Y660400D01*
X1275572D01*
X1273033Y662939D01*
Y673096D01*
X851408Y829310D02*
Y844545D01*
X859025D01*
X861565Y842006D01*
Y836927D01*
X859025Y834388D01*
X851408D01*
X856486D02*
X861565Y829310D01*
X866643Y842006D02*
X869182Y844545D01*
X874261D01*
X876800Y842006D01*
Y839467D01*
X874261Y836927D01*
X871721D01*
X874261D01*
X876800Y834388D01*
Y831849D01*
X874261Y829310D01*
X869182D01*
X866643Y831849D01*
X892035Y829310D02*
X881878D01*
X892035Y839467D01*
Y842006D01*
X889496Y844545D01*
X884417D01*
X881878Y842006D01*
X897113D02*
X899652Y844545D01*
X904731D01*
X907270Y842006D01*
Y839467D01*
X904731Y836927D01*
X902192D01*
X904731D01*
X907270Y834388D01*
Y831849D01*
X904731Y829310D01*
X899652D01*
X897113Y831849D01*
X927608Y829310D02*
Y844545D01*
X935226D01*
X937765Y842006D01*
Y836927D01*
X935226Y834388D01*
X927608D01*
X932686D02*
X937765Y829310D01*
X942843Y842006D02*
X945382Y844545D01*
X950461D01*
X953000Y842006D01*
Y839467D01*
X950461Y836927D01*
X947921D01*
X950461D01*
X953000Y834388D01*
Y831849D01*
X950461Y829310D01*
X945382D01*
X942843Y831849D01*
X968235Y829310D02*
X958078D01*
X968235Y839467D01*
Y842006D01*
X965696Y844545D01*
X960617D01*
X958078Y842006D01*
X983470Y829310D02*
X973313D01*
X983470Y839467D01*
Y842006D01*
X980931Y844545D01*
X975852D01*
X973313Y842006D01*
X699008Y829310D02*
Y844545D01*
X706626D01*
X709165Y842006D01*
Y836927D01*
X706626Y834388D01*
X699008D01*
X704086D02*
X709165Y829310D01*
X714243Y842006D02*
X716782Y844545D01*
X721861D01*
X724400Y842006D01*
Y839467D01*
X721861Y836927D01*
X719321D01*
X721861D01*
X724400Y834388D01*
Y831849D01*
X721861Y829310D01*
X716782D01*
X714243Y831849D01*
X739635Y829310D02*
X729478D01*
X739635Y839467D01*
Y842006D01*
X737096Y844545D01*
X732017D01*
X729478Y842006D01*
X744713Y829310D02*
X749792D01*
X747252D01*
Y844545D01*
X744713Y842006D01*
X927608Y763270D02*
Y778505D01*
X935226D01*
X937765Y775966D01*
Y770888D01*
X935226Y768348D01*
X927608D01*
X932686D02*
X937765Y763270D01*
X942843Y775966D02*
X945382Y778505D01*
X950461D01*
X953000Y775966D01*
Y773427D01*
X950461Y770888D01*
X947921D01*
X950461D01*
X953000Y768348D01*
Y765809D01*
X950461Y763270D01*
X945382D01*
X942843Y765809D01*
X968235Y763270D02*
X958078D01*
X968235Y773427D01*
Y775966D01*
X965696Y778505D01*
X960617D01*
X958078Y775966D01*
X973313D02*
X975852Y778505D01*
X980931D01*
X983470Y775966D01*
Y765809D01*
X980931Y763270D01*
X975852D01*
X973313Y765809D01*
Y775966D01*
X775208Y829310D02*
Y844545D01*
X782825D01*
X785365Y842006D01*
Y836927D01*
X782825Y834388D01*
X775208D01*
X780286D02*
X785365Y829310D01*
X790443Y842006D02*
X792982Y844545D01*
X798061D01*
X800600Y842006D01*
Y839467D01*
X798061Y836927D01*
X795521D01*
X798061D01*
X800600Y834388D01*
Y831849D01*
X798061Y829310D01*
X792982D01*
X790443Y831849D01*
X805678Y829310D02*
X810757D01*
X808217D01*
Y844545D01*
X805678Y842006D01*
X818374Y831849D02*
X820913Y829310D01*
X825992D01*
X828531Y831849D01*
Y842006D01*
X825992Y844545D01*
X820913D01*
X818374Y842006D01*
Y839467D01*
X820913Y836927D01*
X828531D01*
X927608Y626110D02*
Y641345D01*
X935226D01*
X937765Y638806D01*
Y633727D01*
X935226Y631188D01*
X927608D01*
X932686D02*
X937765Y626110D01*
X942843Y638806D02*
X945382Y641345D01*
X950461D01*
X953000Y638806D01*
Y636267D01*
X950461Y633727D01*
X947921D01*
X950461D01*
X953000Y631188D01*
Y628649D01*
X950461Y626110D01*
X945382D01*
X942843Y628649D01*
X958078Y626110D02*
X963157D01*
X960617D01*
Y641345D01*
X958078Y638806D01*
X970774D02*
X973313Y641345D01*
X978392D01*
X980931Y638806D01*
Y636267D01*
X978392Y633727D01*
X980931Y631188D01*
Y628649D01*
X978392Y626110D01*
X973313D01*
X970774Y628649D01*
Y631188D01*
X973313Y633727D01*
X970774Y636267D01*
Y638806D01*
X973313Y633727D02*
X978392D01*
X699008Y549910D02*
Y565145D01*
X706626D01*
X709165Y562606D01*
Y557528D01*
X706626Y554988D01*
X699008D01*
X704086D02*
X709165Y549910D01*
X714243Y562606D02*
X716782Y565145D01*
X721861D01*
X724400Y562606D01*
Y560067D01*
X721861Y557528D01*
X719321D01*
X721861D01*
X724400Y554988D01*
Y552449D01*
X721861Y549910D01*
X716782D01*
X714243Y552449D01*
X729478Y549910D02*
X734557D01*
X732017D01*
Y565145D01*
X729478Y562606D01*
X742174Y565145D02*
X752331D01*
Y562606D01*
X742174Y552449D01*
Y549910D01*
X927608Y692150D02*
Y707385D01*
X935226D01*
X937765Y704846D01*
Y699768D01*
X935226Y697228D01*
X927608D01*
X932686D02*
X937765Y692150D01*
X942843Y704846D02*
X945382Y707385D01*
X950461D01*
X953000Y704846D01*
Y702307D01*
X950461Y699768D01*
X947921D01*
X950461D01*
X953000Y697228D01*
Y694689D01*
X950461Y692150D01*
X945382D01*
X942843Y694689D01*
X958078Y692150D02*
X963157D01*
X960617D01*
Y707385D01*
X958078Y704846D01*
X980931Y707385D02*
X975852Y704846D01*
X970774Y699768D01*
Y694689D01*
X973313Y692150D01*
X978392D01*
X980931Y694689D01*
Y697228D01*
X978392Y699768D01*
X970774D01*
X699008Y626110D02*
Y641345D01*
X706626D01*
X709165Y638806D01*
Y633727D01*
X706626Y631188D01*
X699008D01*
X704086D02*
X709165Y626110D01*
X714243Y638806D02*
X716782Y641345D01*
X721861D01*
X724400Y638806D01*
Y636267D01*
X721861Y633727D01*
X719321D01*
X721861D01*
X724400Y631188D01*
Y628649D01*
X721861Y626110D01*
X716782D01*
X714243Y628649D01*
X729478Y626110D02*
X734557D01*
X732017D01*
Y641345D01*
X729478Y638806D01*
X752331Y641345D02*
X742174D01*
Y633727D01*
X747252Y636267D01*
X749792D01*
X752331Y633727D01*
Y628649D01*
X749792Y626110D01*
X744713D01*
X742174Y628649D01*
X998728Y692150D02*
Y707385D01*
X1006346D01*
X1008885Y704846D01*
Y699768D01*
X1006346Y697228D01*
X998728D01*
X1003806D02*
X1008885Y692150D01*
X1013963Y704846D02*
X1016502Y707385D01*
X1021581D01*
X1024120Y704846D01*
Y702307D01*
X1021581Y699768D01*
X1019041D01*
X1021581D01*
X1024120Y697228D01*
Y694689D01*
X1021581Y692150D01*
X1016502D01*
X1013963Y694689D01*
X1029198Y692150D02*
X1034277D01*
X1031737D01*
Y707385D01*
X1029198Y704846D01*
X1049512Y692150D02*
Y707385D01*
X1041894Y699768D01*
X1052051D01*
X851408Y626110D02*
Y641345D01*
X859025D01*
X861565Y638806D01*
Y633727D01*
X859025Y631188D01*
X851408D01*
X856486D02*
X861565Y626110D01*
X866643Y638806D02*
X869182Y641345D01*
X874261D01*
X876800Y638806D01*
Y636267D01*
X874261Y633727D01*
X871721D01*
X874261D01*
X876800Y631188D01*
Y628649D01*
X874261Y626110D01*
X869182D01*
X866643Y628649D01*
X881878Y626110D02*
X886956D01*
X884417D01*
Y641345D01*
X881878Y638806D01*
X894574D02*
X897113Y641345D01*
X902192D01*
X904731Y638806D01*
Y636267D01*
X902192Y633727D01*
X899652D01*
X902192D01*
X904731Y631188D01*
Y628649D01*
X902192Y626110D01*
X897113D01*
X894574Y628649D01*
X699008Y758190D02*
Y773425D01*
X706626D01*
X709165Y770886D01*
Y765807D01*
X706626Y763268D01*
X699008D01*
X704086D02*
X709165Y758190D01*
X714243Y770886D02*
X716782Y773425D01*
X721861D01*
X724400Y770886D01*
Y768347D01*
X721861Y765807D01*
X719321D01*
X721861D01*
X724400Y763268D01*
Y760729D01*
X721861Y758190D01*
X716782D01*
X714243Y760729D01*
X729478Y758190D02*
X734557D01*
X732017D01*
Y773425D01*
X729478Y770886D01*
X752331Y758190D02*
X742174D01*
X752331Y768347D01*
Y770886D01*
X749792Y773425D01*
X744713D01*
X742174Y770886D01*
X698881Y417957D02*
Y433192D01*
X706498D01*
X709038Y430653D01*
Y425574D01*
X706498Y423035D01*
X698881D01*
X703959D02*
X709038Y417957D01*
X714116Y430653D02*
X716655Y433192D01*
X721734D01*
X724273Y430653D01*
Y428114D01*
X721734Y425574D01*
X719194D01*
X721734D01*
X724273Y423035D01*
Y420496D01*
X721734Y417957D01*
X716655D01*
X714116Y420496D01*
X729351Y417957D02*
X734429D01*
X731890D01*
Y433192D01*
X729351Y430653D01*
X742047Y417957D02*
X747125D01*
X744586D01*
Y433192D01*
X742047Y430653D01*
X775208Y478790D02*
Y494025D01*
X782825D01*
X785365Y491486D01*
Y486408D01*
X782825Y483868D01*
X775208D01*
X780286D02*
X785365Y478790D01*
X790443Y491486D02*
X792982Y494025D01*
X798061D01*
X800600Y491486D01*
Y488947D01*
X798061Y486408D01*
X795521D01*
X798061D01*
X800600Y483868D01*
Y481329D01*
X798061Y478790D01*
X792982D01*
X790443Y481329D01*
X805678Y478790D02*
X810757D01*
X808217D01*
Y494025D01*
X805678Y491486D01*
X818374D02*
X820913Y494025D01*
X825992D01*
X828531Y491486D01*
Y481329D01*
X825992Y478790D01*
X820913D01*
X818374Y481329D01*
Y491486D01*
X851408Y280670D02*
Y295905D01*
X859025D01*
X861565Y293366D01*
Y288288D01*
X859025Y285748D01*
X851408D01*
X856486D02*
X861565Y280670D01*
X866643Y293366D02*
X869182Y295905D01*
X874261D01*
X876800Y293366D01*
Y290827D01*
X874261Y288288D01*
X871721D01*
X874261D01*
X876800Y285748D01*
Y283209D01*
X874261Y280670D01*
X869182D01*
X866643Y283209D01*
X881878Y293366D02*
X884417Y295905D01*
X889496D01*
X892035Y293366D01*
Y283209D01*
X889496Y280670D01*
X884417D01*
X881878Y283209D01*
Y293366D01*
X897113Y283209D02*
X899652Y280670D01*
X904731D01*
X907270Y283209D01*
Y293366D01*
X904731Y295905D01*
X899652D01*
X897113Y293366D01*
Y290827D01*
X899652Y288288D01*
X907270D01*
X927608Y478790D02*
Y494025D01*
X935226D01*
X937765Y491486D01*
Y486408D01*
X935226Y483868D01*
X927608D01*
X932686D02*
X937765Y478790D01*
X942843Y491486D02*
X945382Y494025D01*
X950461D01*
X953000Y491486D01*
Y488947D01*
X950461Y486408D01*
X947921D01*
X950461D01*
X953000Y483868D01*
Y481329D01*
X950461Y478790D01*
X945382D01*
X942843Y481329D01*
X958078Y491486D02*
X960617Y494025D01*
X965696D01*
X968235Y491486D01*
Y481329D01*
X965696Y478790D01*
X960617D01*
X958078Y481329D01*
Y491486D01*
X973313D02*
X975852Y494025D01*
X980931D01*
X983470Y491486D01*
Y488947D01*
X980931Y486408D01*
X983470Y483868D01*
Y481329D01*
X980931Y478790D01*
X975852D01*
X973313Y481329D01*
Y483868D01*
X975852Y486408D01*
X973313Y488947D01*
Y491486D01*
X975852Y486408D02*
X980931D01*
X699008Y478790D02*
Y494025D01*
X706626D01*
X709165Y491486D01*
Y486408D01*
X706626Y483868D01*
X699008D01*
X704086D02*
X709165Y478790D01*
X714243Y491486D02*
X716782Y494025D01*
X721861D01*
X724400Y491486D01*
Y488947D01*
X721861Y486408D01*
X719321D01*
X721861D01*
X724400Y483868D01*
Y481329D01*
X721861Y478790D01*
X716782D01*
X714243Y481329D01*
X729478Y491486D02*
X732017Y494025D01*
X737096D01*
X739635Y491486D01*
Y481329D01*
X737096Y478790D01*
X732017D01*
X729478Y481329D01*
Y491486D01*
X744713Y494025D02*
X754870D01*
Y491486D01*
X744713Y481329D01*
Y478790D01*
X927608Y549910D02*
Y565145D01*
X935226D01*
X937765Y562606D01*
Y557528D01*
X935226Y554988D01*
X927608D01*
X932686D02*
X937765Y549910D01*
X942843Y562606D02*
X945382Y565145D01*
X950461D01*
X953000Y562606D01*
Y560067D01*
X950461Y557528D01*
X947921D01*
X950461D01*
X953000Y554988D01*
Y552449D01*
X950461Y549910D01*
X945382D01*
X942843Y552449D01*
X958078Y562606D02*
X960617Y565145D01*
X965696D01*
X968235Y562606D01*
Y552449D01*
X965696Y549910D01*
X960617D01*
X958078Y552449D01*
Y562606D01*
X983470Y565145D02*
X978392Y562606D01*
X973313Y557528D01*
Y552449D01*
X975852Y549910D01*
X980931D01*
X983470Y552449D01*
Y554988D01*
X980931Y557528D01*
X973313D01*
X775208Y417830D02*
Y433065D01*
X782825D01*
X785365Y430526D01*
Y425448D01*
X782825Y422908D01*
X775208D01*
X780286D02*
X785365Y417830D01*
X790443Y430526D02*
X792982Y433065D01*
X798061D01*
X800600Y430526D01*
Y427987D01*
X798061Y425448D01*
X795521D01*
X798061D01*
X800600Y422908D01*
Y420369D01*
X798061Y417830D01*
X792982D01*
X790443Y420369D01*
X805678Y430526D02*
X808217Y433065D01*
X813296D01*
X815835Y430526D01*
Y420369D01*
X813296Y417830D01*
X808217D01*
X805678Y420369D01*
Y430526D01*
X831070Y433065D02*
X820913D01*
Y425448D01*
X825992Y427987D01*
X828531D01*
X831070Y425448D01*
Y420369D01*
X828531Y417830D01*
X823452D01*
X820913Y420369D01*
X932688Y280670D02*
Y295905D01*
X940305D01*
X942845Y293366D01*
Y288288D01*
X940305Y285748D01*
X932688D01*
X937766D02*
X942845Y280670D01*
X947923Y293366D02*
X950462Y295905D01*
X955541D01*
X958080Y293366D01*
Y290827D01*
X955541Y288288D01*
X953001D01*
X955541D01*
X958080Y285748D01*
Y283209D01*
X955541Y280670D01*
X950462D01*
X947923Y283209D01*
X963158Y293366D02*
X965697Y295905D01*
X970776D01*
X973315Y293366D01*
Y283209D01*
X970776Y280670D01*
X965697D01*
X963158Y283209D01*
Y293366D01*
X986011Y280670D02*
Y295905D01*
X978393Y288288D01*
X988550D01*
X775208Y279146D02*
Y294381D01*
X782825D01*
X785365Y291842D01*
Y286763D01*
X782825Y284224D01*
X775208D01*
X780286D02*
X785365Y279146D01*
X790443Y291842D02*
X792982Y294381D01*
X798061D01*
X800600Y291842D01*
Y289303D01*
X798061Y286763D01*
X795521D01*
X798061D01*
X800600Y284224D01*
Y281685D01*
X798061Y279146D01*
X792982D01*
X790443Y281685D01*
X805678Y291842D02*
X808217Y294381D01*
X813296D01*
X815835Y291842D01*
Y281685D01*
X813296Y279146D01*
X808217D01*
X805678Y281685D01*
Y291842D01*
X820913D02*
X823452Y294381D01*
X828531D01*
X831070Y291842D01*
Y289303D01*
X828531Y286763D01*
X825992D01*
X828531D01*
X831070Y284224D01*
Y281685D01*
X828531Y279146D01*
X823452D01*
X820913Y281685D01*
X699008Y280670D02*
Y295905D01*
X706626D01*
X709165Y293366D01*
Y288288D01*
X706626Y285748D01*
X699008D01*
X704086D02*
X709165Y280670D01*
X714243Y293366D02*
X716782Y295905D01*
X721861D01*
X724400Y293366D01*
Y290827D01*
X721861Y288288D01*
X719321D01*
X721861D01*
X724400Y285748D01*
Y283209D01*
X721861Y280670D01*
X716782D01*
X714243Y283209D01*
X729478Y293366D02*
X732017Y295905D01*
X737096D01*
X739635Y293366D01*
Y283209D01*
X737096Y280670D01*
X732017D01*
X729478Y283209D01*
Y293366D01*
X754870Y280670D02*
X744713D01*
X754870Y290827D01*
Y293366D01*
X752331Y295905D01*
X747252D01*
X744713Y293366D01*
X699008Y356870D02*
Y372105D01*
X706626D01*
X709165Y369566D01*
Y364487D01*
X706626Y361948D01*
X699008D01*
X704086D02*
X709165Y356870D01*
X714243Y369566D02*
X716782Y372105D01*
X721861D01*
X724400Y369566D01*
Y367027D01*
X721861Y364487D01*
X719321D01*
X721861D01*
X724400Y361948D01*
Y359409D01*
X721861Y356870D01*
X716782D01*
X714243Y359409D01*
X729478Y369566D02*
X732017Y372105D01*
X737096D01*
X739635Y369566D01*
Y359409D01*
X737096Y356870D01*
X732017D01*
X729478Y359409D01*
Y369566D01*
X744713Y356870D02*
X749792D01*
X747252D01*
Y372105D01*
X744713Y369566D01*
X851408Y478790D02*
Y494025D01*
X859025D01*
X861565Y491486D01*
Y486408D01*
X859025Y483868D01*
X851408D01*
X856486D02*
X861565Y478790D01*
X866643Y491486D02*
X869182Y494025D01*
X874261D01*
X876800Y491486D01*
Y488947D01*
X874261Y486408D01*
X871721D01*
X874261D01*
X876800Y483868D01*
Y481329D01*
X874261Y478790D01*
X869182D01*
X866643Y481329D01*
X881878Y491486D02*
X884417Y494025D01*
X889496D01*
X892035Y491486D01*
Y481329D01*
X889496Y478790D01*
X884417D01*
X881878Y481329D01*
Y491486D01*
X897113D02*
X899652Y494025D01*
X904731D01*
X907270Y491486D01*
Y481329D01*
X904731Y478790D01*
X899652D01*
X897113Y481329D01*
Y491486D01*
X650240Y523240D02*
X635005D01*
Y530858D01*
X637544Y533397D01*
X642623D01*
X645162Y530858D01*
Y523240D01*
Y528318D02*
X650240Y533397D01*
Y548632D02*
Y538475D01*
X640083Y548632D01*
X637544D01*
X635005Y546093D01*
Y541014D01*
X637544Y538475D01*
Y553710D02*
X635005Y556249D01*
Y561328D01*
X637544Y563867D01*
X647701D01*
X650240Y561328D01*
Y556249D01*
X647701Y553710D01*
X637544D01*
X635005Y579102D02*
Y568945D01*
X642623D01*
X640083Y574024D01*
Y576563D01*
X642623Y579102D01*
X647701D01*
X650240Y576563D01*
Y571484D01*
X647701Y568945D01*
X582168Y295910D02*
Y311145D01*
X589785D01*
X592325Y308606D01*
Y303528D01*
X589785Y300988D01*
X582168D01*
X587246D02*
X592325Y295910D01*
X607560D02*
X597403D01*
X607560Y306067D01*
Y308606D01*
X605021Y311145D01*
X599942D01*
X597403Y308606D01*
X612638D02*
X615177Y311145D01*
X620256D01*
X622795Y308606D01*
Y298449D01*
X620256Y295910D01*
X615177D01*
X612638Y298449D01*
Y308606D01*
X635491Y295910D02*
Y311145D01*
X627873Y303528D01*
X638030D01*
X320040Y86360D02*
Y101595D01*
X327658D01*
X330197Y99056D01*
Y93977D01*
X327658Y91438D01*
X320040D01*
X325118D02*
X330197Y86360D01*
X345432D02*
X335275D01*
X345432Y96517D01*
Y99056D01*
X342893Y101595D01*
X337814D01*
X335275Y99056D01*
X350510D02*
X353049Y101595D01*
X358128D01*
X360667Y99056D01*
Y88899D01*
X358128Y86360D01*
X353049D01*
X350510Y88899D01*
Y99056D01*
X365745D02*
X368284Y101595D01*
X373363D01*
X375902Y99056D01*
Y96517D01*
X373363Y93977D01*
X370824D01*
X373363D01*
X375902Y91438D01*
Y88899D01*
X373363Y86360D01*
X368284D01*
X365745Y88899D01*
X431800Y614680D02*
X416565D01*
Y622298D01*
X419104Y624837D01*
X424183D01*
X426722Y622298D01*
Y614680D01*
Y619758D02*
X431800Y624837D01*
Y640072D02*
Y629915D01*
X421643Y640072D01*
X419104D01*
X416565Y637533D01*
Y632454D01*
X419104Y629915D01*
Y645150D02*
X416565Y647689D01*
Y652768D01*
X419104Y655307D01*
X429261D01*
X431800Y652768D01*
Y647689D01*
X429261Y645150D01*
X419104D01*
X431800Y670542D02*
Y660385D01*
X421643Y670542D01*
X419104D01*
X416565Y668003D01*
Y662924D01*
X419104Y660385D01*
X431800Y523240D02*
X416565D01*
Y530858D01*
X419104Y533397D01*
X424183D01*
X426722Y530858D01*
Y523240D01*
Y528318D02*
X431800Y533397D01*
Y548632D02*
Y538475D01*
X421643Y548632D01*
X419104D01*
X416565Y546093D01*
Y541014D01*
X419104Y538475D01*
Y553710D02*
X416565Y556249D01*
Y561328D01*
X419104Y563867D01*
X429261D01*
X431800Y561328D01*
Y556249D01*
X429261Y553710D01*
X419104D01*
X431800Y568945D02*
Y574024D01*
Y571484D01*
X416565D01*
X419104Y568945D01*
X472440Y289560D02*
Y304795D01*
X480057D01*
X482597Y302256D01*
Y297178D01*
X480057Y294638D01*
X472440D01*
X477518D02*
X482597Y289560D01*
X497832D02*
X487675D01*
X497832Y299717D01*
Y302256D01*
X495293Y304795D01*
X490214D01*
X487675Y302256D01*
X502910D02*
X505449Y304795D01*
X510528D01*
X513067Y302256D01*
Y292099D01*
X510528Y289560D01*
X505449D01*
X502910Y292099D01*
Y302256D01*
X518145D02*
X520684Y304795D01*
X525763D01*
X528302Y302256D01*
Y292099D01*
X525763Y289560D01*
X520684D01*
X518145Y292099D01*
Y302256D01*
X675640Y1381760D02*
Y1396995D01*
X683258D01*
X685797Y1394456D01*
Y1389377D01*
X683258Y1386838D01*
X675640D01*
X680718D02*
X685797Y1381760D01*
X690875D02*
X695953D01*
X693414D01*
Y1396995D01*
X690875Y1394456D01*
X703571D02*
X706110Y1396995D01*
X711189D01*
X713728Y1394456D01*
Y1391917D01*
X711189Y1389377D01*
X708649D01*
X711189D01*
X713728Y1386838D01*
Y1384299D01*
X711189Y1381760D01*
X706110D01*
X703571Y1384299D01*
X718806Y1394456D02*
X721345Y1396995D01*
X726424D01*
X728963Y1394456D01*
Y1384299D01*
X726424Y1381760D01*
X721345D01*
X718806Y1384299D01*
Y1394456D01*
X157480Y1381760D02*
Y1396995D01*
X165098D01*
X167637Y1394456D01*
Y1389377D01*
X165098Y1386838D01*
X157480D01*
X162558D02*
X167637Y1381760D01*
X172715D02*
X177793D01*
X175254D01*
Y1396995D01*
X172715Y1394456D01*
X195568Y1381760D02*
X185411D01*
X195568Y1391917D01*
Y1394456D01*
X193029Y1396995D01*
X187950D01*
X185411Y1394456D01*
X200646Y1384299D02*
X203185Y1381760D01*
X208264D01*
X210803Y1384299D01*
Y1394456D01*
X208264Y1396995D01*
X203185D01*
X200646Y1394456D01*
Y1391917D01*
X203185Y1389377D01*
X210803D01*
X675640Y944880D02*
Y960115D01*
X683258D01*
X685797Y957576D01*
Y952497D01*
X683258Y949958D01*
X675640D01*
X680718D02*
X685797Y944880D01*
X690875D02*
X695953D01*
X693414D01*
Y960115D01*
X690875Y957576D01*
X713728Y944880D02*
X703571D01*
X713728Y955037D01*
Y957576D01*
X711189Y960115D01*
X706110D01*
X703571Y957576D01*
X718806D02*
X721345Y960115D01*
X726424D01*
X728963Y957576D01*
Y955037D01*
X726424Y952497D01*
X728963Y949958D01*
Y947419D01*
X726424Y944880D01*
X721345D01*
X718806Y947419D01*
Y949958D01*
X721345Y952497D01*
X718806Y955037D01*
Y957576D01*
X721345Y952497D02*
X726424D01*
X152400Y848360D02*
Y863595D01*
X160018D01*
X162557Y861056D01*
Y855977D01*
X160018Y853438D01*
X152400D01*
X157478D02*
X162557Y848360D01*
X167635D02*
X172713D01*
X170174D01*
Y863595D01*
X167635Y861056D01*
X190488Y848360D02*
X180331D01*
X190488Y858517D01*
Y861056D01*
X187948Y863595D01*
X182870D01*
X180331Y861056D01*
X195566Y863595D02*
X205723D01*
Y861056D01*
X195566Y850899D01*
Y848360D01*
X533461Y1450298D02*
Y1465533D01*
X541078D01*
X543618Y1462994D01*
Y1457916D01*
X541078Y1455376D01*
X533461D01*
X538539D02*
X543618Y1450298D01*
X548696D02*
X553774D01*
X551235D01*
Y1465533D01*
X548696Y1462994D01*
X571549Y1450298D02*
X561392D01*
X571549Y1460455D01*
Y1462994D01*
X569010Y1465533D01*
X563931D01*
X561392Y1462994D01*
X586784Y1465533D02*
X581705Y1462994D01*
X576627Y1457916D01*
Y1452837D01*
X579166Y1450298D01*
X584244D01*
X586784Y1452837D01*
Y1455376D01*
X584244Y1457916D01*
X576627D01*
X82536Y1477352D02*
Y1492587D01*
X90153D01*
X92692Y1490048D01*
Y1484970D01*
X90153Y1482431D01*
X82536D01*
X87614D02*
X92692Y1477352D01*
X97771D02*
X102849D01*
X100310D01*
Y1492587D01*
X97771Y1490048D01*
X120624Y1477352D02*
X110467D01*
X120624Y1487509D01*
Y1490048D01*
X118084Y1492587D01*
X113006D01*
X110467Y1490048D01*
X135858Y1492587D02*
X125702D01*
Y1484970D01*
X130780Y1487509D01*
X133319D01*
X135858Y1484970D01*
Y1479891D01*
X133319Y1477352D01*
X128241D01*
X125702Y1479891D01*
X1049528Y1306830D02*
Y1322065D01*
X1057145D01*
X1059685Y1319526D01*
Y1314447D01*
X1057145Y1311908D01*
X1049528D01*
X1054606D02*
X1059685Y1306830D01*
X1064763D02*
X1069841D01*
X1067302D01*
Y1322065D01*
X1064763Y1319526D01*
X1087616Y1306830D02*
X1077459D01*
X1087616Y1316987D01*
Y1319526D01*
X1085077Y1322065D01*
X1079998D01*
X1077459Y1319526D01*
X1100312Y1306830D02*
Y1322065D01*
X1092694Y1314447D01*
X1102851D01*
X421640Y1112520D02*
Y1127755D01*
X429258D01*
X431797Y1125216D01*
Y1120137D01*
X429258Y1117598D01*
X421640D01*
X426718D02*
X431797Y1112520D01*
X436875D02*
X441953D01*
X439414D01*
Y1127755D01*
X436875Y1125216D01*
X459728Y1112520D02*
X449571D01*
X459728Y1122677D01*
Y1125216D01*
X457188Y1127755D01*
X452110D01*
X449571Y1125216D01*
X464806D02*
X467345Y1127755D01*
X472424D01*
X474963Y1125216D01*
Y1122677D01*
X472424Y1120137D01*
X469884D01*
X472424D01*
X474963Y1117598D01*
Y1115059D01*
X472424Y1112520D01*
X467345D01*
X464806Y1115059D01*
X171188Y1070991D02*
Y1086226D01*
X178805D01*
X181345Y1083687D01*
Y1078609D01*
X178805Y1076070D01*
X171188D01*
X176266D02*
X181345Y1070991D01*
X186423D02*
X191501D01*
X188962D01*
Y1086226D01*
X186423Y1083687D01*
X209276Y1070991D02*
X199119D01*
X209276Y1081148D01*
Y1083687D01*
X206736Y1086226D01*
X201658D01*
X199119Y1083687D01*
X224511Y1070991D02*
X214354D01*
X224511Y1081148D01*
Y1083687D01*
X221971Y1086226D01*
X216893D01*
X214354Y1083687D01*
X532179Y989670D02*
X516944D01*
Y997288D01*
X519483Y999827D01*
X524562D01*
X527101Y997288D01*
Y989670D01*
Y994749D02*
X532179Y999827D01*
Y1004905D02*
Y1009984D01*
Y1007444D01*
X516944D01*
X519483Y1004905D01*
X532179Y1027758D02*
Y1017601D01*
X522023Y1027758D01*
X519483D01*
X516944Y1025219D01*
Y1020140D01*
X519483Y1017601D01*
X532179Y1032836D02*
Y1037915D01*
Y1035375D01*
X516944D01*
X519483Y1032836D01*
X968248Y1418590D02*
Y1433825D01*
X975865D01*
X978405Y1431286D01*
Y1426207D01*
X975865Y1423668D01*
X968248D01*
X973326D02*
X978405Y1418590D01*
X983483D02*
X988561D01*
X986022D01*
Y1433825D01*
X983483Y1431286D01*
X1006336Y1418590D02*
X996179D01*
X1006336Y1428747D01*
Y1431286D01*
X1003796Y1433825D01*
X998718D01*
X996179Y1431286D01*
X1011414D02*
X1013953Y1433825D01*
X1019032D01*
X1021571Y1431286D01*
Y1421129D01*
X1019032Y1418590D01*
X1013953D01*
X1011414Y1421129D01*
Y1431286D01*
X967486Y1476756D02*
Y1491991D01*
X975104D01*
X977643Y1489452D01*
Y1484373D01*
X975104Y1481834D01*
X967486D01*
X972564D02*
X977643Y1476756D01*
X982721D02*
X987799D01*
X985260D01*
Y1491991D01*
X982721Y1489452D01*
X995417Y1476756D02*
X1000495D01*
X997956D01*
Y1491991D01*
X995417Y1489452D01*
X1008113Y1479295D02*
X1010652Y1476756D01*
X1015730D01*
X1018270Y1479295D01*
Y1489452D01*
X1015730Y1491991D01*
X1010652D01*
X1008113Y1489452D01*
Y1486913D01*
X1010652Y1484373D01*
X1018270D01*
X86980Y1061144D02*
Y1076380D01*
X94598D01*
X97137Y1073840D01*
Y1068762D01*
X94598Y1066223D01*
X86980D01*
X92058D02*
X97137Y1061144D01*
X102215D02*
X107294D01*
X104754D01*
Y1076380D01*
X102215Y1073840D01*
X114911Y1061144D02*
X119990D01*
X117450D01*
Y1076380D01*
X114911Y1073840D01*
X127607D02*
X130146Y1076380D01*
X135225D01*
X137764Y1073840D01*
Y1071301D01*
X135225Y1068762D01*
X137764Y1066223D01*
Y1063684D01*
X135225Y1061144D01*
X130146D01*
X127607Y1063684D01*
Y1066223D01*
X130146Y1068762D01*
X127607Y1071301D01*
Y1073840D01*
X130146Y1068762D02*
X135225D01*
X594360Y1000760D02*
Y1015995D01*
X601978D01*
X604517Y1013456D01*
Y1008378D01*
X601978Y1005838D01*
X594360D01*
X599438D02*
X604517Y1000760D01*
X609595D02*
X614673D01*
X612134D01*
Y1015995D01*
X609595Y1013456D01*
X622291Y1000760D02*
X627369D01*
X624830D01*
Y1015995D01*
X622291Y1013456D01*
X634987Y1015995D02*
X645144D01*
Y1013456D01*
X634987Y1003299D01*
Y1000760D01*
X227076Y857758D02*
Y872993D01*
X234694D01*
X237233Y870454D01*
Y865376D01*
X234694Y862836D01*
X227076D01*
X232154D02*
X237233Y857758D01*
X242311D02*
X247389D01*
X244850D01*
Y872993D01*
X242311Y870454D01*
X255007Y857758D02*
X260085D01*
X257546D01*
Y872993D01*
X255007Y870454D01*
X277860Y872993D02*
X272781Y870454D01*
X267703Y865376D01*
Y860297D01*
X270242Y857758D01*
X275320D01*
X277860Y860297D01*
Y862836D01*
X275320Y865376D01*
X267703D01*
X227076Y911606D02*
Y926841D01*
X234694D01*
X237233Y924302D01*
Y919223D01*
X234694Y916684D01*
X227076D01*
X232154D02*
X237233Y911606D01*
X242311D02*
X247389D01*
X244850D01*
Y926841D01*
X242311Y924302D01*
X255007Y911606D02*
X260085D01*
X257546D01*
Y926841D01*
X255007Y924302D01*
X277860Y926841D02*
X267703D01*
Y919223D01*
X272781Y921763D01*
X275320D01*
X277860Y919223D01*
Y914145D01*
X275320Y911606D01*
X270242D01*
X267703Y914145D01*
X472948Y889762D02*
X457713D01*
Y897380D01*
X460252Y899919D01*
X465331D01*
X467870Y897380D01*
Y889762D01*
Y894840D02*
X472948Y899919D01*
Y904997D02*
Y910075D01*
Y907536D01*
X457713D01*
X460252Y904997D01*
X472948Y917693D02*
Y922771D01*
Y920232D01*
X457713D01*
X460252Y917693D01*
X472948Y938006D02*
X457713D01*
X465331Y930389D01*
Y940546D01*
X472440Y956310D02*
X457205D01*
Y963928D01*
X459744Y966467D01*
X464823D01*
X467362Y963928D01*
Y956310D01*
Y961388D02*
X472440Y966467D01*
Y971545D02*
Y976623D01*
Y974084D01*
X457205D01*
X459744Y971545D01*
X472440Y984241D02*
Y989319D01*
Y986780D01*
X457205D01*
X459744Y984241D01*
Y996937D02*
X457205Y999476D01*
Y1004554D01*
X459744Y1007094D01*
X462283D01*
X464823Y1004554D01*
Y1002015D01*
Y1004554D01*
X467362Y1007094D01*
X469901D01*
X472440Y1004554D01*
Y999476D01*
X469901Y996937D01*
X1044448Y1159510D02*
Y1174745D01*
X1052066D01*
X1054605Y1172206D01*
Y1167128D01*
X1052066Y1164588D01*
X1044448D01*
X1049526D02*
X1054605Y1159510D01*
X1059683D02*
X1064761D01*
X1062222D01*
Y1174745D01*
X1059683Y1172206D01*
X1072379Y1159510D02*
X1077457D01*
X1074918D01*
Y1174745D01*
X1072379Y1172206D01*
X1095232Y1159510D02*
X1085075D01*
X1095232Y1169667D01*
Y1172206D01*
X1092692Y1174745D01*
X1087614D01*
X1085075Y1172206D01*
X968248Y1159510D02*
Y1174745D01*
X975865D01*
X978405Y1172206D01*
Y1167128D01*
X975865Y1164588D01*
X968248D01*
X973326D02*
X978405Y1159510D01*
X983483D02*
X988561D01*
X986022D01*
Y1174745D01*
X983483Y1172206D01*
X996179Y1159510D02*
X1001257D01*
X998718D01*
Y1174745D01*
X996179Y1172206D01*
X1008875Y1159510D02*
X1013953D01*
X1011414D01*
Y1174745D01*
X1008875Y1172206D01*
X1003808Y834390D02*
Y849625D01*
X1011425D01*
X1013965Y847086D01*
Y842008D01*
X1011425Y839468D01*
X1003808D01*
X1008886D02*
X1013965Y834390D01*
X1019043D02*
X1024121D01*
X1021582D01*
Y849625D01*
X1019043Y847086D01*
X1031739Y834390D02*
X1036817D01*
X1034278D01*
Y849625D01*
X1031739Y847086D01*
X1044435D02*
X1046974Y849625D01*
X1052052D01*
X1054592Y847086D01*
Y836929D01*
X1052052Y834390D01*
X1046974D01*
X1044435Y836929D01*
Y847086D01*
X1044448Y910590D02*
Y925825D01*
X1052066D01*
X1054605Y923286D01*
Y918207D01*
X1052066Y915668D01*
X1044448D01*
X1049526D02*
X1054605Y910590D01*
X1059683D02*
X1064761D01*
X1062222D01*
Y925825D01*
X1059683Y923286D01*
X1072379D02*
X1074918Y925825D01*
X1079996D01*
X1082536Y923286D01*
Y913129D01*
X1079996Y910590D01*
X1074918D01*
X1072379Y913129D01*
Y923286D01*
X1087614Y913129D02*
X1090153Y910590D01*
X1095232D01*
X1097771Y913129D01*
Y923286D01*
X1095232Y925825D01*
X1090153D01*
X1087614Y923286D01*
Y920747D01*
X1090153Y918207D01*
X1097771D01*
X815848Y976630D02*
Y991865D01*
X823465D01*
X826005Y989326D01*
Y984248D01*
X823465Y981708D01*
X815848D01*
X820926D02*
X826005Y976630D01*
X831083D02*
X836161D01*
X833622D01*
Y991865D01*
X831083Y989326D01*
X843779D02*
X846318Y991865D01*
X851396D01*
X853936Y989326D01*
Y979169D01*
X851396Y976630D01*
X846318D01*
X843779Y979169D01*
Y989326D01*
X859014D02*
X861553Y991865D01*
X866632D01*
X869171Y989326D01*
Y986787D01*
X866632Y984248D01*
X869171Y981708D01*
Y979169D01*
X866632Y976630D01*
X861553D01*
X859014Y979169D01*
Y981708D01*
X861553Y984248D01*
X859014Y986787D01*
Y989326D01*
X861553Y984248D02*
X866632D01*
X739648Y976630D02*
Y991865D01*
X747265D01*
X749805Y989326D01*
Y984248D01*
X747265Y981708D01*
X739648D01*
X744726D02*
X749805Y976630D01*
X754883D02*
X759961D01*
X757422D01*
Y991865D01*
X754883Y989326D01*
X767579D02*
X770118Y991865D01*
X775197D01*
X777736Y989326D01*
Y979169D01*
X775197Y976630D01*
X770118D01*
X767579Y979169D01*
Y989326D01*
X782814Y991865D02*
X792971D01*
Y989326D01*
X782814Y979169D01*
Y976630D01*
X1044448D02*
Y991865D01*
X1052066D01*
X1054605Y989326D01*
Y984248D01*
X1052066Y981708D01*
X1044448D01*
X1049526D02*
X1054605Y976630D01*
X1059683D02*
X1064761D01*
X1062222D01*
Y991865D01*
X1059683Y989326D01*
X1072379D02*
X1074918Y991865D01*
X1079996D01*
X1082536Y989326D01*
Y979169D01*
X1079996Y976630D01*
X1074918D01*
X1072379Y979169D01*
Y989326D01*
X1097771Y991865D02*
X1092692Y989326D01*
X1087614Y984248D01*
Y979169D01*
X1090153Y976630D01*
X1095232D01*
X1097771Y979169D01*
Y981708D01*
X1095232Y984248D01*
X1087614D01*
X739648Y1230630D02*
Y1245865D01*
X747265D01*
X749805Y1243326D01*
Y1238248D01*
X747265Y1235708D01*
X739648D01*
X744726D02*
X749805Y1230630D01*
X754883D02*
X759961D01*
X757422D01*
Y1245865D01*
X754883Y1243326D01*
X767579D02*
X770118Y1245865D01*
X775197D01*
X777736Y1243326D01*
Y1233169D01*
X775197Y1230630D01*
X770118D01*
X767579Y1233169D01*
Y1243326D01*
X792971Y1245865D02*
X782814D01*
Y1238248D01*
X787892Y1240787D01*
X790432D01*
X792971Y1238248D01*
Y1233169D01*
X790432Y1230630D01*
X785353D01*
X782814Y1233169D01*
X892048Y976630D02*
Y991865D01*
X899666D01*
X902205Y989326D01*
Y984248D01*
X899666Y981708D01*
X892048D01*
X897126D02*
X902205Y976630D01*
X907283D02*
X912361D01*
X909822D01*
Y991865D01*
X907283Y989326D01*
X919979D02*
X922518Y991865D01*
X927597D01*
X930136Y989326D01*
Y979169D01*
X927597Y976630D01*
X922518D01*
X919979Y979169D01*
Y989326D01*
X942832Y976630D02*
Y991865D01*
X935214Y984248D01*
X945371D01*
X741680Y1036320D02*
Y1051555D01*
X749297D01*
X751837Y1049016D01*
Y1043938D01*
X749297Y1041398D01*
X741680D01*
X746758D02*
X751837Y1036320D01*
X756915D02*
X761993D01*
X759454D01*
Y1051555D01*
X756915Y1049016D01*
X769611D02*
X772150Y1051555D01*
X777228D01*
X779768Y1049016D01*
Y1038859D01*
X777228Y1036320D01*
X772150D01*
X769611Y1038859D01*
Y1049016D01*
X784846D02*
X787385Y1051555D01*
X792464D01*
X795003Y1049016D01*
Y1046477D01*
X792464Y1043938D01*
X789924D01*
X792464D01*
X795003Y1041398D01*
Y1038859D01*
X792464Y1036320D01*
X787385D01*
X784846Y1038859D01*
X812800Y1035050D02*
Y1050285D01*
X820417D01*
X822957Y1047746D01*
Y1042667D01*
X820417Y1040128D01*
X812800D01*
X817878D02*
X822957Y1035050D01*
X828035D02*
X833113D01*
X830574D01*
Y1050285D01*
X828035Y1047746D01*
X840731D02*
X843270Y1050285D01*
X848348D01*
X850888Y1047746D01*
Y1037589D01*
X848348Y1035050D01*
X843270D01*
X840731Y1037589D01*
Y1047746D01*
X866123Y1035050D02*
X855966D01*
X866123Y1045207D01*
Y1047746D01*
X863584Y1050285D01*
X858505D01*
X855966Y1047746D01*
X1044448Y1037590D02*
Y1052825D01*
X1052066D01*
X1054605Y1050286D01*
Y1045208D01*
X1052066Y1042668D01*
X1044448D01*
X1049526D02*
X1054605Y1037590D01*
X1059683D02*
X1064761D01*
X1062222D01*
Y1052825D01*
X1059683Y1050286D01*
X1072379D02*
X1074918Y1052825D01*
X1079996D01*
X1082536Y1050286D01*
Y1040129D01*
X1079996Y1037590D01*
X1074918D01*
X1072379Y1040129D01*
Y1050286D01*
X1087614Y1037590D02*
X1092692D01*
X1090153D01*
Y1052825D01*
X1087614Y1050286D01*
X669290Y1229106D02*
Y1244341D01*
X676908D01*
X679447Y1241802D01*
Y1236723D01*
X676908Y1234184D01*
X669290D01*
X674368D02*
X679447Y1229106D01*
X684525D02*
X689603D01*
X687064D01*
Y1244341D01*
X684525Y1241802D01*
X697221D02*
X699760Y1244341D01*
X704838D01*
X707378Y1241802D01*
Y1231645D01*
X704838Y1229106D01*
X699760D01*
X697221Y1231645D01*
Y1241802D01*
X712456D02*
X714995Y1244341D01*
X720074D01*
X722613Y1241802D01*
Y1231645D01*
X720074Y1229106D01*
X714995D01*
X712456Y1231645D01*
Y1241802D01*
X579120Y101600D02*
Y116835D01*
X586738D01*
X589277Y114296D01*
Y109218D01*
X586738Y106678D01*
X579120D01*
X584198D02*
X589277Y101600D01*
X594355Y114296D02*
X596894Y116835D01*
X601973D01*
X604512Y114296D01*
Y111757D01*
X601973Y109218D01*
X599433D01*
X601973D01*
X604512Y106678D01*
Y104139D01*
X601973Y101600D01*
X596894D01*
X594355Y104139D01*
X885403Y140714D02*
Y155949D01*
X893021D01*
X895560Y153410D01*
Y148332D01*
X893021Y145793D01*
X885403D01*
X890482D02*
X895560Y140714D01*
X910795D02*
X900638D01*
X910795Y150871D01*
Y153410D01*
X908256Y155949D01*
X903178D01*
X900638Y153410D01*
X628650Y98552D02*
Y113787D01*
X636268D01*
X638807Y111248D01*
Y106170D01*
X636268Y103630D01*
X628650D01*
X633728D02*
X638807Y98552D01*
X643885D02*
X648963D01*
X646424D01*
Y113787D01*
X643885Y111248D01*
X161318Y1258567D02*
X151161D01*
X148622Y1256028D01*
Y1250949D01*
X151161Y1248410D01*
X161318D01*
X163857Y1250949D01*
Y1256028D01*
X158779Y1253488D02*
X163857Y1258567D01*
Y1256028D02*
X161318Y1258567D01*
X163857Y1263645D02*
Y1268723D01*
Y1266184D01*
X148622D01*
X151161Y1263645D01*
Y1276341D02*
X148622Y1278880D01*
Y1283958D01*
X151161Y1286498D01*
X161318D01*
X163857Y1283958D01*
Y1278880D01*
X161318Y1276341D01*
X151161D01*
Y1291576D02*
X148622Y1294115D01*
Y1299194D01*
X151161Y1301733D01*
X153701D01*
X156240Y1299194D01*
Y1296654D01*
Y1299194D01*
X158779Y1301733D01*
X161318D01*
X163857Y1299194D01*
Y1294115D01*
X161318Y1291576D01*
X659131Y1258567D02*
X648974D01*
X646435Y1256028D01*
Y1250949D01*
X648974Y1248410D01*
X659131D01*
X661670Y1250949D01*
Y1256028D01*
X656592Y1253488D02*
X661670Y1258567D01*
Y1256028D02*
X659131Y1258567D01*
X661670Y1263645D02*
Y1268723D01*
Y1266184D01*
X646435D01*
X648974Y1263645D01*
Y1276341D02*
X646435Y1278880D01*
Y1283958D01*
X648974Y1286498D01*
X659131D01*
X661670Y1283958D01*
Y1278880D01*
X659131Y1276341D01*
X648974D01*
X661670Y1301733D02*
Y1291576D01*
X651513Y1301733D01*
X648974D01*
X646435Y1299194D01*
Y1294115D01*
X648974Y1291576D01*
X170029Y791514D02*
X159872D01*
X157333Y788975D01*
Y783896D01*
X159872Y781357D01*
X170029D01*
X172568Y783896D01*
Y788975D01*
X167490Y786436D02*
X172568Y791514D01*
Y788975D02*
X170029Y791514D01*
X172568Y796592D02*
Y801671D01*
Y799131D01*
X157333D01*
X159872Y796592D01*
Y809288D02*
X157333Y811827D01*
Y816906D01*
X159872Y819445D01*
X170029D01*
X172568Y816906D01*
Y811827D01*
X170029Y809288D01*
X159872D01*
X172568Y824523D02*
Y829602D01*
Y827063D01*
X157333D01*
X159872Y824523D01*
X661640Y790967D02*
X651484D01*
X648944Y788428D01*
Y783349D01*
X651484Y780810D01*
X661640D01*
X664180Y783349D01*
Y788428D01*
X659101Y785889D02*
X664180Y790967D01*
Y788428D02*
X661640Y790967D01*
X664180Y796045D02*
Y801124D01*
Y798585D01*
X648944D01*
X651484Y796045D01*
Y808741D02*
X648944Y811280D01*
Y816359D01*
X651484Y818898D01*
X661640D01*
X664180Y816359D01*
Y811280D01*
X661640Y808741D01*
X651484D01*
Y823976D02*
X648944Y826515D01*
Y831594D01*
X651484Y834133D01*
X661640D01*
X664180Y831594D01*
Y826515D01*
X661640Y823976D01*
X651484D01*
X1418981Y422162D02*
Y437397D01*
X1426598D01*
X1429137Y434858D01*
Y429780D01*
X1426598Y427241D01*
X1418981D01*
X1444372Y437397D02*
X1434216D01*
Y429780D01*
X1439294Y432319D01*
X1441833D01*
X1444372Y429780D01*
Y424701D01*
X1441833Y422162D01*
X1436755D01*
X1434216Y424701D01*
X1449451Y434858D02*
X1451990Y437397D01*
X1457068D01*
X1459607Y434858D01*
Y424701D01*
X1457068Y422162D01*
X1451990D01*
X1449451Y424701D01*
Y434858D01*
X1464686D02*
X1467225Y437397D01*
X1472303D01*
X1474843Y434858D01*
Y424701D01*
X1472303Y422162D01*
X1467225D01*
X1464686Y424701D01*
Y434858D01*
X976884Y1213104D02*
Y1228339D01*
X984501D01*
X987041Y1225800D01*
Y1220722D01*
X984501Y1218182D01*
X976884D01*
X992119Y1213104D02*
X997197D01*
X994658D01*
Y1228339D01*
X992119Y1225800D01*
X1004815D02*
X1007354Y1228339D01*
X1012432D01*
X1014972Y1225800D01*
Y1215643D01*
X1012432Y1213104D01*
X1007354D01*
X1004815Y1215643D01*
Y1225800D01*
X1030207Y1213104D02*
X1020050D01*
X1030207Y1223261D01*
Y1225800D01*
X1027668Y1228339D01*
X1022589D01*
X1020050Y1225800D01*
X1136904Y1159256D02*
Y1174491D01*
X1144521D01*
X1147061Y1171952D01*
Y1166873D01*
X1144521Y1164334D01*
X1136904D01*
X1152139Y1159256D02*
X1157217D01*
X1154678D01*
Y1174491D01*
X1152139Y1171952D01*
X1164835D02*
X1167374Y1174491D01*
X1172452D01*
X1174992Y1171952D01*
Y1161795D01*
X1172452Y1159256D01*
X1167374D01*
X1164835Y1161795D01*
Y1171952D01*
X1180070Y1159256D02*
X1185148D01*
X1182609D01*
Y1174491D01*
X1180070Y1171952D01*
X969264Y976376D02*
Y991611D01*
X976881D01*
X979421Y989072D01*
Y983994D01*
X976881Y981454D01*
X969264D01*
X984499Y976376D02*
X989577D01*
X987038D01*
Y991611D01*
X984499Y989072D01*
X997195D02*
X999734Y991611D01*
X1004812D01*
X1007352Y989072D01*
Y978915D01*
X1004812Y976376D01*
X999734D01*
X997195Y978915D01*
Y989072D01*
X1012430D02*
X1014969Y991611D01*
X1020048D01*
X1022587Y989072D01*
Y978915D01*
X1020048Y976376D01*
X1014969D01*
X1012430Y978915D01*
Y989072D01*
X1193546Y474472D02*
X1178311D01*
Y482090D01*
X1180850Y484629D01*
X1185928D01*
X1188468Y482090D01*
Y474472D01*
X1193546Y499864D02*
Y489707D01*
X1183389Y499864D01*
X1180850D01*
X1178311Y497325D01*
Y492246D01*
X1180850Y489707D01*
X1119598Y785931D02*
Y801166D01*
X1127215D01*
X1129755Y798627D01*
Y793549D01*
X1127215Y791010D01*
X1119598D01*
X1134833Y785931D02*
X1139911D01*
X1137372D01*
Y801166D01*
X1134833Y798627D01*
X1442452Y1358251D02*
Y1353173D01*
Y1355712D01*
X1455148D01*
X1457687Y1353173D01*
Y1350634D01*
X1455148Y1348095D01*
X1457687Y1370947D02*
X1442452D01*
X1450069Y1363330D01*
Y1373486D01*
X1444991Y1378565D02*
X1442452Y1381104D01*
Y1386182D01*
X1444991Y1388721D01*
X1455148D01*
X1457687Y1386182D01*
Y1381104D01*
X1455148Y1378565D01*
X1444991D01*
Y1393800D02*
X1442452Y1396339D01*
Y1401417D01*
X1444991Y1403957D01*
X1455148D01*
X1457687Y1401417D01*
Y1396339D01*
X1455148Y1393800D01*
X1444991D01*
X50297Y106677D02*
Y101598D01*
Y104137D01*
X62993D01*
X65532Y101598D01*
Y99059D01*
X62993Y96520D01*
X65532Y121912D02*
Y111755D01*
X55375Y121912D01*
X52836D01*
X50297Y119373D01*
Y114294D01*
X52836Y111755D01*
Y126990D02*
X50297Y129529D01*
Y134608D01*
X52836Y137147D01*
X62993D01*
X65532Y134608D01*
Y129529D01*
X62993Y126990D01*
X52836D01*
Y142225D02*
X50297Y144764D01*
Y149843D01*
X52836Y152382D01*
X62993D01*
X65532Y149843D01*
Y144764D01*
X62993Y142225D01*
X52836D01*
X447045Y1376677D02*
Y1371598D01*
Y1374138D01*
X459741D01*
X462280Y1371598D01*
Y1369059D01*
X459741Y1366520D01*
X462280Y1381755D02*
Y1386833D01*
Y1384294D01*
X447045D01*
X449584Y1381755D01*
Y1394451D02*
X447045Y1396990D01*
Y1402068D01*
X449584Y1404608D01*
X459741D01*
X462280Y1402068D01*
Y1396990D01*
X459741Y1394451D01*
X449584D01*
Y1409686D02*
X447045Y1412225D01*
Y1417304D01*
X449584Y1419843D01*
X459741D01*
X462280Y1417304D01*
Y1412225D01*
X459741Y1409686D01*
X449584D01*
X426971Y39111D02*
X416814D01*
Y31493D01*
X421892D01*
X416814D01*
Y23876D01*
X442206D02*
X432049D01*
X442206Y34033D01*
Y36572D01*
X439667Y39111D01*
X434588D01*
X432049Y36572D01*
X447284D02*
X449823Y39111D01*
X454902D01*
X457441Y36572D01*
Y26415D01*
X454902Y23876D01*
X449823D01*
X447284Y26415D01*
Y36572D01*
X462519D02*
X465058Y39111D01*
X470137D01*
X472676Y36572D01*
Y26415D01*
X470137Y23876D01*
X465058D01*
X462519Y26415D01*
Y36572D01*
X1046226Y195575D02*
Y180340D01*
X1053844D01*
X1056383Y182879D01*
Y193036D01*
X1053844Y195575D01*
X1046226D01*
X1071618D02*
X1061461D01*
Y187957D01*
X1066539Y190497D01*
X1069079D01*
X1071618Y187957D01*
Y182879D01*
X1069079Y180340D01*
X1064000D01*
X1061461Y182879D01*
X1076696Y193036D02*
X1079235Y195575D01*
X1084314D01*
X1086853Y193036D01*
Y182879D01*
X1084314Y180340D01*
X1079235D01*
X1076696Y182879D01*
Y193036D01*
X1091931Y180340D02*
X1097010D01*
X1094470D01*
Y195575D01*
X1091931Y193036D01*
X1132710Y134615D02*
Y119380D01*
X1140328D01*
X1142867Y121919D01*
Y132076D01*
X1140328Y134615D01*
X1132710D01*
X1158102D02*
X1147945D01*
Y126997D01*
X1153023Y129537D01*
X1155563D01*
X1158102Y126997D01*
Y121919D01*
X1155563Y119380D01*
X1150484D01*
X1147945Y121919D01*
X1163180Y132076D02*
X1165719Y134615D01*
X1170798D01*
X1173337Y132076D01*
Y121919D01*
X1170798Y119380D01*
X1165719D01*
X1163180Y121919D01*
Y132076D01*
X1178415D02*
X1180954Y134615D01*
X1186033D01*
X1188572Y132076D01*
Y121919D01*
X1186033Y119380D01*
X1180954D01*
X1178415Y121919D01*
Y132076D01*
X1385936Y1238072D02*
X1401171D01*
Y1245689D01*
X1398632Y1248229D01*
X1388475D01*
X1385936Y1245689D01*
Y1238072D01*
X1401171Y1260925D02*
X1385936D01*
X1393554Y1253307D01*
Y1263464D01*
X1388475Y1268542D02*
X1385936Y1271081D01*
Y1276160D01*
X1388475Y1278699D01*
X1398632D01*
X1401171Y1276160D01*
Y1271081D01*
X1398632Y1268542D01*
X1388475D01*
Y1283777D02*
X1385936Y1286316D01*
Y1291395D01*
X1388475Y1293934D01*
X1391015D01*
X1393554Y1291395D01*
Y1288856D01*
Y1291395D01*
X1396093Y1293934D01*
X1398632D01*
X1401171Y1291395D01*
Y1286316D01*
X1398632Y1283777D01*
X1318514Y924555D02*
Y909320D01*
X1326131D01*
X1328671Y911859D01*
Y922016D01*
X1326131Y924555D01*
X1318514D01*
X1341367Y909320D02*
Y924555D01*
X1333749Y916937D01*
X1343906D01*
X1348984Y922016D02*
X1351523Y924555D01*
X1356602D01*
X1359141Y922016D01*
Y911859D01*
X1356602Y909320D01*
X1351523D01*
X1348984Y911859D01*
Y922016D01*
X1374376Y909320D02*
X1364219D01*
X1374376Y919477D01*
Y922016D01*
X1371837Y924555D01*
X1366758D01*
X1364219Y922016D01*
X1320800Y1046475D02*
Y1031240D01*
X1328418D01*
X1330957Y1033779D01*
Y1043936D01*
X1328418Y1046475D01*
X1320800D01*
X1343653Y1031240D02*
Y1046475D01*
X1336035Y1038857D01*
X1346192D01*
X1351270Y1043936D02*
X1353809Y1046475D01*
X1358888D01*
X1361427Y1043936D01*
Y1033779D01*
X1358888Y1031240D01*
X1353809D01*
X1351270Y1033779D01*
Y1043936D01*
X1366505Y1031240D02*
X1371584D01*
X1369044D01*
Y1046475D01*
X1366505Y1043936D01*
X1412240Y1239515D02*
Y1224280D01*
X1419857D01*
X1422397Y1226819D01*
Y1236976D01*
X1419857Y1239515D01*
X1412240D01*
X1435093Y1224280D02*
Y1239515D01*
X1427475Y1231898D01*
X1437632D01*
X1442710Y1236976D02*
X1445249Y1239515D01*
X1450328D01*
X1452867Y1236976D01*
Y1226819D01*
X1450328Y1224280D01*
X1445249D01*
X1442710Y1226819D01*
Y1236976D01*
X1457945D02*
X1460484Y1239515D01*
X1465563D01*
X1468102Y1236976D01*
Y1226819D01*
X1465563Y1224280D01*
X1460484D01*
X1457945Y1226819D01*
Y1236976D01*
X635005Y411480D02*
X650240D01*
Y419098D01*
X647701Y421637D01*
X637544D01*
X635005Y419098D01*
Y411480D01*
X650240Y436872D02*
Y426715D01*
X640083Y436872D01*
X637544D01*
X635005Y434333D01*
Y429254D01*
X637544Y426715D01*
Y441950D02*
X635005Y444489D01*
Y449568D01*
X637544Y452107D01*
X647701D01*
X650240Y449568D01*
Y444489D01*
X647701Y441950D01*
X637544D01*
X635005Y467342D02*
Y457185D01*
X642623D01*
X640083Y462264D01*
Y464803D01*
X642623Y467342D01*
X647701D01*
X650240Y464803D01*
Y459724D01*
X647701Y457185D01*
X635005Y167640D02*
X650240D01*
Y175257D01*
X647701Y177797D01*
X637544D01*
X635005Y175257D01*
Y167640D01*
X650240Y193032D02*
Y182875D01*
X640083Y193032D01*
X637544D01*
X635005Y190493D01*
Y185414D01*
X637544Y182875D01*
Y198110D02*
X635005Y200649D01*
Y205728D01*
X637544Y208267D01*
X647701D01*
X650240Y205728D01*
Y200649D01*
X647701Y198110D01*
X637544D01*
X650240Y220963D02*
X635005D01*
X642623Y213345D01*
Y223502D01*
X317246Y36317D02*
Y21082D01*
X324864D01*
X327403Y23621D01*
Y33778D01*
X324864Y36317D01*
X317246D01*
X342638Y21082D02*
X332481D01*
X342638Y31239D01*
Y33778D01*
X340099Y36317D01*
X335020D01*
X332481Y33778D01*
X347716D02*
X350255Y36317D01*
X355334D01*
X357873Y33778D01*
Y23621D01*
X355334Y21082D01*
X350255D01*
X347716Y23621D01*
Y33778D01*
X362951D02*
X365490Y36317D01*
X370569D01*
X373108Y33778D01*
Y31239D01*
X370569Y28700D01*
X368030D01*
X370569D01*
X373108Y26160D01*
Y23621D01*
X370569Y21082D01*
X365490D01*
X362951Y23621D01*
X416560Y101595D02*
Y86360D01*
X424178D01*
X426717Y88899D01*
Y99056D01*
X424178Y101595D01*
X416560D01*
X441952Y86360D02*
X431795D01*
X441952Y96517D01*
Y99056D01*
X439413Y101595D01*
X434334D01*
X431795Y99056D01*
X447030D02*
X449569Y101595D01*
X454648D01*
X457187Y99056D01*
Y88899D01*
X454648Y86360D01*
X449569D01*
X447030Y88899D01*
Y99056D01*
X472422Y86360D02*
X462265D01*
X472422Y96517D01*
Y99056D01*
X469883Y101595D01*
X464804D01*
X462265Y99056D01*
X563885Y411480D02*
X579120D01*
Y419098D01*
X576581Y421637D01*
X566424D01*
X563885Y419098D01*
Y411480D01*
X579120Y436872D02*
Y426715D01*
X568963Y436872D01*
X566424D01*
X563885Y434333D01*
Y429254D01*
X566424Y426715D01*
Y441950D02*
X563885Y444489D01*
Y449568D01*
X566424Y452107D01*
X576581D01*
X579120Y449568D01*
Y444489D01*
X576581Y441950D01*
X566424D01*
X579120Y457185D02*
Y462264D01*
Y459724D01*
X563885D01*
X566424Y457185D01*
X558805Y167640D02*
X574040D01*
Y175257D01*
X571501Y177797D01*
X561344D01*
X558805Y175257D01*
Y167640D01*
X574040Y193032D02*
Y182875D01*
X563883Y193032D01*
X561344D01*
X558805Y190493D01*
Y185414D01*
X561344Y182875D01*
Y198110D02*
X558805Y200649D01*
Y205728D01*
X561344Y208267D01*
X571501D01*
X574040Y205728D01*
Y200649D01*
X571501Y198110D01*
X561344D01*
Y213345D02*
X558805Y215884D01*
Y220963D01*
X561344Y223502D01*
X571501D01*
X574040Y220963D01*
Y215884D01*
X571501Y213345D01*
X561344D01*
X670560Y1330955D02*
Y1315720D01*
X678177D01*
X680717Y1318259D01*
Y1328416D01*
X678177Y1330955D01*
X670560D01*
X685795Y1315720D02*
X690873D01*
X688334D01*
Y1330955D01*
X685795Y1328416D01*
X698491Y1315720D02*
X703569D01*
X701030D01*
Y1330955D01*
X698491Y1328416D01*
X711187Y1315720D02*
X716265D01*
X713726D01*
Y1330955D01*
X711187Y1328416D01*
X167640Y1336035D02*
Y1320800D01*
X175257D01*
X177797Y1323339D01*
Y1333496D01*
X175257Y1336035D01*
X167640D01*
X182875Y1320800D02*
X187953D01*
X185414D01*
Y1336035D01*
X182875Y1333496D01*
X195571Y1320800D02*
X200649D01*
X198110D01*
Y1336035D01*
X195571Y1333496D01*
X208267D02*
X210806Y1336035D01*
X215884D01*
X218424Y1333496D01*
Y1323339D01*
X215884Y1320800D01*
X210806D01*
X208267Y1323339D01*
Y1333496D01*
X675640Y904235D02*
Y889000D01*
X683258D01*
X685797Y891539D01*
Y901696D01*
X683258Y904235D01*
X675640D01*
X690875Y889000D02*
X695953D01*
X693414D01*
Y904235D01*
X690875Y901696D01*
X703571D02*
X706110Y904235D01*
X711189D01*
X713728Y901696D01*
Y891539D01*
X711189Y889000D01*
X706110D01*
X703571Y891539D01*
Y901696D01*
X718806Y891539D02*
X721345Y889000D01*
X726424D01*
X728963Y891539D01*
Y901696D01*
X726424Y904235D01*
X721345D01*
X718806Y901696D01*
Y899157D01*
X721345Y896618D01*
X728963D01*
X152400Y917697D02*
Y902462D01*
X160018D01*
X162557Y905001D01*
Y915158D01*
X160018Y917697D01*
X152400D01*
X167635Y902462D02*
X172713D01*
X170174D01*
Y917697D01*
X167635Y915158D01*
X180331D02*
X182870Y917697D01*
X187948D01*
X190488Y915158D01*
Y905001D01*
X187948Y902462D01*
X182870D01*
X180331Y905001D01*
Y915158D01*
X195566D02*
X198105Y917697D01*
X203184D01*
X205723Y915158D01*
Y912619D01*
X203184Y910079D01*
X205723Y907540D01*
Y905001D01*
X203184Y902462D01*
X198105D01*
X195566Y905001D01*
Y907540D01*
X198105Y910079D01*
X195566Y912619D01*
Y915158D01*
X198105Y910079D02*
X203184D01*
X28004Y1424243D02*
Y1409008D01*
X35622D01*
X38161Y1411547D01*
Y1421704D01*
X35622Y1424243D01*
X28004D01*
X43239Y1409008D02*
X48318D01*
X45778D01*
Y1424243D01*
X43239Y1421704D01*
X55935D02*
X58474Y1424243D01*
X63553D01*
X66092Y1421704D01*
Y1411547D01*
X63553Y1409008D01*
X58474D01*
X55935Y1411547D01*
Y1421704D01*
X71170Y1424243D02*
X81327D01*
Y1421704D01*
X71170Y1411547D01*
Y1409008D01*
X1046226Y1435095D02*
Y1419860D01*
X1053844D01*
X1056383Y1422399D01*
Y1432556D01*
X1053844Y1435095D01*
X1046226D01*
X1061461Y1419860D02*
X1066539D01*
X1064000D01*
Y1435095D01*
X1061461Y1432556D01*
X1074157D02*
X1076696Y1435095D01*
X1081775D01*
X1084314Y1432556D01*
Y1422399D01*
X1081775Y1419860D01*
X1076696D01*
X1074157Y1422399D01*
Y1432556D01*
X1099549Y1435095D02*
X1094470Y1432556D01*
X1089392Y1427478D01*
Y1422399D01*
X1091931Y1419860D01*
X1097010D01*
X1099549Y1422399D01*
Y1424938D01*
X1097010Y1427478D01*
X1089392D01*
X533231Y1425258D02*
Y1410023D01*
X540849D01*
X543388Y1412562D01*
Y1422719D01*
X540849Y1425258D01*
X533231D01*
X548466Y1410023D02*
X553544D01*
X551005D01*
Y1425258D01*
X548466Y1422719D01*
X561162D02*
X563701Y1425258D01*
X568779D01*
X571319Y1422719D01*
Y1412562D01*
X568779Y1410023D01*
X563701D01*
X561162Y1412562D01*
Y1422719D01*
X586554Y1425258D02*
X576397D01*
Y1417641D01*
X581475Y1420180D01*
X584015D01*
X586554Y1417641D01*
Y1412562D01*
X584015Y1410023D01*
X578936D01*
X576397Y1412562D01*
X1046226Y1491737D02*
Y1476502D01*
X1053844D01*
X1056383Y1479041D01*
Y1489198D01*
X1053844Y1491737D01*
X1046226D01*
X1061461Y1476502D02*
X1066539D01*
X1064000D01*
Y1491737D01*
X1061461Y1489198D01*
X1074157D02*
X1076696Y1491737D01*
X1081775D01*
X1084314Y1489198D01*
Y1479041D01*
X1081775Y1476502D01*
X1076696D01*
X1074157Y1479041D01*
Y1489198D01*
X1097010Y1476502D02*
Y1491737D01*
X1089392Y1484120D01*
X1099549D01*
X89358Y1020694D02*
Y1005459D01*
X96975D01*
X99514Y1007998D01*
Y1018155D01*
X96975Y1020694D01*
X89358D01*
X104593Y1005459D02*
X109671D01*
X107132D01*
Y1020694D01*
X104593Y1018155D01*
X117289D02*
X119828Y1020694D01*
X124906D01*
X127445Y1018155D01*
Y1007998D01*
X124906Y1005459D01*
X119828D01*
X117289Y1007998D01*
Y1018155D01*
X132524D02*
X135063Y1020694D01*
X140141D01*
X142680Y1018155D01*
Y1015615D01*
X140141Y1013076D01*
X137602D01*
X140141D01*
X142680Y1010537D01*
Y1007998D01*
X140141Y1005459D01*
X135063D01*
X132524Y1007998D01*
X599440Y960115D02*
Y944880D01*
X607057D01*
X609597Y947419D01*
Y957576D01*
X607057Y960115D01*
X599440D01*
X614675Y944880D02*
X619753D01*
X617214D01*
Y960115D01*
X614675Y957576D01*
X627371D02*
X629910Y960115D01*
X634989D01*
X637528Y957576D01*
Y947419D01*
X634989Y944880D01*
X629910D01*
X627371Y947419D01*
Y957576D01*
X652763Y944880D02*
X642606D01*
X652763Y955037D01*
Y957576D01*
X650224Y960115D01*
X645145D01*
X642606Y957576D01*
X817880Y1491991D02*
Y1476756D01*
X825498D01*
X828037Y1479295D01*
Y1489452D01*
X825498Y1491991D01*
X817880D01*
X833115Y1476756D02*
X838193D01*
X835654D01*
Y1491991D01*
X833115Y1489452D01*
X845811D02*
X848350Y1491991D01*
X853428D01*
X855968Y1489452D01*
Y1479295D01*
X853428Y1476756D01*
X848350D01*
X845811Y1479295D01*
Y1489452D01*
X861046Y1476756D02*
X866124D01*
X863585D01*
Y1491991D01*
X861046Y1489452D01*
X812546Y1231895D02*
Y1216660D01*
X820163D01*
X822703Y1219199D01*
Y1229356D01*
X820163Y1231895D01*
X812546D01*
X827781Y1216660D02*
X832859D01*
X830320D01*
Y1231895D01*
X827781Y1229356D01*
X840477D02*
X843016Y1231895D01*
X848094D01*
X850634Y1229356D01*
Y1219199D01*
X848094Y1216660D01*
X843016D01*
X840477Y1219199D01*
Y1229356D01*
X855712D02*
X858251Y1231895D01*
X863330D01*
X865869Y1229356D01*
Y1219199D01*
X863330Y1216660D01*
X858251D01*
X855712Y1219199D01*
Y1229356D01*
X1329837Y128826D02*
X1327298Y131365D01*
X1322219D01*
X1319680Y128826D01*
Y118670D01*
X1322219Y116130D01*
X1327298D01*
X1329837Y118670D01*
X1345072Y131365D02*
X1334915D01*
Y123748D01*
X1339993Y126287D01*
X1342533D01*
X1345072Y123748D01*
Y118670D01*
X1342533Y116130D01*
X1337454D01*
X1334915Y118670D01*
X1350150Y128826D02*
X1352689Y131365D01*
X1357768D01*
X1360307Y128826D01*
Y118670D01*
X1357768Y116130D01*
X1352689D01*
X1350150Y118670D01*
Y128826D01*
X1373003Y116130D02*
Y131365D01*
X1365385Y123748D01*
X1375542D01*
X1146045Y364486D02*
X1143505Y367025D01*
X1138427D01*
X1135888Y364486D01*
Y354329D01*
X1138427Y351790D01*
X1143505D01*
X1146045Y354329D01*
X1161280Y367025D02*
X1151123D01*
Y359408D01*
X1156201Y361947D01*
X1158741D01*
X1161280Y359408D01*
Y354329D01*
X1158741Y351790D01*
X1153662D01*
X1151123Y354329D01*
X1166358Y364486D02*
X1168897Y367025D01*
X1173976D01*
X1176515Y364486D01*
Y354329D01*
X1173976Y351790D01*
X1168897D01*
X1166358Y354329D01*
Y364486D01*
X1181593D02*
X1184132Y367025D01*
X1189211D01*
X1191750Y364486D01*
Y361947D01*
X1189211Y359408D01*
X1186672D01*
X1189211D01*
X1191750Y356868D01*
Y354329D01*
X1189211Y351790D01*
X1184132D01*
X1181593Y354329D01*
X1435295Y493185D02*
X1432756Y495724D01*
X1427677D01*
X1425138Y493185D01*
Y483028D01*
X1427677Y480489D01*
X1432756D01*
X1435295Y483028D01*
X1450530Y495724D02*
X1440373D01*
Y488106D01*
X1445452Y490645D01*
X1447991D01*
X1450530Y488106D01*
Y483028D01*
X1447991Y480489D01*
X1442913D01*
X1440373Y483028D01*
X1455609Y493185D02*
X1458148Y495724D01*
X1463226D01*
X1465765Y493185D01*
Y483028D01*
X1463226Y480489D01*
X1458148D01*
X1455609Y483028D01*
Y493185D01*
X1481000Y480489D02*
X1470844D01*
X1481000Y490645D01*
Y493185D01*
X1478461Y495724D01*
X1473383D01*
X1470844Y493185D01*
X1234437Y363216D02*
X1231898Y365755D01*
X1226819D01*
X1224280Y363216D01*
Y353059D01*
X1226819Y350520D01*
X1231898D01*
X1234437Y353059D01*
X1249672Y365755D02*
X1239515D01*
Y358138D01*
X1244593Y360677D01*
X1247133D01*
X1249672Y358138D01*
Y353059D01*
X1247133Y350520D01*
X1242054D01*
X1239515Y353059D01*
X1254750Y363216D02*
X1257289Y365755D01*
X1262368D01*
X1264907Y363216D01*
Y353059D01*
X1262368Y350520D01*
X1257289D01*
X1254750Y353059D01*
Y363216D01*
X1269985Y350520D02*
X1275064D01*
X1272524D01*
Y365755D01*
X1269985Y363216D01*
X1237485Y252726D02*
X1234946Y255265D01*
X1229867D01*
X1227328Y252726D01*
Y242569D01*
X1229867Y240030D01*
X1234946D01*
X1237485Y242569D01*
X1252720Y255265D02*
X1242563D01*
Y247647D01*
X1247641Y250187D01*
X1250181D01*
X1252720Y247647D01*
Y242569D01*
X1250181Y240030D01*
X1245102D01*
X1242563Y242569D01*
X1257798Y252726D02*
X1260337Y255265D01*
X1265416D01*
X1267955Y252726D01*
Y242569D01*
X1265416Y240030D01*
X1260337D01*
X1257798Y242569D01*
Y252726D01*
X1273033D02*
X1275572Y255265D01*
X1280651D01*
X1283190Y252726D01*
Y242569D01*
X1280651Y240030D01*
X1275572D01*
X1273033Y242569D01*
Y252726D01*
X1432557Y551176D02*
X1430018Y553715D01*
X1424939D01*
X1422400Y551176D01*
Y541019D01*
X1424939Y538480D01*
X1430018D01*
X1432557Y541019D01*
X1445253Y538480D02*
Y553715D01*
X1437635Y546097D01*
X1447792D01*
X1452870Y551176D02*
X1455409Y553715D01*
X1460488D01*
X1463027Y551176D01*
Y541019D01*
X1460488Y538480D01*
X1455409D01*
X1452870Y541019D01*
Y551176D01*
X1468105Y541019D02*
X1470644Y538480D01*
X1475723D01*
X1478262Y541019D01*
Y551176D01*
X1475723Y553715D01*
X1470644D01*
X1468105Y551176D01*
Y548637D01*
X1470644Y546097D01*
X1478262D01*
X1427477Y784856D02*
X1424937Y787395D01*
X1419859D01*
X1417320Y784856D01*
Y774699D01*
X1419859Y772160D01*
X1424937D01*
X1427477Y774699D01*
X1440173Y772160D02*
Y787395D01*
X1432555Y779778D01*
X1442712D01*
X1447790Y784856D02*
X1450329Y787395D01*
X1455408D01*
X1457947Y784856D01*
Y774699D01*
X1455408Y772160D01*
X1450329D01*
X1447790Y774699D01*
Y784856D01*
X1463025D02*
X1465564Y787395D01*
X1470643D01*
X1473182Y784856D01*
Y782317D01*
X1470643Y779778D01*
X1473182Y777238D01*
Y774699D01*
X1470643Y772160D01*
X1465564D01*
X1463025Y774699D01*
Y777238D01*
X1465564Y779778D01*
X1463025Y782317D01*
Y784856D01*
X1465564Y779778D02*
X1470643D01*
X1237485Y979166D02*
X1234946Y981705D01*
X1229867D01*
X1227328Y979166D01*
Y969009D01*
X1229867Y966470D01*
X1234946D01*
X1237485Y969009D01*
X1250181Y966470D02*
Y981705D01*
X1242563Y974088D01*
X1252720D01*
X1257798Y979166D02*
X1260337Y981705D01*
X1265416D01*
X1267955Y979166D01*
Y969009D01*
X1265416Y966470D01*
X1260337D01*
X1257798Y969009D01*
Y979166D01*
X1273033Y981705D02*
X1283190D01*
Y979166D01*
X1273033Y969009D01*
Y966470D01*
X1237485Y1233166D02*
X1234946Y1235705D01*
X1229867D01*
X1227328Y1233166D01*
Y1223009D01*
X1229867Y1220470D01*
X1234946D01*
X1237485Y1223009D01*
X1250181Y1220470D02*
Y1235705D01*
X1242563Y1228087D01*
X1252720D01*
X1257798Y1233166D02*
X1260337Y1235705D01*
X1265416D01*
X1267955Y1233166D01*
Y1223009D01*
X1265416Y1220470D01*
X1260337D01*
X1257798Y1223009D01*
Y1233166D01*
X1283190Y1235705D02*
X1278112Y1233166D01*
X1273033Y1228087D01*
Y1223009D01*
X1275572Y1220470D01*
X1280651D01*
X1283190Y1223009D01*
Y1225548D01*
X1280651Y1228087D01*
X1273033D01*
X1238755Y853436D02*
X1236216Y855975D01*
X1231137D01*
X1228598Y853436D01*
Y843279D01*
X1231137Y840740D01*
X1236216D01*
X1238755Y843279D01*
X1251451Y840740D02*
Y855975D01*
X1243833Y848357D01*
X1253990D01*
X1259068Y853436D02*
X1261607Y855975D01*
X1266686D01*
X1269225Y853436D01*
Y843279D01*
X1266686Y840740D01*
X1261607D01*
X1259068Y843279D01*
Y853436D01*
X1284460Y855975D02*
X1274303D01*
Y848357D01*
X1279382Y850897D01*
X1281921D01*
X1284460Y848357D01*
Y843279D01*
X1281921Y840740D01*
X1276842D01*
X1274303Y843279D01*
X1435605Y1111246D02*
X1433065Y1113785D01*
X1427987D01*
X1425448Y1111246D01*
Y1101089D01*
X1427987Y1098550D01*
X1433065D01*
X1435605Y1101089D01*
X1448301Y1098550D02*
Y1113785D01*
X1440683Y1106168D01*
X1450840D01*
X1455918Y1111246D02*
X1458457Y1113785D01*
X1463536D01*
X1466075Y1111246D01*
Y1101089D01*
X1463536Y1098550D01*
X1458457D01*
X1455918Y1101089D01*
Y1111246D01*
X1478771Y1098550D02*
Y1113785D01*
X1471153Y1106168D01*
X1481310D01*
X1330957Y728976D02*
X1328418Y731515D01*
X1323339D01*
X1320800Y728976D01*
Y718819D01*
X1323339Y716280D01*
X1328418D01*
X1330957Y718819D01*
X1343653Y716280D02*
Y731515D01*
X1336035Y723897D01*
X1346192D01*
X1351270Y728976D02*
X1353809Y731515D01*
X1358888D01*
X1361427Y728976D01*
Y718819D01*
X1358888Y716280D01*
X1353809D01*
X1351270Y718819D01*
Y728976D01*
X1366505D02*
X1369044Y731515D01*
X1374123D01*
X1376662Y728976D01*
Y726437D01*
X1374123Y723897D01*
X1371584D01*
X1374123D01*
X1376662Y721358D01*
Y718819D01*
X1374123Y716280D01*
X1369044D01*
X1366505Y718819D01*
X1432557Y977896D02*
X1430018Y980435D01*
X1424939D01*
X1422400Y977896D01*
Y967739D01*
X1424939Y965200D01*
X1430018D01*
X1432557Y967739D01*
X1445253Y965200D02*
Y980435D01*
X1437635Y972818D01*
X1447792D01*
X1452870Y977896D02*
X1455409Y980435D01*
X1460488D01*
X1463027Y977896D01*
Y967739D01*
X1460488Y965200D01*
X1455409D01*
X1452870Y967739D01*
Y977896D01*
X1478262Y965200D02*
X1468105D01*
X1478262Y975357D01*
Y977896D01*
X1475723Y980435D01*
X1470644D01*
X1468105Y977896D01*
X1435605Y1172206D02*
X1433065Y1174745D01*
X1427987D01*
X1425448Y1172206D01*
Y1162049D01*
X1427987Y1159510D01*
X1433065D01*
X1435605Y1162049D01*
X1448301Y1159510D02*
Y1174745D01*
X1440683Y1167128D01*
X1450840D01*
X1455918Y1172206D02*
X1458457Y1174745D01*
X1463536D01*
X1466075Y1172206D01*
Y1162049D01*
X1463536Y1159510D01*
X1458457D01*
X1455918Y1162049D01*
Y1172206D01*
X1471153Y1159510D02*
X1476232D01*
X1473692D01*
Y1174745D01*
X1471153Y1172206D01*
X1237485Y728976D02*
X1234946Y731515D01*
X1229867D01*
X1227328Y728976D01*
Y718819D01*
X1229867Y716280D01*
X1234946D01*
X1237485Y718819D01*
X1250181Y716280D02*
Y731515D01*
X1242563Y723897D01*
X1252720D01*
X1257798Y728976D02*
X1260337Y731515D01*
X1265416D01*
X1267955Y728976D01*
Y718819D01*
X1265416Y716280D01*
X1260337D01*
X1257798Y718819D01*
Y728976D01*
X1273033D02*
X1275572Y731515D01*
X1280651D01*
X1283190Y728976D01*
Y718819D01*
X1280651Y716280D01*
X1275572D01*
X1273033Y718819D01*
Y728976D01*
X709165Y704846D02*
X706626Y707385D01*
X701547D01*
X699008Y704846D01*
Y694689D01*
X701547Y692150D01*
X706626D01*
X709165Y694689D01*
X714243Y704846D02*
X716782Y707385D01*
X721861D01*
X724400Y704846D01*
Y702307D01*
X721861Y699768D01*
X719321D01*
X721861D01*
X724400Y697228D01*
Y694689D01*
X721861Y692150D01*
X716782D01*
X714243Y694689D01*
X729478Y704846D02*
X732017Y707385D01*
X737096D01*
X739635Y704846D01*
Y694689D01*
X737096Y692150D01*
X732017D01*
X729478Y694689D01*
Y704846D01*
X752331Y692150D02*
Y707385D01*
X744713Y699768D01*
X754870D01*
X1008885Y775966D02*
X1006346Y778505D01*
X1001267D01*
X998728Y775966D01*
Y765809D01*
X1001267Y763270D01*
X1006346D01*
X1008885Y765809D01*
X1013963Y775966D02*
X1016502Y778505D01*
X1021581D01*
X1024120Y775966D01*
Y773427D01*
X1021581Y770888D01*
X1019041D01*
X1021581D01*
X1024120Y768348D01*
Y765809D01*
X1021581Y763270D01*
X1016502D01*
X1013963Y765809D01*
X1029198Y775966D02*
X1031737Y778505D01*
X1036816D01*
X1039355Y775966D01*
Y765809D01*
X1036816Y763270D01*
X1031737D01*
X1029198Y765809D01*
Y775966D01*
X1044433D02*
X1046972Y778505D01*
X1052051D01*
X1054590Y775966D01*
Y773427D01*
X1052051Y770888D01*
X1049512D01*
X1052051D01*
X1054590Y768348D01*
Y765809D01*
X1052051Y763270D01*
X1046972D01*
X1044433Y765809D01*
X785365Y638806D02*
X782825Y641345D01*
X777747D01*
X775208Y638806D01*
Y628649D01*
X777747Y626110D01*
X782825D01*
X785365Y628649D01*
X790443Y638806D02*
X792982Y641345D01*
X798061D01*
X800600Y638806D01*
Y636267D01*
X798061Y633727D01*
X795521D01*
X798061D01*
X800600Y631188D01*
Y628649D01*
X798061Y626110D01*
X792982D01*
X790443Y628649D01*
X805678Y638806D02*
X808217Y641345D01*
X813296D01*
X815835Y638806D01*
Y628649D01*
X813296Y626110D01*
X808217D01*
X805678Y628649D01*
Y638806D01*
X831070Y626110D02*
X820913D01*
X831070Y636267D01*
Y638806D01*
X828531Y641345D01*
X823452D01*
X820913Y638806D01*
X785365Y369566D02*
X782825Y372105D01*
X777747D01*
X775208Y369566D01*
Y359409D01*
X777747Y356870D01*
X782825D01*
X785365Y359409D01*
X790443Y369566D02*
X792982Y372105D01*
X798061D01*
X800600Y369566D01*
Y367027D01*
X798061Y364487D01*
X795521D01*
X798061D01*
X800600Y361948D01*
Y359409D01*
X798061Y356870D01*
X792982D01*
X790443Y359409D01*
X805678Y369566D02*
X808217Y372105D01*
X813296D01*
X815835Y369566D01*
Y359409D01*
X813296Y356870D01*
X808217D01*
X805678Y359409D01*
Y369566D01*
X820913Y356870D02*
X825992D01*
X823452D01*
Y372105D01*
X820913Y369566D01*
X861565Y562606D02*
X859025Y565145D01*
X853947D01*
X851408Y562606D01*
Y552449D01*
X853947Y549910D01*
X859025D01*
X861565Y552449D01*
X866643Y562606D02*
X869182Y565145D01*
X874261D01*
X876800Y562606D01*
Y560067D01*
X874261Y557528D01*
X871721D01*
X874261D01*
X876800Y554988D01*
Y552449D01*
X874261Y549910D01*
X869182D01*
X866643Y552449D01*
X881878Y562606D02*
X884417Y565145D01*
X889496D01*
X892035Y562606D01*
Y552449D01*
X889496Y549910D01*
X884417D01*
X881878Y552449D01*
Y562606D01*
X897113D02*
X899652Y565145D01*
X904731D01*
X907270Y562606D01*
Y552449D01*
X904731Y549910D01*
X899652D01*
X897113Y552449D01*
Y562606D01*
X668024Y624837D02*
X665485Y622298D01*
Y617219D01*
X668024Y614680D01*
X678181D01*
X680720Y617219D01*
Y622298D01*
X678181Y624837D01*
X680720Y640072D02*
Y629915D01*
X670563Y640072D01*
X668024D01*
X665485Y637533D01*
Y632454D01*
X668024Y629915D01*
Y645150D02*
X665485Y647689D01*
Y652768D01*
X668024Y655307D01*
X678181D01*
X680720Y652768D01*
Y647689D01*
X678181Y645150D01*
X668024D01*
Y660385D02*
X665485Y662924D01*
Y668003D01*
X668024Y670542D01*
X670563D01*
X673102Y668003D01*
X675642Y670542D01*
X678181D01*
X680720Y668003D01*
Y662924D01*
X678181Y660385D01*
X675642D01*
X673102Y662924D01*
X670563Y660385D01*
X668024D01*
X673102Y662924D02*
Y668003D01*
X566424Y533397D02*
X563885Y530858D01*
Y525779D01*
X566424Y523240D01*
X576581D01*
X579120Y525779D01*
Y530858D01*
X576581Y533397D01*
X579120Y548632D02*
Y538475D01*
X568963Y548632D01*
X566424D01*
X563885Y546093D01*
Y541014D01*
X566424Y538475D01*
Y553710D02*
X563885Y556249D01*
Y561328D01*
X566424Y563867D01*
X576581D01*
X579120Y561328D01*
Y556249D01*
X576581Y553710D01*
X566424D01*
X563885Y568945D02*
Y579102D01*
X566424D01*
X576581Y568945D01*
X579120D01*
X607064Y624837D02*
X604525Y622298D01*
Y617219D01*
X607064Y614680D01*
X617221D01*
X619760Y617219D01*
Y622298D01*
X617221Y624837D01*
X619760Y640072D02*
Y629915D01*
X609603Y640072D01*
X607064D01*
X604525Y637533D01*
Y632454D01*
X607064Y629915D01*
Y645150D02*
X604525Y647689D01*
Y652768D01*
X607064Y655307D01*
X617221D01*
X619760Y652768D01*
Y647689D01*
X617221Y645150D01*
X607064D01*
X604525Y670542D02*
X607064Y665464D01*
X612142Y660385D01*
X617221D01*
X619760Y662924D01*
Y668003D01*
X617221Y670542D01*
X614682D01*
X612142Y668003D01*
Y660385D01*
X495304Y533397D02*
X492765Y530858D01*
Y525779D01*
X495304Y523240D01*
X505461D01*
X508000Y525779D01*
Y530858D01*
X505461Y533397D01*
X508000Y548632D02*
Y538475D01*
X497843Y548632D01*
X495304D01*
X492765Y546093D01*
Y541014D01*
X495304Y538475D01*
Y553710D02*
X492765Y556249D01*
Y561328D01*
X495304Y563867D01*
X505461D01*
X508000Y561328D01*
Y556249D01*
X505461Y553710D01*
X495304D01*
X492765Y579102D02*
Y568945D01*
X500382D01*
X497843Y574024D01*
Y576563D01*
X500382Y579102D01*
X505461D01*
X508000Y576563D01*
Y571484D01*
X505461Y568945D01*
X589277Y373376D02*
X586738Y375915D01*
X581659D01*
X579120Y373376D01*
Y363219D01*
X581659Y360680D01*
X586738D01*
X589277Y363219D01*
X604512Y360680D02*
X594355D01*
X604512Y370837D01*
Y373376D01*
X601973Y375915D01*
X596894D01*
X594355Y373376D01*
X609590D02*
X612129Y375915D01*
X617208D01*
X619747Y373376D01*
Y363219D01*
X617208Y360680D01*
X612129D01*
X609590Y363219D01*
Y373376D01*
X632443Y360680D02*
Y375915D01*
X624825Y368298D01*
X634982D01*
X490725Y374646D02*
X488186Y377185D01*
X483107D01*
X480568Y374646D01*
Y364489D01*
X483107Y361950D01*
X488186D01*
X490725Y364489D01*
X505960Y361950D02*
X495803D01*
X505960Y372107D01*
Y374646D01*
X503421Y377185D01*
X498342D01*
X495803Y374646D01*
X511038D02*
X513577Y377185D01*
X518656D01*
X521195Y374646D01*
Y364489D01*
X518656Y361950D01*
X513577D01*
X511038Y364489D01*
Y374646D01*
X526273D02*
X528812Y377185D01*
X533891D01*
X536430Y374646D01*
Y372107D01*
X533891Y369567D01*
X531352D01*
X533891D01*
X536430Y367028D01*
Y364489D01*
X533891Y361950D01*
X528812D01*
X526273Y364489D01*
X394205Y374646D02*
X391665Y377185D01*
X386587D01*
X384048Y374646D01*
Y364489D01*
X386587Y361950D01*
X391665D01*
X394205Y364489D01*
X409440Y361950D02*
X399283D01*
X409440Y372107D01*
Y374646D01*
X406901Y377185D01*
X401822D01*
X399283Y374646D01*
X414518D02*
X417057Y377185D01*
X422136D01*
X424675Y374646D01*
Y364489D01*
X422136Y361950D01*
X417057D01*
X414518Y364489D01*
Y374646D01*
X439910Y361950D02*
X429753D01*
X439910Y372107D01*
Y374646D01*
X437371Y377185D01*
X432292D01*
X429753Y374646D01*
X394205Y303526D02*
X391665Y306065D01*
X386587D01*
X384048Y303526D01*
Y293369D01*
X386587Y290830D01*
X391665D01*
X394205Y293369D01*
X409440Y290830D02*
X399283D01*
X409440Y300987D01*
Y303526D01*
X406901Y306065D01*
X401822D01*
X399283Y303526D01*
X414518D02*
X417057Y306065D01*
X422136D01*
X424675Y303526D01*
Y293369D01*
X422136Y290830D01*
X417057D01*
X414518Y293369D01*
Y303526D01*
X429753Y290830D02*
X434832D01*
X432292D01*
Y306065D01*
X429753Y303526D01*
X546104Y91437D02*
X543565Y88897D01*
Y83819D01*
X546104Y81280D01*
X556261D01*
X558800Y83819D01*
Y88897D01*
X556261Y91437D01*
X558800Y106672D02*
Y96515D01*
X548643Y106672D01*
X546104D01*
X543565Y104133D01*
Y99054D01*
X546104Y96515D01*
Y111750D02*
X543565Y114289D01*
Y119368D01*
X546104Y121907D01*
X556261D01*
X558800Y119368D01*
Y114289D01*
X556261Y111750D01*
X546104D01*
Y126985D02*
X543565Y129524D01*
Y134603D01*
X546104Y137142D01*
X556261D01*
X558800Y134603D01*
Y129524D01*
X556261Y126985D01*
X546104D01*
X292097Y256536D02*
X289557Y259075D01*
X284479D01*
X281940Y256536D01*
Y246379D01*
X284479Y243840D01*
X289557D01*
X292097Y246379D01*
X297175Y243840D02*
X302253D01*
X299714D01*
Y259075D01*
X297175Y256536D01*
X320028Y243840D02*
X309871D01*
X320028Y253997D01*
Y256536D01*
X317488Y259075D01*
X312410D01*
X309871Y256536D01*
X325106D02*
X327645Y259075D01*
X332724D01*
X335263Y256536D01*
Y253997D01*
X332724Y251458D01*
X335263Y248918D01*
Y246379D01*
X332724Y243840D01*
X327645D01*
X325106Y246379D01*
Y248918D01*
X327645Y251458D01*
X325106Y253997D01*
Y256536D01*
X327645Y251458D02*
X332724D01*
X291589Y297430D02*
X289049Y299969D01*
X283971D01*
X281432Y297430D01*
Y287273D01*
X283971Y284734D01*
X289049D01*
X291589Y287273D01*
X296667Y284734D02*
X301745D01*
X299206D01*
Y299969D01*
X296667Y297430D01*
X319520Y284734D02*
X309363D01*
X319520Y294891D01*
Y297430D01*
X316980Y299969D01*
X311902D01*
X309363Y297430D01*
X324598Y299969D02*
X334755D01*
Y297430D01*
X324598Y287273D01*
Y284734D01*
X25397Y296414D02*
X22857Y298953D01*
X17779D01*
X15240Y296414D01*
Y286257D01*
X17779Y283718D01*
X22857D01*
X25397Y286257D01*
X30475Y283718D02*
X35553D01*
X33014D01*
Y298953D01*
X30475Y296414D01*
X53328Y283718D02*
X43171D01*
X53328Y293875D01*
Y296414D01*
X50788Y298953D01*
X45710D01*
X43171Y296414D01*
X68563Y298953D02*
X63484Y296414D01*
X58406Y291336D01*
Y286257D01*
X60945Y283718D01*
X66024D01*
X68563Y286257D01*
Y288796D01*
X66024Y291336D01*
X58406D01*
X25397Y256536D02*
X22857Y259075D01*
X17779D01*
X15240Y256536D01*
Y246379D01*
X17779Y243840D01*
X22857D01*
X25397Y246379D01*
X30475Y243840D02*
X35553D01*
X33014D01*
Y259075D01*
X30475Y256536D01*
X53328Y243840D02*
X43171D01*
X53328Y253997D01*
Y256536D01*
X50788Y259075D01*
X45710D01*
X43171Y256536D01*
X68563Y259075D02*
X58406D01*
Y251458D01*
X63484Y253997D01*
X66024D01*
X68563Y251458D01*
Y246379D01*
X66024Y243840D01*
X60945D01*
X58406Y246379D01*
X902205Y1431286D02*
X899666Y1433825D01*
X894587D01*
X892048Y1431286D01*
Y1421129D01*
X894587Y1418590D01*
X899666D01*
X902205Y1421129D01*
X907283Y1418590D02*
X912361D01*
X909822D01*
Y1433825D01*
X907283Y1431286D01*
X930136Y1418590D02*
X919979D01*
X930136Y1428747D01*
Y1431286D01*
X927597Y1433825D01*
X922518D01*
X919979Y1431286D01*
X942832Y1418590D02*
Y1433825D01*
X935214Y1426207D01*
X945371D01*
X899411Y1489452D02*
X896871Y1491991D01*
X891793D01*
X889254Y1489452D01*
Y1479295D01*
X891793Y1476756D01*
X896871D01*
X899411Y1479295D01*
X904489Y1476756D02*
X909567D01*
X907028D01*
Y1491991D01*
X904489Y1489452D01*
X927342Y1476756D02*
X917185D01*
X927342Y1486913D01*
Y1489452D01*
X924802Y1491991D01*
X919724D01*
X917185Y1489452D01*
X932420D02*
X934959Y1491991D01*
X940038D01*
X942577Y1489452D01*
Y1486913D01*
X940038Y1484373D01*
X937498D01*
X940038D01*
X942577Y1481834D01*
Y1479295D01*
X940038Y1476756D01*
X934959D01*
X932420Y1479295D01*
X520958Y1066289D02*
X518419Y1063749D01*
Y1058671D01*
X520958Y1056132D01*
X531115D01*
X533654Y1058671D01*
Y1063749D01*
X531115Y1066289D01*
X533654Y1071367D02*
Y1076445D01*
Y1073906D01*
X518419D01*
X520958Y1071367D01*
X533654Y1094220D02*
Y1084063D01*
X523497Y1094220D01*
X520958D01*
X518419Y1091681D01*
Y1086602D01*
X520958Y1084063D01*
X533654Y1109455D02*
Y1099298D01*
X523497Y1109455D01*
X520958D01*
X518419Y1106916D01*
Y1101837D01*
X520958Y1099298D01*
X1059558Y1375533D02*
X1057019Y1378072D01*
X1051940D01*
X1049401Y1375533D01*
Y1365376D01*
X1051940Y1362837D01*
X1057019D01*
X1059558Y1365376D01*
X1064636Y1362837D02*
X1069714D01*
X1067175D01*
Y1378072D01*
X1064636Y1375533D01*
X1087489Y1362837D02*
X1077332D01*
X1087489Y1372994D01*
Y1375533D01*
X1084949Y1378072D01*
X1079871D01*
X1077332Y1375533D01*
X1092567Y1362837D02*
X1097645D01*
X1095106D01*
Y1378072D01*
X1092567Y1375533D01*
X520958Y931669D02*
X518419Y929129D01*
Y924051D01*
X520958Y921512D01*
X531115D01*
X533654Y924051D01*
Y929129D01*
X531115Y931669D01*
X533654Y936747D02*
Y941825D01*
Y939286D01*
X518419D01*
X520958Y936747D01*
X533654Y959600D02*
Y949443D01*
X523497Y959600D01*
X520958D01*
X518419Y957060D01*
Y951982D01*
X520958Y949443D01*
Y964678D02*
X518419Y967217D01*
Y972296D01*
X520958Y974835D01*
X531115D01*
X533654Y972296D01*
Y967217D01*
X531115Y964678D01*
X520958D01*
X237233Y976118D02*
X234694Y978657D01*
X229615D01*
X227076Y976118D01*
Y965961D01*
X229615Y963422D01*
X234694D01*
X237233Y965961D01*
X242311Y963422D02*
X247389D01*
X244850D01*
Y978657D01*
X242311Y976118D01*
X255007Y963422D02*
X260085D01*
X257546D01*
Y978657D01*
X255007Y976118D01*
X267703Y965961D02*
X270242Y963422D01*
X275320D01*
X277860Y965961D01*
Y976118D01*
X275320Y978657D01*
X270242D01*
X267703Y976118D01*
Y973579D01*
X270242Y971040D01*
X277860D01*
X22864Y513077D02*
X20325Y510537D01*
Y505459D01*
X22864Y502920D01*
X33021D01*
X35560Y505459D01*
Y510537D01*
X33021Y513077D01*
X35560Y518155D02*
Y523233D01*
Y520694D01*
X20325D01*
X22864Y518155D01*
X35560Y530851D02*
Y535929D01*
Y533390D01*
X20325D01*
X22864Y530851D01*
Y543547D02*
X20325Y546086D01*
Y551164D01*
X22864Y553704D01*
X25403D01*
X27943Y551164D01*
X30482Y553704D01*
X33021D01*
X35560Y551164D01*
Y546086D01*
X33021Y543547D01*
X30482D01*
X27943Y546086D01*
X25403Y543547D01*
X22864D01*
X27943Y546086D02*
Y551164D01*
X337824Y513077D02*
X335285Y510537D01*
Y505459D01*
X337824Y502920D01*
X347981D01*
X350520Y505459D01*
Y510537D01*
X347981Y513077D01*
X350520Y518155D02*
Y523233D01*
Y520694D01*
X335285D01*
X337824Y518155D01*
X350520Y530851D02*
Y535929D01*
Y533390D01*
X335285D01*
X337824Y530851D01*
X335285Y543547D02*
Y553704D01*
X337824D01*
X347981Y543547D01*
X350520D01*
X22864Y360677D02*
X20325Y358138D01*
Y353059D01*
X22864Y350520D01*
X33021D01*
X35560Y353059D01*
Y358138D01*
X33021Y360677D01*
X35560Y365755D02*
Y370833D01*
Y368294D01*
X20325D01*
X22864Y365755D01*
X35560Y378451D02*
Y383529D01*
Y380990D01*
X20325D01*
X22864Y378451D01*
X20325Y401304D02*
X22864Y396225D01*
X27943Y391147D01*
X33021D01*
X35560Y393686D01*
Y398764D01*
X33021Y401304D01*
X30482D01*
X27943Y398764D01*
Y391147D01*
X342904Y365757D02*
X340365Y363218D01*
Y358139D01*
X342904Y355600D01*
X353061D01*
X355600Y358139D01*
Y363218D01*
X353061Y365757D01*
X355600Y370835D02*
Y375913D01*
Y373374D01*
X340365D01*
X342904Y370835D01*
X355600Y383531D02*
Y388609D01*
Y386070D01*
X340365D01*
X342904Y383531D01*
X340365Y406384D02*
Y396227D01*
X347982D01*
X345443Y401305D01*
Y403844D01*
X347982Y406384D01*
X353061D01*
X355600Y403844D01*
Y398766D01*
X353061Y396227D01*
X337824Y655317D02*
X335285Y652777D01*
Y647699D01*
X337824Y645160D01*
X347981D01*
X350520Y647699D01*
Y652777D01*
X347981Y655317D01*
X350520Y660395D02*
Y665473D01*
Y662934D01*
X335285D01*
X337824Y660395D01*
X350520Y673091D02*
Y678169D01*
Y675630D01*
X335285D01*
X337824Y673091D01*
X350520Y693404D02*
X335285D01*
X342902Y685787D01*
Y695944D01*
X22864Y660397D02*
X20325Y657858D01*
Y652779D01*
X22864Y650240D01*
X33021D01*
X35560Y652779D01*
Y657858D01*
X33021Y660397D01*
X35560Y665475D02*
Y670553D01*
Y668014D01*
X20325D01*
X22864Y665475D01*
X35560Y678171D02*
Y683249D01*
Y680710D01*
X20325D01*
X22864Y678171D01*
Y690867D02*
X20325Y693406D01*
Y698484D01*
X22864Y701024D01*
X25403D01*
X27943Y698484D01*
Y695945D01*
Y698484D01*
X30482Y701024D01*
X33021D01*
X35560Y698484D01*
Y693406D01*
X33021Y690867D01*
X826005Y1314446D02*
X823465Y1316985D01*
X818387D01*
X815848Y1314446D01*
Y1304289D01*
X818387Y1301750D01*
X823465D01*
X826005Y1304289D01*
X831083Y1301750D02*
X836161D01*
X833622D01*
Y1316985D01*
X831083Y1314446D01*
X843779Y1301750D02*
X848857D01*
X846318D01*
Y1316985D01*
X843779Y1314446D01*
X866632Y1301750D02*
X856475D01*
X866632Y1311907D01*
Y1314446D01*
X864092Y1316985D01*
X859014D01*
X856475Y1314446D01*
X826005Y1375406D02*
X823465Y1377945D01*
X818387D01*
X815848Y1375406D01*
Y1365249D01*
X818387Y1362710D01*
X823465D01*
X826005Y1365249D01*
X831083Y1362710D02*
X836161D01*
X833622D01*
Y1377945D01*
X831083Y1375406D01*
X843779Y1362710D02*
X848857D01*
X846318D01*
Y1377945D01*
X843779Y1375406D01*
X856475Y1362710D02*
X861553D01*
X859014D01*
Y1377945D01*
X856475Y1375406D01*
X826005Y1431286D02*
X823465Y1433825D01*
X818387D01*
X815848Y1431286D01*
Y1421129D01*
X818387Y1418590D01*
X823465D01*
X826005Y1421129D01*
X831083Y1418590D02*
X836161D01*
X833622D01*
Y1433825D01*
X831083Y1431286D01*
X843779Y1418590D02*
X848857D01*
X846318D01*
Y1433825D01*
X843779Y1431286D01*
X856475D02*
X859014Y1433825D01*
X864092D01*
X866632Y1431286D01*
Y1421129D01*
X864092Y1418590D01*
X859014D01*
X856475Y1421129D01*
Y1431286D01*
X754885Y1314446D02*
X752346Y1316985D01*
X747267D01*
X744728Y1314446D01*
Y1304289D01*
X747267Y1301750D01*
X752346D01*
X754885Y1304289D01*
X759963Y1301750D02*
X765041D01*
X762502D01*
Y1316985D01*
X759963Y1314446D01*
X772659D02*
X775198Y1316985D01*
X780276D01*
X782816Y1314446D01*
Y1304289D01*
X780276Y1301750D01*
X775198D01*
X772659Y1304289D01*
Y1314446D01*
X787894Y1304289D02*
X790433Y1301750D01*
X795512D01*
X798051Y1304289D01*
Y1314446D01*
X795512Y1316985D01*
X790433D01*
X787894Y1314446D01*
Y1311907D01*
X790433Y1309368D01*
X798051D01*
X754885Y1375406D02*
X752346Y1377945D01*
X747267D01*
X744728Y1375406D01*
Y1365249D01*
X747267Y1362710D01*
X752346D01*
X754885Y1365249D01*
X759963Y1362710D02*
X765041D01*
X762502D01*
Y1377945D01*
X759963Y1375406D01*
X772659D02*
X775198Y1377945D01*
X780276D01*
X782816Y1375406D01*
Y1365249D01*
X780276Y1362710D01*
X775198D01*
X772659Y1365249D01*
Y1375406D01*
X787894D02*
X790433Y1377945D01*
X795512D01*
X798051Y1375406D01*
Y1372867D01*
X795512Y1370327D01*
X798051Y1367788D01*
Y1365249D01*
X795512Y1362710D01*
X790433D01*
X787894Y1365249D01*
Y1367788D01*
X790433Y1370327D01*
X787894Y1372867D01*
Y1375406D01*
X790433Y1370327D02*
X795512D01*
X754885Y1431286D02*
X752346Y1433825D01*
X747267D01*
X744728Y1431286D01*
Y1421129D01*
X747267Y1418590D01*
X752346D01*
X754885Y1421129D01*
X759963Y1418590D02*
X765041D01*
X762502D01*
Y1433825D01*
X759963Y1431286D01*
X772659D02*
X775198Y1433825D01*
X780276D01*
X782816Y1431286D01*
Y1421129D01*
X780276Y1418590D01*
X775198D01*
X772659Y1421129D01*
Y1431286D01*
X787894Y1433825D02*
X798051D01*
Y1431286D01*
X787894Y1421129D01*
Y1418590D01*
X897633Y1227324D02*
X895094Y1229863D01*
X890015D01*
X887476Y1227324D01*
Y1217167D01*
X890015Y1214628D01*
X895094D01*
X897633Y1217167D01*
X902711Y1214628D02*
X907789D01*
X905250D01*
Y1229863D01*
X902711Y1227324D01*
X915407D02*
X917946Y1229863D01*
X923025D01*
X925564Y1227324D01*
Y1217167D01*
X923025Y1214628D01*
X917946D01*
X915407Y1217167D01*
Y1227324D01*
X940799Y1229863D02*
X935720Y1227324D01*
X930642Y1222245D01*
Y1217167D01*
X933181Y1214628D01*
X938260D01*
X940799Y1217167D01*
Y1219706D01*
X938260Y1222245D01*
X930642D01*
X899157Y1170936D02*
X896618Y1173475D01*
X891539D01*
X889000Y1170936D01*
Y1160779D01*
X891539Y1158240D01*
X896618D01*
X899157Y1160779D01*
X904235Y1158240D02*
X909313D01*
X906774D01*
Y1173475D01*
X904235Y1170936D01*
X916931D02*
X919470Y1173475D01*
X924548D01*
X927088Y1170936D01*
Y1160779D01*
X924548Y1158240D01*
X919470D01*
X916931Y1160779D01*
Y1170936D01*
X942323Y1173475D02*
X932166D01*
Y1165857D01*
X937244Y1168397D01*
X939784D01*
X942323Y1165857D01*
Y1160779D01*
X939784Y1158240D01*
X934705D01*
X932166Y1160779D01*
X1056637Y1262376D02*
X1054098Y1264915D01*
X1049019D01*
X1046480Y1262376D01*
Y1252219D01*
X1049019Y1249680D01*
X1054098D01*
X1056637Y1252219D01*
X1061715Y1249680D02*
X1066793D01*
X1064254D01*
Y1264915D01*
X1061715Y1262376D01*
X1074411D02*
X1076950Y1264915D01*
X1082029D01*
X1084568Y1262376D01*
Y1252219D01*
X1082029Y1249680D01*
X1076950D01*
X1074411Y1252219D01*
Y1262376D01*
X1097264Y1249680D02*
Y1264915D01*
X1089646Y1257298D01*
X1099803D01*
X1054605Y1111246D02*
X1052066Y1113785D01*
X1046987D01*
X1044448Y1111246D01*
Y1101089D01*
X1046987Y1098550D01*
X1052066D01*
X1054605Y1101089D01*
X1059683Y1098550D02*
X1064761D01*
X1062222D01*
Y1113785D01*
X1059683Y1111246D01*
X1072379D02*
X1074918Y1113785D01*
X1079996D01*
X1082536Y1111246D01*
Y1101089D01*
X1079996Y1098550D01*
X1074918D01*
X1072379Y1101089D01*
Y1111246D01*
X1087614D02*
X1090153Y1113785D01*
X1095232D01*
X1097771Y1111246D01*
Y1108707D01*
X1095232Y1106168D01*
X1092692D01*
X1095232D01*
X1097771Y1103628D01*
Y1101089D01*
X1095232Y1098550D01*
X1090153D01*
X1087614Y1101089D01*
X746757Y1115056D02*
X744218Y1117595D01*
X739139D01*
X736600Y1115056D01*
Y1104899D01*
X739139Y1102360D01*
X744218D01*
X746757Y1104899D01*
X751835Y1102360D02*
X756913D01*
X754374D01*
Y1117595D01*
X751835Y1115056D01*
X764531D02*
X767070Y1117595D01*
X772149D01*
X774688Y1115056D01*
Y1104899D01*
X772149Y1102360D01*
X767070D01*
X764531Y1104899D01*
Y1115056D01*
X789923Y1102360D02*
X779766D01*
X789923Y1112517D01*
Y1115056D01*
X787384Y1117595D01*
X782305D01*
X779766Y1115056D01*
X749805Y1182366D02*
X747265Y1184905D01*
X742187D01*
X739648Y1182366D01*
Y1172209D01*
X742187Y1169670D01*
X747265D01*
X749805Y1172209D01*
X754883Y1169670D02*
X759961D01*
X757422D01*
Y1184905D01*
X754883Y1182366D01*
X767579D02*
X770118Y1184905D01*
X775197D01*
X777736Y1182366D01*
Y1172209D01*
X775197Y1169670D01*
X770118D01*
X767579Y1172209D01*
Y1182366D01*
X782814Y1169670D02*
X787892D01*
X785353D01*
Y1184905D01*
X782814Y1182366D01*
X459744Y1029459D02*
X457205Y1026919D01*
Y1021841D01*
X459744Y1019302D01*
X469901D01*
X472440Y1021841D01*
Y1026919D01*
X469901Y1029459D01*
X472440Y1034537D02*
Y1039615D01*
Y1037076D01*
X457205D01*
X459744Y1034537D01*
Y1047233D02*
X457205Y1049772D01*
Y1054850D01*
X459744Y1057390D01*
X469901D01*
X472440Y1054850D01*
Y1049772D01*
X469901Y1047233D01*
X459744D01*
Y1062468D02*
X457205Y1065007D01*
Y1070086D01*
X459744Y1072625D01*
X469901D01*
X472440Y1070086D01*
Y1065007D01*
X469901Y1062468D01*
X459744D01*
X1238755Y1170936D02*
X1236216Y1173475D01*
X1231137D01*
X1228598Y1170936D01*
Y1160779D01*
X1231137Y1158240D01*
X1236216D01*
X1238755Y1160779D01*
X1251451Y1158240D02*
Y1173475D01*
X1243833Y1165857D01*
X1253990D01*
X1259068Y1158240D02*
X1264146D01*
X1261607D01*
Y1173475D01*
X1259068Y1170936D01*
X1271764D02*
X1274303Y1173475D01*
X1279382D01*
X1281921Y1170936D01*
Y1160779D01*
X1279382Y1158240D01*
X1274303D01*
X1271764Y1160779D01*
Y1170936D01*
X1234437Y495296D02*
X1231898Y497835D01*
X1226819D01*
X1224280Y495296D01*
Y485139D01*
X1226819Y482600D01*
X1231898D01*
X1234437Y485139D01*
X1249672Y497835D02*
X1239515D01*
Y490218D01*
X1244593Y492757D01*
X1247133D01*
X1249672Y490218D01*
Y485139D01*
X1247133Y482600D01*
X1242054D01*
X1239515Y485139D01*
X1254750Y495296D02*
X1257289Y497835D01*
X1262368D01*
X1264907Y495296D01*
Y485139D01*
X1262368Y482600D01*
X1257289D01*
X1254750Y485139D01*
Y495296D01*
X1280142Y497835D02*
X1269985D01*
Y490218D01*
X1275064Y492757D01*
X1277603D01*
X1280142Y490218D01*
Y485139D01*
X1277603Y482600D01*
X1272524D01*
X1269985Y485139D01*
X1146045Y191766D02*
X1143505Y194305D01*
X1138427D01*
X1135888Y191766D01*
Y181609D01*
X1138427Y179070D01*
X1143505D01*
X1146045Y181609D01*
X1161280Y194305D02*
X1151123D01*
Y186688D01*
X1156201Y189227D01*
X1158741D01*
X1161280Y186688D01*
Y181609D01*
X1158741Y179070D01*
X1153662D01*
X1151123Y181609D01*
X1166358Y191766D02*
X1168897Y194305D01*
X1173976D01*
X1176515Y191766D01*
Y181609D01*
X1173976Y179070D01*
X1168897D01*
X1166358Y181609D01*
Y191766D01*
X1191750Y194305D02*
X1186672Y191766D01*
X1181593Y186688D01*
Y181609D01*
X1184132Y179070D01*
X1189211D01*
X1191750Y181609D01*
Y184148D01*
X1189211Y186688D01*
X1181593D01*
X470408Y686049D02*
Y675892D01*
X475486Y670814D01*
X480565Y675892D01*
Y686049D01*
X485643Y670814D02*
Y686049D01*
X493261D01*
X495800Y683510D01*
Y678431D01*
X493261Y675892D01*
X485643D01*
X490721D02*
X495800Y670814D01*
X511035D02*
X500878D01*
X511035Y680971D01*
Y683510D01*
X508496Y686049D01*
X503417D01*
X500878Y683510D01*
X516113D02*
X518652Y686049D01*
X523731D01*
X526270Y683510D01*
Y673353D01*
X523731Y670814D01*
X518652D01*
X516113Y673353D01*
Y683510D01*
X541505Y670814D02*
X531348D01*
X541505Y680971D01*
Y683510D01*
X538966Y686049D01*
X533887D01*
X531348Y683510D01*
D12*
X502808Y661304D02*
G03*
X502808Y661304I-650J0D01*
G01*
X1206307Y166624D02*
G03*
X1206307Y166624I-1565J0D01*
G01*
X1297747Y461264D02*
G03*
X1297747Y461264I-1565J0D01*
G01*
Y827024D02*
G03*
X1297747Y827024I-1565J0D01*
G01*
Y1141984D02*
G03*
X1297747Y1141984I-1565J0D01*
G01*
X800141Y666262D02*
G03*
X800141Y666262I-1565J0D01*
G01*
X850707Y390144D02*
G03*
X850707Y390144I-1565J0D01*
G01*
X396789Y984738D02*
G03*
X396789Y984738I-1565J0D01*
G01*
X1016784Y1248410D02*
G03*
X1016784Y1248410I-822J0D01*
G01*
X906587Y1086104D02*
G03*
X906587Y1086104I-1565J0D01*
G01*
X153590Y1417320D02*
G03*
X153590Y1417320I-1250J0D01*
G01*
X661590D02*
G03*
X661590Y1417320I-1250J0D01*
G01*
X153590Y985520D02*
G03*
X153590Y985520I-1250J0D01*
G01*
X661590Y980440D02*
G03*
X661590Y980440I-1250J0D01*
G01*
D13*
X1409049Y179558D02*
X1470049D01*
Y84258D02*
Y179558D01*
X1409049Y84258D02*
X1470049D01*
X1409049D02*
Y179558D01*
X870610Y864820D02*
Y925820D01*
X775310Y864820D02*
X870610D01*
X775310D02*
Y925820D01*
X870610D01*
X661620Y1069950D02*
X722620D01*
X661620D02*
Y1165250D01*
X722620D01*
Y1069950D02*
Y1165250D01*
X302140Y1033510D02*
X309640D01*
X302140D02*
X309640D01*
X327140D02*
X337140D01*
X327140D02*
X337140D01*
X352140D02*
X364640D01*
X352140D02*
X364640D01*
X272740D02*
X284640D01*
X272740D02*
X284640D01*
X379640Y1033660D02*
X392740D01*
X379640Y1033510D02*
Y1033660D01*
Y1033510D02*
X392740D01*
Y1033660D01*
Y1123660D01*
Y1033660D02*
Y1123660D01*
Y1223660D02*
Y1263510D01*
Y1223660D02*
Y1263510D01*
X272740Y1263660D02*
X392740D01*
Y1263510D02*
Y1263660D01*
X272740Y1263510D02*
X392740D01*
X272740D02*
Y1263660D01*
Y1223660D02*
Y1263660D01*
Y1223660D02*
Y1263660D01*
Y1033510D02*
Y1123660D01*
Y1033510D02*
Y1123660D01*
D14*
X375840Y1226160D02*
X392665Y1242985D01*
X375840Y1260485D02*
X392665Y1243660D01*
X272740D02*
X392665D01*
D15*
X1076960Y157480D02*
X1081880D01*
X1076960Y149860D02*
Y165100D01*
X1066800Y157480D02*
Y166370D01*
X1075690Y157480D01*
X1066800Y148590D02*
X1075690Y157480D01*
X1066800Y148590D02*
Y157480D01*
X1061880D02*
X1066800D01*
X1163320Y96520D02*
X1168240D01*
X1163320Y88900D02*
Y104140D01*
X1153160Y96520D02*
Y105410D01*
X1162050Y96520D01*
X1153160Y87630D02*
X1162050Y96520D01*
X1153160Y87630D02*
Y96520D01*
X1148240D02*
X1153160D01*
X447040Y121920D02*
X451960D01*
X447040Y114300D02*
Y129540D01*
X436880Y121920D02*
Y130810D01*
X445770Y121920D01*
X436880Y113030D02*
X445770Y121920D01*
X436880Y113030D02*
Y121920D01*
X431960D02*
X436880D01*
X543560Y426880D02*
Y431800D01*
X535940D02*
X551180D01*
X543560Y441960D02*
X552450D01*
X543560Y433070D02*
X552450Y441960D01*
X534670D02*
X543560Y433070D01*
X534670Y441960D02*
X543560D01*
Y446880D01*
X538480Y183040D02*
Y187960D01*
X530860D02*
X546100D01*
X538480Y198120D02*
X547370D01*
X538480Y189230D02*
X547370Y198120D01*
X529590D02*
X538480Y189230D01*
X529590Y198120D02*
X538480D01*
Y203040D01*
X701040Y1351280D02*
X705960D01*
X701040Y1343660D02*
Y1358900D01*
X690880Y1351280D02*
Y1360170D01*
X699770Y1351280D01*
X690880Y1342390D02*
X699770Y1351280D01*
X690880Y1342390D02*
Y1351280D01*
X685960D02*
X690880D01*
X193040Y1356360D02*
X197960D01*
X193040Y1348740D02*
Y1363980D01*
X182880Y1356360D02*
Y1365250D01*
X191770Y1356360D01*
X182880Y1347470D02*
X191770Y1356360D01*
X182880Y1347470D02*
Y1356360D01*
X177960D02*
X182880D01*
X706120Y924560D02*
X711040D01*
X706120Y916940D02*
Y932180D01*
X695960Y924560D02*
Y933450D01*
X704850Y924560D01*
X695960Y915670D02*
X704850Y924560D01*
X695960Y915670D02*
Y924560D01*
X691040D02*
X695960D01*
X182880Y934720D02*
X187800D01*
X182880Y927100D02*
Y942340D01*
X172720Y934720D02*
Y943610D01*
X181610Y934720D01*
X172720Y925830D02*
X181610Y934720D01*
X172720Y925830D02*
Y934720D01*
X167800D02*
X172720D01*
X1061880Y1397000D02*
X1066800D01*
Y1389380D02*
Y1404620D01*
X1076960Y1388110D02*
Y1397000D01*
X1068070D02*
X1076960Y1388110D01*
X1068070Y1397000D02*
X1076960Y1405890D01*
Y1397000D02*
Y1405890D01*
Y1397000D02*
X1081880D01*
X1076960Y1457960D02*
X1081880D01*
X1076960Y1450340D02*
Y1465580D01*
X1066800Y1457960D02*
Y1466850D01*
X1075690Y1457960D01*
X1066800Y1449070D02*
X1075690Y1457960D01*
X1066800Y1449070D02*
Y1457960D01*
X1061880D02*
X1066800D01*
X843280D02*
X848200D01*
X843280Y1450340D02*
Y1465580D01*
X833120Y1457960D02*
Y1466850D01*
X842010Y1457960D01*
X833120Y1449070D02*
X842010Y1457960D01*
X833120Y1449070D02*
Y1457960D01*
X828200D02*
X833120D01*
X843280Y1193800D02*
X848200D01*
X843280Y1186180D02*
Y1201420D01*
X833120Y1193800D02*
Y1202690D01*
X842010Y1193800D01*
X833120Y1184910D02*
X842010Y1193800D01*
X833120Y1184910D02*
Y1193800D01*
X828200D02*
X833120D01*
X1047499Y1192105D02*
Y1186180D01*
X1056386D01*
Y1192105D01*
X1051942Y1186180D02*
Y1189142D01*
X1056386Y1195067D02*
X1050461D01*
Y1199511D01*
X1051942Y1200992D01*
X1056386D01*
X953011Y1182116D02*
X961898D01*
Y1186560D01*
X960417Y1188041D01*
X954492D01*
X953011Y1186560D01*
Y1182116D01*
X961898Y1191003D02*
Y1193966D01*
Y1192484D01*
X955973D01*
Y1191003D01*
X961898Y1198409D02*
Y1202853D01*
X960417Y1204334D01*
X958936Y1202853D01*
Y1199890D01*
X957454Y1198409D01*
X955973Y1199890D01*
Y1204334D01*
X1143845Y443481D02*
X1137920D01*
Y434594D01*
X1143845D01*
X1137920Y439038D02*
X1140882D01*
X1146807Y434594D02*
X1151251D01*
X1152732Y436075D01*
X1151251Y437556D01*
X1148288D01*
X1146807Y439038D01*
X1148288Y440519D01*
X1152732D01*
X1157175Y442000D02*
Y440519D01*
X1155694D01*
X1158657D01*
X1157175D01*
Y436075D01*
X1158657Y434594D01*
X1171987D02*
Y440519D01*
X1174950Y443481D01*
X1177912Y440519D01*
Y434594D01*
Y439038D01*
X1171987D01*
X1142067Y538985D02*
X1136142D01*
Y530098D01*
X1142067D01*
X1136142Y534542D02*
X1139104D01*
X1145029Y530098D02*
X1149473D01*
X1150954Y531579D01*
X1149473Y533060D01*
X1146510D01*
X1145029Y534542D01*
X1146510Y536023D01*
X1150954D01*
X1155397Y537504D02*
Y536023D01*
X1153916D01*
X1156879D01*
X1155397D01*
Y531579D01*
X1156879Y530098D01*
X1170209Y538985D02*
Y530098D01*
X1174653D01*
X1176134Y531579D01*
Y537504D01*
X1174653Y538985D01*
X1170209D01*
X1146131Y745530D02*
X1144650Y747011D01*
X1141687D01*
X1140206Y745530D01*
Y739605D01*
X1141687Y738124D01*
X1144650D01*
X1146131Y739605D01*
X1150574Y738124D02*
X1153537D01*
X1155018Y739605D01*
Y742568D01*
X1153537Y744049D01*
X1150574D01*
X1149093Y742568D01*
Y739605D01*
X1150574Y738124D01*
X1157980D02*
Y744049D01*
X1159461D01*
X1160943Y742568D01*
Y738124D01*
Y742568D01*
X1162424Y744049D01*
X1163905Y742568D01*
Y738124D01*
X1166867Y735162D02*
Y744049D01*
X1171311D01*
X1172792Y742568D01*
Y739605D01*
X1171311Y738124D01*
X1166867D01*
X1184642D02*
Y744049D01*
X1187604Y747011D01*
X1190566Y744049D01*
Y738124D01*
Y742568D01*
X1184642D01*
X1146385Y846876D02*
X1144904Y848357D01*
X1141941D01*
X1140460Y846876D01*
Y840951D01*
X1141941Y839470D01*
X1144904D01*
X1146385Y840951D01*
X1150828Y839470D02*
X1153791D01*
X1155272Y840951D01*
Y843914D01*
X1153791Y845395D01*
X1150828D01*
X1149347Y843914D01*
Y840951D01*
X1150828Y839470D01*
X1158234D02*
Y845395D01*
X1159715D01*
X1161197Y843914D01*
Y839470D01*
Y843914D01*
X1162678Y845395D01*
X1164159Y843914D01*
Y839470D01*
X1167121Y836508D02*
Y845395D01*
X1171565D01*
X1173046Y843914D01*
Y840951D01*
X1171565Y839470D01*
X1167121D01*
X1184896Y848357D02*
Y839470D01*
X1189339D01*
X1190820Y840951D01*
Y846876D01*
X1189339Y848357D01*
X1184896D01*
X1000506Y444243D02*
X1006431D01*
X1003468D01*
Y435356D01*
X1009393D02*
X1012355D01*
X1010874D01*
Y441281D01*
X1009393D01*
X1016799Y432394D02*
Y441281D01*
X1021243D01*
X1022724Y439800D01*
Y436837D01*
X1021243Y435356D01*
X1016799D01*
X1027167D02*
X1030130D01*
X1031611Y436837D01*
Y439800D01*
X1030130Y441281D01*
X1027167D01*
X1025686Y439800D01*
Y436837D01*
X1027167Y435356D01*
X1043460Y442762D02*
X1044942Y444243D01*
X1047904D01*
X1049385Y442762D01*
Y436837D01*
X1047904Y435356D01*
X1044942D01*
X1043460Y436837D01*
Y442762D01*
X1000252Y543303D02*
X1006177D01*
X1003214D01*
Y534416D01*
X1009139D02*
X1012102D01*
X1010620D01*
Y540341D01*
X1009139D01*
X1016545Y531454D02*
Y540341D01*
X1020989D01*
X1022470Y538860D01*
Y535897D01*
X1020989Y534416D01*
X1016545D01*
X1026913D02*
X1029876D01*
X1031357Y535897D01*
Y538860D01*
X1029876Y540341D01*
X1026913D01*
X1025432Y538860D01*
Y535897D01*
X1026913Y534416D01*
X1043206D02*
X1046169D01*
X1044688D01*
Y543303D01*
X1043206Y541822D01*
X1051052Y405892D02*
Y417318D01*
X1056765D01*
X1058670Y415414D01*
Y411605D01*
X1056765Y409701D01*
X1051052D01*
X1070096Y417318D02*
X1062478D01*
Y411605D01*
X1066287Y413509D01*
X1068192D01*
X1070096Y411605D01*
Y407796D01*
X1068192Y405892D01*
X1064383D01*
X1062478Y407796D01*
X1073905Y415414D02*
X1075809Y417318D01*
X1079618D01*
X1081522Y415414D01*
Y407796D01*
X1079618Y405892D01*
X1075809D01*
X1073905Y407796D01*
Y415414D01*
X1085331Y405892D02*
X1089140D01*
X1087235D01*
Y417318D01*
X1085331Y415414D01*
D16*
X1419860Y1247840D02*
Y1271840D01*
X1423670D01*
X1419860Y1247840D02*
X1423670D01*
Y1271840D01*
X1471930D01*
X1423670Y1247840D02*
X1471930D01*
Y1271840D01*
X602680Y464820D02*
X626680D01*
Y461010D02*
Y464820D01*
X602680Y461010D02*
Y464820D01*
Y461010D02*
X626680D01*
Y412750D02*
Y461010D01*
X602680Y412750D02*
Y461010D01*
Y412750D02*
X626680D01*
X602680Y215900D02*
X626680D01*
Y212090D02*
Y215900D01*
X602680Y212090D02*
Y215900D01*
Y212090D02*
X626680D01*
Y163830D02*
Y212090D01*
X602680Y163830D02*
Y212090D01*
Y163830D02*
X626680D01*
X368300Y43880D02*
Y67880D01*
X364490Y43880D02*
X368300D01*
X364490Y67880D02*
X368300D01*
X364490Y43880D02*
Y67880D01*
X316230Y43880D02*
X364490D01*
X316230Y67880D02*
X364490D01*
X316230Y43880D02*
Y67880D01*
D17*
X1386840Y866420D02*
Y876960D01*
Y890880D02*
Y901420D01*
X1379110Y859790D02*
Y866420D01*
Y901420D02*
Y908050D01*
X1355629Y901420D02*
X1386840D01*
Y876960D02*
Y890880D01*
X1355629Y866420D02*
X1386840D01*
X1308630D02*
Y901420D01*
Y866420D02*
X1341629D01*
X1308630Y901420D02*
X1341629D01*
X1305560Y1012800D02*
Y1023340D01*
Y988340D02*
Y998880D01*
X1313290Y1023340D02*
Y1029970D01*
Y981710D02*
Y988340D01*
X1305560D02*
X1336770D01*
X1305560Y998880D02*
Y1012800D01*
Y1023340D02*
X1336770D01*
X1383770Y988340D02*
Y1023340D01*
X1350771D02*
X1383770D01*
X1350771Y988340D02*
X1383770D01*
X1397000Y1205840D02*
Y1216380D01*
Y1181380D02*
Y1191920D01*
X1404730Y1216380D02*
Y1223010D01*
Y1174750D02*
Y1181380D01*
X1397000D02*
X1428210D01*
X1397000Y1191920D02*
Y1205840D01*
Y1216380D02*
X1428210D01*
X1475210Y1181380D02*
Y1216380D01*
X1442211D02*
X1475210D01*
X1442211Y1181380D02*
X1475210D01*
D18*
X43473Y1054697D02*
Y1059696D01*
X45972Y1062195D01*
X48472Y1059696D01*
Y1054697D01*
Y1058446D01*
X43473D01*
X50971Y1062195D02*
Y1054697D01*
Y1058446D01*
X55969D01*
Y1062195D01*
Y1054697D01*
X63467Y1060945D02*
X62217Y1062195D01*
X59718D01*
X58468Y1060945D01*
Y1059696D01*
X59718Y1058446D01*
X62217D01*
X63467Y1057197D01*
Y1055947D01*
X62217Y1054697D01*
X59718D01*
X58468Y1055947D01*
X1135195Y1335004D02*
Y1327507D01*
X1138943D01*
X1140193Y1328756D01*
Y1330006D01*
X1138943Y1331256D01*
X1135195D01*
X1138943D01*
X1140193Y1332505D01*
Y1333755D01*
X1138943Y1335004D01*
X1135195D01*
X1142692D02*
Y1327507D01*
X1147691D01*
X1150190Y1335004D02*
X1152689D01*
X1151440D01*
Y1327507D01*
X1150190D01*
X1152689D01*
X1156438D02*
X1161436Y1332505D01*
X1163935Y1327507D02*
Y1332505D01*
X1166435Y1335004D01*
X1168934Y1332505D01*
Y1327507D01*
Y1331256D01*
X1163935D01*
X1171433Y1335004D02*
Y1327507D01*
Y1331256D01*
X1176432D01*
Y1335004D01*
Y1327507D01*
X1178931Y1335004D02*
X1181430D01*
X1180180D01*
Y1327507D01*
X1178931D01*
X1181430D01*
X1424940Y243718D02*
Y238719D01*
X1427439Y236220D01*
X1429938Y238719D01*
Y243718D01*
X1432438Y234970D02*
X1437436D01*
X1439935Y243718D02*
X1442434D01*
X1441185D01*
Y236220D01*
X1439935D01*
X1442434D01*
X1446183Y242468D02*
X1451182Y237470D01*
X1446183D02*
X1451182Y242468D01*
X1446183Y239969D02*
X1451182D01*
X1448682Y237470D02*
Y242468D01*
X1453681Y236220D02*
Y243718D01*
X1457430D01*
X1458679Y242468D01*
Y239969D01*
X1457430Y238719D01*
X1453681D01*
X1456180D02*
X1458679Y236220D01*
X1405433Y364826D02*
Y359827D01*
X1407932Y357328D01*
X1410431Y359827D01*
Y364826D01*
X1412930Y357328D02*
X1415430D01*
X1414180D01*
Y362326D01*
X1412930D01*
X1419178Y356078D02*
X1424177D01*
X1431674Y364826D02*
X1426676D01*
Y361077D01*
X1429175D01*
X1426676D01*
Y357328D01*
X1437922D02*
X1435423D01*
X1434174Y358578D01*
Y361077D01*
X1435423Y362326D01*
X1437922D01*
X1439172Y361077D01*
Y359827D01*
X1434174D01*
X1445420Y357328D02*
X1442921D01*
X1441671Y358578D01*
Y361077D01*
X1442921Y362326D01*
X1445420D01*
X1446670Y361077D01*
Y359827D01*
X1441671D01*
X1454167Y364826D02*
Y357328D01*
X1450418D01*
X1449169Y358578D01*
Y361077D01*
X1450418Y362326D01*
X1454167D01*
X1456666Y356078D02*
X1461665D01*
X1464164Y364826D02*
Y357328D01*
X1469162D01*
X1471662D02*
Y364826D01*
X1475410D01*
X1476660Y363576D01*
Y361077D01*
X1475410Y359827D01*
X1471662D01*
X1484158Y364826D02*
X1479159D01*
Y361077D01*
X1481658D01*
X1479159D01*
Y357328D01*
X1043786Y74430D02*
Y69431D01*
X1046286Y66932D01*
X1048785Y69431D01*
Y74430D01*
X1051284Y64433D02*
Y71930D01*
X1055033D01*
X1056282Y70681D01*
Y68182D01*
X1055033Y66932D01*
X1051284D01*
X1058782D02*
X1062530D01*
X1063780Y68182D01*
X1062530Y69431D01*
X1060031D01*
X1058782Y70681D01*
X1060031Y71930D01*
X1063780D01*
X1067529Y73180D02*
Y71930D01*
X1066279D01*
X1068778D01*
X1067529D01*
Y68182D01*
X1068778Y66932D01*
X1043940Y126878D02*
Y121879D01*
X1046439Y119380D01*
X1048938Y121879D01*
Y126878D01*
X1052687Y125628D02*
Y124378D01*
X1051438D01*
X1053937D01*
X1052687D01*
Y120630D01*
X1053937Y119380D01*
X1057686D02*
X1061434D01*
X1062684Y120630D01*
X1061434Y121879D01*
X1058935D01*
X1057686Y123129D01*
X1058935Y124378D01*
X1062684D01*
X1066433Y125628D02*
Y124378D01*
X1065183D01*
X1067682D01*
X1066433D01*
Y120630D01*
X1067682Y119380D01*
X1074205Y609946D02*
Y604948D01*
X1076705Y602449D01*
X1079204Y604948D01*
Y609946D01*
X1086701D02*
Y602449D01*
X1082953D01*
X1081703Y603698D01*
Y606197D01*
X1082953Y607447D01*
X1086701D01*
X1092949Y602449D02*
X1090450D01*
X1089201Y603698D01*
Y606197D01*
X1090450Y607447D01*
X1092949D01*
X1094199Y606197D01*
Y604948D01*
X1089201D01*
X1096698Y607447D02*
Y602449D01*
Y604948D01*
X1097948Y606197D01*
X1099197Y607447D01*
X1100447D01*
X1123420Y430764D02*
Y425765D01*
X1125920Y423266D01*
X1128419Y425765D01*
Y430764D01*
X1130918Y420767D02*
Y428264D01*
X1134667D01*
X1135916Y427015D01*
Y424516D01*
X1134667Y423266D01*
X1130918D01*
X1139665D02*
X1142164D01*
X1143414Y424516D01*
Y427015D01*
X1142164Y428264D01*
X1139665D01*
X1138416Y427015D01*
Y424516D01*
X1139665Y423266D01*
X1145913D02*
X1149662D01*
X1150912Y424516D01*
X1149662Y425765D01*
X1147163D01*
X1145913Y427015D01*
X1147163Y428264D01*
X1150912D01*
X1153411Y422016D02*
X1158409D01*
X1165907Y430764D02*
X1160908D01*
Y423266D01*
X1165907D01*
X1160908Y427015D02*
X1163408D01*
X1168406Y423266D02*
X1172155D01*
X1173404Y424516D01*
X1172155Y425765D01*
X1169656D01*
X1168406Y427015D01*
X1169656Y428264D01*
X1173404D01*
X1177153Y429514D02*
Y428264D01*
X1175904D01*
X1178403D01*
X1177153D01*
Y424516D01*
X1178403Y423266D01*
X1182152Y422016D02*
X1187150D01*
X1189649Y423266D02*
Y428264D01*
X1192148Y430764D01*
X1194648Y428264D01*
Y423266D01*
Y427015D01*
X1189649D01*
X1309286Y1331726D02*
Y1326728D01*
X1311785Y1324229D01*
X1314284Y1326728D01*
Y1331726D01*
X1316783Y1321730D02*
Y1329227D01*
X1320532D01*
X1321782Y1327978D01*
Y1325478D01*
X1320532Y1324229D01*
X1316783D01*
X1325531D02*
X1328030D01*
X1329279Y1325478D01*
Y1327978D01*
X1328030Y1329227D01*
X1325531D01*
X1324281Y1327978D01*
Y1325478D01*
X1325531Y1324229D01*
X1331779D02*
X1335527D01*
X1336777Y1325478D01*
X1335527Y1326728D01*
X1333028D01*
X1331779Y1327978D01*
X1333028Y1329227D01*
X1336777D01*
X1339276Y1322979D02*
X1344275D01*
X1346774Y1324229D02*
Y1331726D01*
X1350523D01*
X1351772Y1330477D01*
Y1327978D01*
X1350523Y1326728D01*
X1346774D01*
X1349273D02*
X1351772Y1324229D01*
X1358020D02*
X1355521D01*
X1354272Y1325478D01*
Y1327978D01*
X1355521Y1329227D01*
X1358020D01*
X1359270Y1327978D01*
Y1326728D01*
X1354272D01*
X1363019Y1324229D02*
Y1330477D01*
Y1327978D01*
X1361769D01*
X1364268D01*
X1363019D01*
Y1330477D01*
X1364268Y1331726D01*
X1368017Y1322979D02*
X1373015D01*
X1375515Y1324229D02*
Y1329227D01*
X1378014Y1331726D01*
X1380513Y1329227D01*
Y1324229D01*
Y1327978D01*
X1375515D01*
X1383012Y1331726D02*
Y1324229D01*
X1386761D01*
X1388011Y1325478D01*
Y1330477D01*
X1386761Y1331726D01*
X1383012D01*
X1395508Y1330477D02*
X1394259Y1331726D01*
X1391759D01*
X1390510Y1330477D01*
Y1325478D01*
X1391759Y1324229D01*
X1394259D01*
X1395508Y1325478D01*
X1135380Y985398D02*
Y980399D01*
X1137879Y977900D01*
X1140378Y980399D01*
Y985398D01*
X1142878Y977900D02*
X1145377D01*
X1144127D01*
Y982898D01*
X1142878D01*
X1149126Y976650D02*
X1154124D01*
X1161622Y985398D02*
X1156623D01*
Y981649D01*
X1159122D01*
X1156623D01*
Y977900D01*
X1167870D02*
X1165370D01*
X1164121Y979150D01*
Y981649D01*
X1165370Y982898D01*
X1167870D01*
X1169119Y981649D01*
Y980399D01*
X1164121D01*
X1175367Y977900D02*
X1172868D01*
X1171618Y979150D01*
Y981649D01*
X1172868Y982898D01*
X1175367D01*
X1176617Y981649D01*
Y980399D01*
X1171618D01*
X1184114Y985398D02*
Y977900D01*
X1180366D01*
X1179116Y979150D01*
Y981649D01*
X1180366Y982898D01*
X1184114D01*
X1186614Y976650D02*
X1191612D01*
X1194111Y977900D02*
Y982898D01*
X1196610Y985398D01*
X1199110Y982898D01*
Y977900D01*
Y981649D01*
X1194111D01*
X1201609Y985398D02*
Y977900D01*
X1205358D01*
X1206607Y979150D01*
Y984148D01*
X1205358Y985398D01*
X1201609D01*
X1214105Y984148D02*
X1212855Y985398D01*
X1210356D01*
X1209106Y984148D01*
Y979150D01*
X1210356Y977900D01*
X1212855D01*
X1214105Y979150D01*
X1414711Y1334441D02*
Y1329443D01*
X1417210Y1326944D01*
X1419709Y1329443D01*
Y1334441D01*
X1422209Y1326944D02*
X1424708D01*
X1423458D01*
Y1331942D01*
X1422209D01*
X1428457Y1325694D02*
X1433455D01*
X1437204Y1326944D02*
Y1333192D01*
Y1330692D01*
X1435954D01*
X1438453D01*
X1437204D01*
Y1333192D01*
X1438453Y1334441D01*
X1442202Y1326944D02*
Y1331942D01*
X1443452D01*
X1444701Y1330692D01*
Y1326944D01*
Y1330692D01*
X1445951Y1331942D01*
X1447200Y1330692D01*
Y1326944D01*
X1449700Y1325694D02*
X1454698D01*
X1457197Y1326944D02*
Y1331942D01*
X1459697Y1334441D01*
X1462196Y1331942D01*
Y1326944D01*
Y1330692D01*
X1457197D01*
X1464695Y1334441D02*
Y1326944D01*
X1468444D01*
X1469693Y1328193D01*
Y1333192D01*
X1468444Y1334441D01*
X1464695D01*
X1477191Y1333192D02*
X1475941Y1334441D01*
X1473442D01*
X1472193Y1333192D01*
Y1328193D01*
X1473442Y1326944D01*
X1475941D01*
X1477191Y1328193D01*
X1128676Y670629D02*
Y665631D01*
X1131175Y663131D01*
X1133674Y665631D01*
Y670629D01*
X1136174Y660632D02*
Y668130D01*
X1139922D01*
X1141172Y666880D01*
Y664381D01*
X1139922Y663131D01*
X1136174D01*
X1144921D02*
X1147420D01*
X1148670Y664381D01*
Y666880D01*
X1147420Y668130D01*
X1144921D01*
X1143671Y666880D01*
Y664381D01*
X1144921Y663131D01*
X1151169D02*
X1154918D01*
X1156167Y664381D01*
X1154918Y665631D01*
X1152418D01*
X1151169Y666880D01*
X1152418Y668130D01*
X1156167D01*
X1158666Y661882D02*
X1163665D01*
X1171162Y670629D02*
X1166164D01*
Y663131D01*
X1171162D01*
X1166164Y666880D02*
X1168663D01*
X1173662Y663131D02*
X1177410D01*
X1178660Y664381D01*
X1177410Y665631D01*
X1174911D01*
X1173662Y666880D01*
X1174911Y668130D01*
X1178660D01*
X1182409Y669379D02*
Y668130D01*
X1181159D01*
X1183658D01*
X1182409D01*
Y664381D01*
X1183658Y663131D01*
X1187407Y661882D02*
X1192406D01*
X1194905Y670629D02*
Y663131D01*
X1198654D01*
X1199903Y664381D01*
Y669379D01*
X1198654Y670629D01*
X1194905D01*
X1132977Y920529D02*
Y915530D01*
X1135476Y913031D01*
X1137975Y915530D01*
Y920529D01*
X1145472Y918030D02*
X1141724D01*
X1140474Y916780D01*
Y914281D01*
X1141724Y913031D01*
X1145472D01*
X1149221D02*
X1151721D01*
X1152970Y914281D01*
Y916780D01*
X1151721Y918030D01*
X1149221D01*
X1147972Y916780D01*
Y914281D01*
X1149221Y913031D01*
X1155469D02*
Y918030D01*
X1156719D01*
X1157969Y916780D01*
Y913031D01*
Y916780D01*
X1159218Y918030D01*
X1160468Y916780D01*
Y913031D01*
X1162967Y910532D02*
Y918030D01*
X1166716D01*
X1167965Y916780D01*
Y914281D01*
X1166716Y913031D01*
X1162967D01*
X1170464Y911782D02*
X1175463D01*
X1177962Y920529D02*
Y913031D01*
X1181711D01*
X1182961Y914281D01*
Y919279D01*
X1181711Y920529D01*
X1177962D01*
X1043989Y343794D02*
Y338795D01*
X1046488Y336296D01*
X1048988Y338795D01*
Y343794D01*
X1051487Y333797D02*
Y341294D01*
X1055236D01*
X1056485Y340045D01*
Y337546D01*
X1055236Y336296D01*
X1051487D01*
X1060234D02*
X1062733D01*
X1063983Y337546D01*
Y340045D01*
X1062733Y341294D01*
X1060234D01*
X1058984Y340045D01*
Y337546D01*
X1060234Y336296D01*
X1066482D02*
X1070231D01*
X1071480Y337546D01*
X1070231Y338795D01*
X1067731D01*
X1066482Y340045D01*
X1067731Y341294D01*
X1071480D01*
X1073979Y335046D02*
X1078978D01*
X1081477Y336296D02*
Y343794D01*
X1085226D01*
X1086476Y342544D01*
Y340045D01*
X1085226Y338795D01*
X1081477D01*
X1083976D02*
X1086476Y336296D01*
X1092723D02*
X1090224D01*
X1088975Y337546D01*
Y340045D01*
X1090224Y341294D01*
X1092723D01*
X1093973Y340045D01*
Y338795D01*
X1088975D01*
X1097722Y336296D02*
Y342544D01*
Y340045D01*
X1096472D01*
X1098971D01*
X1097722D01*
Y342544D01*
X1098971Y343794D01*
X1135843Y727967D02*
Y722969D01*
X1138343Y720470D01*
X1140842Y722969D01*
Y727967D01*
X1148339Y725468D02*
X1144591D01*
X1143341Y724218D01*
Y721719D01*
X1144591Y720470D01*
X1148339D01*
X1152088D02*
X1154587D01*
X1155837Y721719D01*
Y724218D01*
X1154587Y725468D01*
X1152088D01*
X1150838Y724218D01*
Y721719D01*
X1152088Y720470D01*
X1158336D02*
Y725468D01*
X1159586D01*
X1160835Y724218D01*
Y720470D01*
Y724218D01*
X1162085Y725468D01*
X1163335Y724218D01*
Y720470D01*
X1165834Y717970D02*
Y725468D01*
X1169583D01*
X1170832Y724218D01*
Y721719D01*
X1169583Y720470D01*
X1165834D01*
X1173331Y719220D02*
X1178330D01*
X1180829Y720470D02*
Y725468D01*
X1183328Y727967D01*
X1185827Y725468D01*
Y720470D01*
Y724218D01*
X1180829D01*
X1063974Y517954D02*
Y512956D01*
X1066473Y510456D01*
X1068972Y512956D01*
Y517954D01*
X1075220Y510456D02*
X1072721D01*
X1071471Y511706D01*
Y514205D01*
X1072721Y515455D01*
X1075220D01*
X1076470Y514205D01*
Y512956D01*
X1071471D01*
X1078969Y515455D02*
Y510456D01*
Y512956D01*
X1080219Y514205D01*
X1081468Y515455D01*
X1082718D01*
X1086467D02*
Y510456D01*
Y512956D01*
X1087716Y514205D01*
X1088966Y515455D01*
X1090216D01*
X1095214Y510456D02*
X1097713D01*
X1098963Y511706D01*
Y514205D01*
X1097713Y515455D01*
X1095214D01*
X1093964Y514205D01*
Y511706D01*
X1095214Y510456D01*
X1101462Y515455D02*
Y510456D01*
Y512956D01*
X1102711Y514205D01*
X1103961Y515455D01*
X1105211D01*
X1113958Y510456D02*
X1108960D01*
X1113958Y515455D01*
Y516704D01*
X1112708Y517954D01*
X1110209D01*
X1108960Y516704D01*
X774276Y558480D02*
Y553481D01*
X776775Y550982D01*
X779274Y553481D01*
Y558480D01*
X785522Y550982D02*
X783023D01*
X781773Y552232D01*
Y554731D01*
X783023Y555980D01*
X785522D01*
X786772Y554731D01*
Y553481D01*
X781773D01*
X789271Y555980D02*
Y550982D01*
Y553481D01*
X790520Y554731D01*
X791770Y555980D01*
X793020D01*
X796768D02*
Y550982D01*
Y553481D01*
X798018Y554731D01*
X799268Y555980D01*
X800517D01*
X805516Y550982D02*
X808015D01*
X809265Y552232D01*
Y554731D01*
X808015Y555980D01*
X805516D01*
X804266Y554731D01*
Y552232D01*
X805516Y550982D01*
X811764Y555980D02*
Y550982D01*
Y553481D01*
X813013Y554731D01*
X814263Y555980D01*
X815512D01*
X819261Y550982D02*
X821760D01*
X820511D01*
Y558480D01*
X819261Y557230D01*
X1064260Y666689D02*
X1069258D01*
X1066759Y669188D02*
Y664190D01*
X1076756Y662940D02*
X1071758D01*
X1076756Y667938D01*
Y669188D01*
X1075506Y670438D01*
X1073007D01*
X1071758Y669188D01*
X1079255Y662940D02*
Y664190D01*
X1080505D01*
Y662940D01*
X1079255D01*
X1090502Y670438D02*
X1085503D01*
Y666689D01*
X1088002Y667938D01*
X1089252D01*
X1090502Y666689D01*
Y664190D01*
X1089252Y662940D01*
X1086753D01*
X1085503Y664190D01*
X1093001Y670438D02*
Y665439D01*
X1095500Y662940D01*
X1097999Y665439D01*
Y670438D01*
X687469Y1483760D02*
Y1476262D01*
X691217D01*
X692467Y1477512D01*
Y1478761D01*
X691217Y1480011D01*
X687469D01*
X691217D01*
X692467Y1481261D01*
Y1482510D01*
X691217Y1483760D01*
X687469D01*
X694966D02*
Y1476262D01*
X699965D01*
X706213Y1483760D02*
X703714D01*
X702464Y1482510D01*
Y1477512D01*
X703714Y1476262D01*
X706213D01*
X707462Y1477512D01*
Y1482510D01*
X706213Y1483760D01*
X172447Y1477824D02*
Y1482822D01*
X174946Y1485322D01*
X177445Y1482822D01*
Y1477824D01*
Y1481573D01*
X172447D01*
X179944Y1485322D02*
Y1477824D01*
X184943D01*
X191191Y1485322D02*
X188692D01*
X187442Y1484072D01*
Y1479074D01*
X188692Y1477824D01*
X191191D01*
X192440Y1479074D01*
Y1484072D01*
X191191Y1485322D01*
X687205Y1050925D02*
Y1043427D01*
X690954D01*
X692204Y1044677D01*
Y1045926D01*
X690954Y1047176D01*
X687205D01*
X690954D01*
X692204Y1048426D01*
Y1049675D01*
X690954Y1050925D01*
X687205D01*
X694703D02*
Y1043427D01*
Y1047176D01*
X699701D01*
Y1050925D01*
Y1043427D01*
X705949Y1050925D02*
X703450D01*
X702200Y1049675D01*
Y1044677D01*
X703450Y1043427D01*
X705949D01*
X707199Y1044677D01*
Y1049675D01*
X705949Y1050925D01*
X176086Y1131724D02*
Y1136722D01*
X178585Y1139221D01*
X181084Y1136722D01*
Y1131724D01*
Y1135472D01*
X176086D01*
X183583Y1139221D02*
Y1131724D01*
Y1135472D01*
X188582D01*
Y1139221D01*
Y1131724D01*
X194830Y1139221D02*
X192331D01*
X191081Y1137972D01*
Y1132973D01*
X192331Y1131724D01*
X194830D01*
X196079Y1132973D01*
Y1137972D01*
X194830Y1139221D01*
X1222578Y1333804D02*
Y1326307D01*
X1226327D01*
X1227576Y1327556D01*
Y1328806D01*
X1226327Y1330056D01*
X1222578D01*
X1226327D01*
X1227576Y1331305D01*
Y1332555D01*
X1226327Y1333804D01*
X1222578D01*
X1230076D02*
Y1326307D01*
Y1330056D01*
X1235074D01*
Y1333804D01*
Y1326307D01*
X1237573Y1333804D02*
X1240072D01*
X1238823D01*
Y1326307D01*
X1237573D01*
X1240072D01*
X1243821D02*
X1248820Y1331305D01*
X1251319Y1326307D02*
Y1331305D01*
X1253818Y1333804D01*
X1256317Y1331305D01*
Y1326307D01*
Y1330056D01*
X1251319D01*
X1258816Y1333804D02*
Y1326307D01*
X1263815D01*
X1266314Y1333804D02*
X1268813D01*
X1267564D01*
Y1326307D01*
X1266314D01*
X1268813D01*
X564441Y1150187D02*
Y1142690D01*
X568190D01*
X569439Y1143939D01*
Y1145189D01*
X568190Y1146438D01*
X564441D01*
X568190D01*
X569439Y1147688D01*
Y1148938D01*
X568190Y1150187D01*
X564441D01*
X571938D02*
Y1142690D01*
Y1146438D01*
X576937D01*
Y1150187D01*
Y1142690D01*
X584434Y1148938D02*
X583185Y1150187D01*
X580686D01*
X579436Y1148938D01*
Y1147688D01*
X580686Y1146438D01*
X583185D01*
X584434Y1145189D01*
Y1143939D01*
X583185Y1142690D01*
X580686D01*
X579436Y1143939D01*
X676457Y1293668D02*
X681455D01*
X678956Y1296167D02*
Y1291169D01*
X688953Y1289919D02*
X683954D01*
X688953Y1294918D01*
Y1296167D01*
X687703Y1297417D01*
X685204D01*
X683954Y1296167D01*
X691452Y1289919D02*
Y1291169D01*
X692702D01*
Y1289919D01*
X691452D01*
X702698Y1297417D02*
X700199Y1296167D01*
X697700Y1293668D01*
Y1291169D01*
X698950Y1289919D01*
X701449D01*
X702698Y1291169D01*
Y1292419D01*
X701449Y1293668D01*
X697700D01*
X705198Y1297417D02*
Y1292419D01*
X707697Y1289919D01*
X710196Y1292419D01*
Y1297417D01*
X896620Y919358D02*
Y914359D01*
X899119Y911860D01*
X901618Y914359D01*
Y919358D01*
X904118Y911860D02*
X906617D01*
X905367D01*
Y916858D01*
X904118D01*
X910366Y910610D02*
X915364D01*
X922862Y919358D02*
X917863D01*
Y911860D01*
X922862D01*
X917863Y915609D02*
X920362D01*
X925361Y916858D02*
Y911860D01*
Y914359D01*
X926610Y915609D01*
X927860Y916858D01*
X929110D01*
X932858D02*
Y911860D01*
Y914359D01*
X934108Y915609D01*
X935358Y916858D01*
X936607D01*
X941606Y911860D02*
X944105D01*
X945354Y913110D01*
Y915609D01*
X944105Y916858D01*
X941606D01*
X940356Y915609D01*
Y913110D01*
X941606Y911860D01*
X947854Y916858D02*
Y911860D01*
Y914359D01*
X949103Y915609D01*
X950353Y916858D01*
X951602D01*
X756692Y1477292D02*
Y1482290D01*
X759192Y1484789D01*
X761691Y1482290D01*
Y1477292D01*
Y1481040D01*
X756692D01*
X764190Y1484789D02*
Y1477292D01*
Y1481040D01*
X769188D01*
Y1484789D01*
Y1477292D01*
X771688Y1484789D02*
Y1477292D01*
X775436D01*
X776686Y1478541D01*
Y1479791D01*
X775436Y1481040D01*
X771688D01*
X775436D01*
X776686Y1482290D01*
Y1483540D01*
X775436Y1484789D01*
X771688D01*
X832119Y1168335D02*
Y1160838D01*
X835868D01*
X837118Y1162087D01*
Y1163337D01*
X835868Y1164586D01*
X832119D01*
X835868D01*
X837118Y1165836D01*
Y1167086D01*
X835868Y1168335D01*
X832119D01*
X839617D02*
Y1160838D01*
Y1164586D01*
X844615D01*
Y1168335D01*
Y1160838D01*
X847115Y1168335D02*
Y1160838D01*
X850863D01*
X852113Y1162087D01*
Y1163337D01*
X850863Y1164586D01*
X847115D01*
X850863D01*
X852113Y1165836D01*
Y1167086D01*
X850863Y1168335D01*
X847115D01*
X1136799Y609946D02*
Y604948D01*
X1139298Y602449D01*
X1141797Y604948D01*
Y609946D01*
X1144297Y602449D02*
X1146796D01*
X1145546D01*
Y607447D01*
X1144297D01*
X1150545Y601199D02*
X1155543D01*
X1163041Y609946D02*
X1158042D01*
Y606197D01*
X1160542D01*
X1158042D01*
Y602449D01*
X1169289D02*
X1166789D01*
X1165540Y603698D01*
Y606197D01*
X1166789Y607447D01*
X1169289D01*
X1170538Y606197D01*
Y604948D01*
X1165540D01*
X1176786Y602449D02*
X1174287D01*
X1173037Y603698D01*
Y606197D01*
X1174287Y607447D01*
X1176786D01*
X1178036Y606197D01*
Y604948D01*
X1173037D01*
X1185534Y609946D02*
Y602449D01*
X1181785D01*
X1180535Y603698D01*
Y606197D01*
X1181785Y607447D01*
X1185534D01*
X1152550Y1104969D02*
X1151301Y1106218D01*
X1148801D01*
X1147552Y1104969D01*
Y1099970D01*
X1148801Y1098721D01*
X1151301D01*
X1152550Y1099970D01*
Y1102469D01*
X1150051D01*
X1155049Y1098721D02*
Y1106218D01*
X1160048Y1098721D01*
Y1106218D01*
X1162547D02*
Y1098721D01*
X1166296D01*
X1167545Y1099970D01*
Y1104969D01*
X1166296Y1106218D01*
X1162547D01*
X1120850Y1046611D02*
Y1041613D01*
X1123350Y1039114D01*
X1125849Y1041613D01*
Y1046611D01*
X1129598Y1039114D02*
X1132097D01*
X1133346Y1040363D01*
Y1042862D01*
X1132097Y1044112D01*
X1129598D01*
X1128348Y1042862D01*
Y1040363D01*
X1129598Y1039114D01*
X1135846Y1044112D02*
Y1040363D01*
X1137095Y1039114D01*
X1140844D01*
Y1044112D01*
X1144593Y1045362D02*
Y1044112D01*
X1143343D01*
X1145842D01*
X1144593D01*
Y1040363D01*
X1145842Y1039114D01*
X1149591Y1037864D02*
X1154590D01*
X1158338Y1039114D02*
X1160838D01*
X1162087Y1040363D01*
Y1042862D01*
X1160838Y1044112D01*
X1158338D01*
X1157089Y1042862D01*
Y1040363D01*
X1158338Y1039114D01*
X1164586D02*
X1168335D01*
X1169585Y1040363D01*
X1168335Y1041613D01*
X1165836D01*
X1164586Y1042862D01*
X1165836Y1044112D01*
X1169585D01*
X1177082D02*
X1173334D01*
X1172084Y1042862D01*
Y1040363D01*
X1173334Y1039114D01*
X1177082D01*
X1179582Y1037864D02*
X1184580D01*
X1187079Y1046611D02*
Y1039114D01*
Y1042862D01*
X1192077D01*
Y1046611D01*
Y1039114D01*
X1199575Y1046611D02*
X1194577D01*
Y1042862D01*
X1197076D01*
X1194577D01*
Y1039114D01*
X973386Y918140D02*
Y913142D01*
X975885Y910642D01*
X978384Y913142D01*
Y918140D01*
X980883Y909393D02*
X985882D01*
X988381Y918140D02*
Y910642D01*
Y914391D01*
X993379D01*
Y918140D01*
Y910642D01*
X995879D02*
X998378D01*
X997128D01*
Y915641D01*
X995879D01*
X1002126Y910642D02*
X1005875D01*
X1007125Y911892D01*
X1005875Y913142D01*
X1003376D01*
X1002126Y914391D01*
X1003376Y915641D01*
X1007125D01*
X1010874Y916890D02*
Y915641D01*
X1009624D01*
X1012123D01*
X1010874D01*
Y911892D01*
X1012123Y910642D01*
D19*
X118734Y1417318D02*
D03*
X626734D02*
D03*
X118734Y985518D02*
D03*
X626734Y980438D02*
D03*
M02*
