G04*
G04 #@! TF.GenerationSoftware,Altium Limited,Altium Designer,18.0.7 (293)*
G04*
G04 Layer_Color=8421504*
%FSLAX44Y44*%
%MOMM*%
G71*
G01*
G75*
%ADD20R,1.2700X1.7780*%
%ADD21R,0.5500X1.1000*%
%ADD22R,6.2230X6.7310*%
%ADD23R,2.2606X1.5240*%
%ADD24O,2.5000X0.7000*%
%ADD25O,0.7000X2.5000*%
%ADD26O,2.0000X0.6000*%
%ADD27R,0.8500X0.3000*%
%ADD28R,1.7780X1.2700*%
%ADD29R,9.4000X10.8000*%
%ADD30R,0.8000X4.6000*%
%ADD31R,1.1200X1.7200*%
%ADD32R,2.1590X2.7432*%
%ADD33R,1.7200X1.1200*%
%ADD34R,2.0000X2.0000*%
D20*
X1337280Y152400D02*
D03*
X1365280D02*
D03*
X1364978Y95068D02*
D03*
X1336978D02*
D03*
X1337280Y330200D02*
D03*
X1365280D02*
D03*
X1461800Y274320D02*
D03*
X1433800D02*
D03*
X1337280D02*
D03*
X1365280D02*
D03*
X1337280Y218440D02*
D03*
X1365280D02*
D03*
X1144240Y274320D02*
D03*
X1172240D02*
D03*
X1360200Y518160D02*
D03*
X1332200D02*
D03*
X1235680Y401320D02*
D03*
X1263680D02*
D03*
Y518160D02*
D03*
X1235680D02*
D03*
X1143466Y41185D02*
D03*
X1171466D02*
D03*
X1336774Y40577D02*
D03*
X1364774D02*
D03*
X1234758Y41241D02*
D03*
X1262757D02*
D03*
X1263680Y579120D02*
D03*
X1235680D02*
D03*
Y274320D02*
D03*
X1263680D02*
D03*
X1172240Y218440D02*
D03*
X1144240D02*
D03*
X1052800D02*
D03*
X1080800D02*
D03*
X1332200Y1259840D02*
D03*
X1360200D02*
D03*
X1461800Y579120D02*
D03*
X1433800D02*
D03*
X1461800Y635000D02*
D03*
X1433800D02*
D03*
X1461800Y695960D02*
D03*
X1433800D02*
D03*
Y812800D02*
D03*
X1461800D02*
D03*
Y883920D02*
D03*
X1433800D02*
D03*
X1235680Y1076960D02*
D03*
X1263680D02*
D03*
Y1005840D02*
D03*
X1235680D02*
D03*
X1332200Y635000D02*
D03*
X1360200D02*
D03*
Y579120D02*
D03*
X1332200D02*
D03*
X1461800Y1005840D02*
D03*
X1433800D02*
D03*
X1360200Y944880D02*
D03*
X1332200D02*
D03*
X1235680Y889000D02*
D03*
X1263680D02*
D03*
X1235680Y755650D02*
D03*
X1263680D02*
D03*
X1332200Y1198880D02*
D03*
X1360200D02*
D03*
X1263680Y638810D02*
D03*
X1235680D02*
D03*
X887760Y807720D02*
D03*
X859760D02*
D03*
X963960D02*
D03*
X935960D02*
D03*
X735360D02*
D03*
X707360D02*
D03*
X963960Y741680D02*
D03*
X935960D02*
D03*
X811560Y807720D02*
D03*
X783560D02*
D03*
X963960Y604520D02*
D03*
X935960D02*
D03*
X735360Y528320D02*
D03*
X707360D02*
D03*
X935960Y670560D02*
D03*
X963960D02*
D03*
X735360Y604520D02*
D03*
X707360D02*
D03*
X1035080Y670560D02*
D03*
X1007080D02*
D03*
X887760Y604520D02*
D03*
X859760D02*
D03*
X735360Y736600D02*
D03*
X707360D02*
D03*
Y396240D02*
D03*
X735360D02*
D03*
X811560Y457200D02*
D03*
X783560D02*
D03*
X887760Y259080D02*
D03*
X859760D02*
D03*
X963960Y457200D02*
D03*
X935960D02*
D03*
X707360D02*
D03*
X735360D02*
D03*
X935960Y528320D02*
D03*
X963960D02*
D03*
X783560Y396240D02*
D03*
X811560D02*
D03*
X941040Y259080D02*
D03*
X969040D02*
D03*
X814608D02*
D03*
X786608D02*
D03*
X735360D02*
D03*
X707360D02*
D03*
X735360Y335280D02*
D03*
X707360D02*
D03*
X887760Y457200D02*
D03*
X859760D02*
D03*
X618520Y274320D02*
D03*
X590520D02*
D03*
X331440Y121920D02*
D03*
X359440D02*
D03*
X516920Y269240D02*
D03*
X488920D02*
D03*
X681960Y1417320D02*
D03*
X709960D02*
D03*
X201960D02*
D03*
X173960D02*
D03*
X687040Y980440D02*
D03*
X715040D02*
D03*
X191800Y883920D02*
D03*
X163800D02*
D03*
X605436Y1458692D02*
D03*
X633436D02*
D03*
X124013Y1458694D02*
D03*
X96013D02*
D03*
X1085880Y1285240D02*
D03*
X1057880D02*
D03*
X461040Y1092200D02*
D03*
X433040D02*
D03*
X209834Y1050036D02*
D03*
X181834D02*
D03*
X1004600Y1397000D02*
D03*
X976600D02*
D03*
X1004600Y1457960D02*
D03*
X976600D02*
D03*
X125760Y1041400D02*
D03*
X97760D02*
D03*
X605760Y1036320D02*
D03*
X633760D02*
D03*
X237998Y893318D02*
D03*
X265998D02*
D03*
X237998Y944880D02*
D03*
X265998D02*
D03*
X1052800Y1137920D02*
D03*
X1080800D02*
D03*
X1004600D02*
D03*
X976600D02*
D03*
X1012160Y812800D02*
D03*
X1040160D02*
D03*
X1080800Y889000D02*
D03*
X1052800D02*
D03*
X824200Y955040D02*
D03*
X852200D02*
D03*
X748000D02*
D03*
X776000D02*
D03*
X1052800D02*
D03*
X1080800D02*
D03*
X776000Y1209040D02*
D03*
X748000D02*
D03*
X900400Y955040D02*
D03*
X928400D02*
D03*
X776000Y1016000D02*
D03*
X748000D02*
D03*
X852200D02*
D03*
X824200D02*
D03*
X1080800D02*
D03*
X1052800D02*
D03*
X704880Y1209040D02*
D03*
X676880D02*
D03*
X427960Y60960D02*
D03*
X455960D02*
D03*
X1433800Y1259840D02*
D03*
X1461800D02*
D03*
X354360Y55880D02*
D03*
X326360D02*
D03*
X1172240Y157480D02*
D03*
X1144240D02*
D03*
X1263680Y462280D02*
D03*
X1235680D02*
D03*
X1172240Y330200D02*
D03*
X1144240D02*
D03*
X1461490Y458899D02*
D03*
X1433490D02*
D03*
X1263680Y330200D02*
D03*
X1235680D02*
D03*
Y218440D02*
D03*
X1263680D02*
D03*
X1264950Y1136650D02*
D03*
X1236950D02*
D03*
X1433800Y518160D02*
D03*
X1461800D02*
D03*
Y751840D02*
D03*
X1433800D02*
D03*
X1235680Y944880D02*
D03*
X1263680D02*
D03*
Y1198880D02*
D03*
X1235680D02*
D03*
X1264950Y819150D02*
D03*
X1236950D02*
D03*
X1461800Y1076960D02*
D03*
X1433800D02*
D03*
X1360200Y695960D02*
D03*
X1332200D02*
D03*
X1433800Y944880D02*
D03*
X1461800D02*
D03*
Y1137920D02*
D03*
X1433800D02*
D03*
X1263680Y694690D02*
D03*
X1235680D02*
D03*
X707360Y670560D02*
D03*
X735360D02*
D03*
X1035080Y741680D02*
D03*
X1007080D02*
D03*
X783560Y604520D02*
D03*
X811560D02*
D03*
X783560Y335280D02*
D03*
X811560D02*
D03*
X859760Y528320D02*
D03*
X887760D02*
D03*
X618520Y340360D02*
D03*
X590520D02*
D03*
X488920D02*
D03*
X516920D02*
D03*
X392400D02*
D03*
X420400D02*
D03*
X392400Y269240D02*
D03*
X420400D02*
D03*
X824200Y1076960D02*
D03*
X852200D02*
D03*
X262920Y248920D02*
D03*
X234920D02*
D03*
X262920Y289560D02*
D03*
X234920D02*
D03*
X87600D02*
D03*
X115600D02*
D03*
X87600Y248920D02*
D03*
X115600D02*
D03*
X900400Y1397000D02*
D03*
X928400D02*
D03*
X900400Y1457960D02*
D03*
X928400D02*
D03*
X1057880Y1341120D02*
D03*
X1085880D02*
D03*
X237998Y996442D02*
D03*
X265998D02*
D03*
X852200Y1280160D02*
D03*
X824200D02*
D03*
X852200Y1341120D02*
D03*
X824200D02*
D03*
X852200Y1397000D02*
D03*
X824200D02*
D03*
X753080Y1280160D02*
D03*
X781080D02*
D03*
X753080Y1341120D02*
D03*
X781080D02*
D03*
X753080Y1397000D02*
D03*
X781080D02*
D03*
X900400Y1193800D02*
D03*
X928400D02*
D03*
X900400Y1137920D02*
D03*
X928400D02*
D03*
X1057880Y1229360D02*
D03*
X1085880D02*
D03*
X1080800Y1076960D02*
D03*
X1052800D02*
D03*
X776000Y1082040D02*
D03*
X748000D02*
D03*
X776000Y1148080D02*
D03*
X748000D02*
D03*
D21*
X476910Y652080D02*
D03*
X495910D02*
D03*
X486410D02*
D03*
X476910Y628080D02*
D03*
X495910D02*
D03*
X486410D02*
D03*
D22*
X401320Y436880D02*
D03*
X386080Y193040D02*
D03*
D23*
X472948Y461518D02*
D03*
Y412242D02*
D03*
X457708Y217678D02*
D03*
Y168402D02*
D03*
D24*
X1230260Y166370D02*
D03*
Y153670D02*
D03*
Y140970D02*
D03*
Y128270D02*
D03*
Y115570D02*
D03*
Y102870D02*
D03*
Y90170D02*
D03*
X1279260Y166370D02*
D03*
Y153670D02*
D03*
Y140970D02*
D03*
Y128270D02*
D03*
Y115570D02*
D03*
Y102870D02*
D03*
Y90170D02*
D03*
X1321700Y461010D02*
D03*
Y448310D02*
D03*
Y435610D02*
D03*
Y422910D02*
D03*
Y410210D02*
D03*
Y397510D02*
D03*
Y384810D02*
D03*
X1370700Y461010D02*
D03*
Y448310D02*
D03*
Y435610D02*
D03*
Y422910D02*
D03*
Y410210D02*
D03*
Y397510D02*
D03*
Y384810D02*
D03*
X1321700Y826770D02*
D03*
Y814070D02*
D03*
Y801370D02*
D03*
Y788670D02*
D03*
Y775970D02*
D03*
Y763270D02*
D03*
Y750570D02*
D03*
X1370700Y826770D02*
D03*
Y814070D02*
D03*
Y801370D02*
D03*
Y788670D02*
D03*
Y775970D02*
D03*
Y763270D02*
D03*
Y750570D02*
D03*
X1321700Y1141730D02*
D03*
Y1129030D02*
D03*
Y1116330D02*
D03*
Y1103630D02*
D03*
Y1090930D02*
D03*
Y1078230D02*
D03*
Y1065530D02*
D03*
X1370700Y1141730D02*
D03*
Y1129030D02*
D03*
Y1116330D02*
D03*
Y1103630D02*
D03*
Y1090930D02*
D03*
Y1078230D02*
D03*
Y1065530D02*
D03*
X874660Y389890D02*
D03*
Y377190D02*
D03*
Y364490D02*
D03*
Y351790D02*
D03*
Y339090D02*
D03*
Y326390D02*
D03*
Y313690D02*
D03*
X923660Y389890D02*
D03*
Y377190D02*
D03*
Y364490D02*
D03*
Y351790D02*
D03*
Y339090D02*
D03*
Y326390D02*
D03*
Y313690D02*
D03*
X930540Y1085850D02*
D03*
Y1073150D02*
D03*
Y1060450D02*
D03*
Y1047750D02*
D03*
Y1035050D02*
D03*
Y1022350D02*
D03*
Y1009650D02*
D03*
X979540Y1085850D02*
D03*
Y1073150D02*
D03*
Y1060450D02*
D03*
Y1047750D02*
D03*
Y1035050D02*
D03*
Y1022350D02*
D03*
Y1009650D02*
D03*
D25*
X798830Y691780D02*
D03*
X811530D02*
D03*
X824230D02*
D03*
X836930D02*
D03*
X849630D02*
D03*
X862330D02*
D03*
X875030D02*
D03*
X798830Y740780D02*
D03*
X811530D02*
D03*
X824230D02*
D03*
X836930D02*
D03*
X849630D02*
D03*
X862330D02*
D03*
X875030D02*
D03*
X394970Y959220D02*
D03*
X382270D02*
D03*
X369570D02*
D03*
X356870D02*
D03*
X344170D02*
D03*
X331470D02*
D03*
X318770D02*
D03*
X394970Y910220D02*
D03*
X382270D02*
D03*
X369570D02*
D03*
X356870D02*
D03*
X344170D02*
D03*
X331470D02*
D03*
X318770D02*
D03*
D26*
X994960Y1248410D02*
D03*
Y1261110D02*
D03*
Y1273810D02*
D03*
Y1286510D02*
D03*
Y1299210D02*
D03*
Y1311910D02*
D03*
Y1324610D02*
D03*
Y1337310D02*
D03*
Y1350010D02*
D03*
Y1362710D02*
D03*
X904960Y1248410D02*
D03*
Y1261110D02*
D03*
Y1273810D02*
D03*
Y1286510D02*
D03*
Y1299210D02*
D03*
Y1311910D02*
D03*
Y1324610D02*
D03*
Y1337310D02*
D03*
Y1350010D02*
D03*
Y1362710D02*
D03*
D27*
X1142490Y1226940D02*
D03*
Y1231940D02*
D03*
Y1236940D02*
D03*
Y1241940D02*
D03*
X1173990D02*
D03*
Y1236940D02*
D03*
Y1231940D02*
D03*
Y1226940D02*
D03*
D28*
X614680Y562640D02*
D03*
Y534640D02*
D03*
X396240Y654080D02*
D03*
Y626080D02*
D03*
Y562640D02*
D03*
Y534640D02*
D03*
X497840Y1024920D02*
D03*
Y996920D02*
D03*
X436880Y900400D02*
D03*
Y928400D02*
D03*
Y966440D02*
D03*
Y994440D02*
D03*
X589280Y80040D02*
D03*
Y52040D02*
D03*
X640080D02*
D03*
Y80040D02*
D03*
X614680Y450880D02*
D03*
Y422880D02*
D03*
Y201960D02*
D03*
Y173960D02*
D03*
X645160Y626080D02*
D03*
Y654080D02*
D03*
X543560Y562640D02*
D03*
Y534640D02*
D03*
X584200Y654080D02*
D03*
Y626080D02*
D03*
X472440Y562640D02*
D03*
Y534640D02*
D03*
X523240Y92680D02*
D03*
Y120680D02*
D03*
X497840Y1068040D02*
D03*
Y1096040D02*
D03*
X498094Y965738D02*
D03*
Y937738D02*
D03*
X436880Y1032480D02*
D03*
Y1060480D02*
D03*
D29*
X82577Y1263650D02*
D03*
X585470D02*
D03*
X82546Y818030D02*
D03*
X585470Y812800D02*
D03*
D30*
X107977Y1355150D02*
D03*
X95277D02*
D03*
X69877D02*
D03*
X57177D02*
D03*
X44477D02*
D03*
X120677D02*
D03*
X610870D02*
D03*
X598170D02*
D03*
X572770D02*
D03*
X560070D02*
D03*
X547370D02*
D03*
X623570D02*
D03*
X107946Y909530D02*
D03*
X95246D02*
D03*
X69846D02*
D03*
X57146D02*
D03*
X44446D02*
D03*
X120646D02*
D03*
X610870Y904300D02*
D03*
X598170D02*
D03*
X572770D02*
D03*
X560070D02*
D03*
X547370D02*
D03*
X623570D02*
D03*
D31*
X1092630Y157480D02*
D03*
X1051130D02*
D03*
X1178990Y96520D02*
D03*
X1137490D02*
D03*
X462710Y121920D02*
D03*
X421210D02*
D03*
X716710Y1351280D02*
D03*
X675210D02*
D03*
X208710Y1356360D02*
D03*
X167210D02*
D03*
X721790Y924560D02*
D03*
X680290D02*
D03*
X198550Y934720D02*
D03*
X157050D02*
D03*
X1051130Y1397000D02*
D03*
X1092630D02*
D03*
Y1457960D02*
D03*
X1051130D02*
D03*
X858950D02*
D03*
X817450D02*
D03*
X858950Y1193800D02*
D03*
X817450D02*
D03*
D32*
X1370330Y883920D02*
D03*
X1325880D02*
D03*
X1322070Y1005840D02*
D03*
X1366520D02*
D03*
X1413510Y1198880D02*
D03*
X1457960D02*
D03*
D33*
X543560Y416130D02*
D03*
Y457630D02*
D03*
X538480Y172290D02*
D03*
Y213790D02*
D03*
D34*
X96840Y1417320D02*
D03*
X136840D02*
D03*
X604840D02*
D03*
X644840D02*
D03*
X96840Y985520D02*
D03*
X136840D02*
D03*
X604840Y980440D02*
D03*
X644840D02*
D03*
M02*
