G04*
G04 #@! TF.GenerationSoftware,Altium Limited,Altium Designer,18.0.7 (293)*
G04*
G04 Layer_Color=16711935*
%FSLAX44Y44*%
%MOMM*%
G71*
G01*
G75*
%ADD50O,2.0032X2.2032*%
%ADD51R,2.0032X2.2032*%
%ADD52C,4.9632*%
%ADD53C,2.2032*%
%ADD54C,1.4202*%
%ADD55R,3.9532X2.4532*%
%ADD56C,1.6032*%
%ADD57C,5.7232*%
%ADD58C,1.7032*%
%ADD59R,1.7032X1.7032*%
%ADD60R,1.7032X1.7032*%
%ADD61R,1.4032X1.4032*%
%ADD62C,1.4032*%
%ADD63C,4.2032*%
%ADD64C,1.4732*%
G36*
X616204Y1325372D02*
Y1322832D01*
X537210D01*
Y1485901D01*
X616204D01*
Y1325372D01*
D02*
G37*
G36*
X112424Y1322070D02*
X28448Y1322070D01*
X27940Y1322578D01*
X27940Y1412240D01*
X38608Y1422908D01*
X71882Y1456182D01*
X75438Y1459738D01*
Y1485798D01*
X112424D01*
Y1322070D01*
D02*
G37*
G36*
X337818Y1467866D02*
X337818Y1467590D01*
X337566Y1315974D01*
X322326Y1298956D01*
X306324Y1281430D01*
X267716D01*
X236220Y1249172D01*
X236220Y1207770D01*
X151130D01*
X123832Y1174751D01*
X123698Y1160272D01*
X123190Y1105408D01*
X123190Y1069185D01*
X112092Y1058086D01*
Y880110D01*
X45212D01*
X44196Y881126D01*
X27178D01*
Y1317542D01*
X27686Y1317752D01*
X237061D01*
X238234Y1317752D01*
X239522Y1317752D01*
X239776Y1318006D01*
X238760Y1319022D01*
Y1319022D01*
X238760Y1319022D01*
X238506Y1320195D01*
Y1469136D01*
X336655D01*
X337818Y1467866D01*
D02*
G37*
G36*
X436880Y1274064D02*
X408813Y1233805D01*
X352679Y1233805D01*
X341503Y1222629D01*
X330200Y1206754D01*
Y1113028D01*
X238760D01*
Y1190498D01*
Y1249172D01*
X252603Y1263015D01*
X269225Y1279637D01*
X308623Y1279636D01*
X340360Y1315399D01*
X340360Y1468120D01*
X395034Y1468120D01*
X436880D01*
Y1274064D01*
D02*
G37*
G36*
X635000Y1320800D02*
Y1114044D01*
X632460Y1111504D01*
X615861Y1094905D01*
Y878228D01*
X614960Y877333D01*
X540004Y877824D01*
X539496Y878884D01*
Y1113028D01*
X332740D01*
Y1206668D01*
X352931Y1231771D01*
X366268Y1231771D01*
X380492Y1231771D01*
X409956Y1231770D01*
X423164Y1250950D01*
X438658Y1272286D01*
Y1300480D01*
Y1320155D01*
X439557Y1321053D01*
X635000Y1320800D01*
D02*
G37*
G36*
X629920Y741680D02*
X289560D01*
X269240Y721360D01*
Y335280D01*
X248920Y314960D01*
Y238760D01*
X187960Y177800D01*
X177800Y167640D01*
Y40640D01*
X86360D01*
Y223520D01*
X101600Y238760D01*
Y314960D01*
Y320040D01*
X111760Y330200D01*
Y721360D01*
X30480D01*
Y741680D01*
Y751840D01*
Y756920D01*
Y868680D01*
X629920D01*
Y741680D01*
D02*
G37*
D50*
X1336839Y1361049D02*
D03*
X1322989Y1389449D02*
D03*
X1309139Y1361049D02*
D03*
X1295289Y1389449D02*
D03*
X1281439Y1361049D02*
D03*
X1267589Y1389449D02*
D03*
X1253739Y1361049D02*
D03*
X1239889Y1389449D02*
D03*
D51*
X1226039Y1361049D02*
D03*
D52*
X1156489Y1375249D02*
D03*
X1406389D02*
D03*
D53*
X1158055Y1304647D02*
D03*
X1447800Y213360D02*
D03*
Y330200D02*
D03*
X1066646Y44072D02*
D03*
X1066800Y96520D02*
D03*
X1087120Y579120D02*
D03*
X1158240Y401320D02*
D03*
X1341513Y1303699D02*
D03*
X1158240Y955040D02*
D03*
X1437571Y1304084D02*
D03*
X1158240Y640080D02*
D03*
Y889000D02*
D03*
X1066849Y313436D02*
D03*
X1158240Y695960D02*
D03*
X1087120Y487680D02*
D03*
X797560Y528320D02*
D03*
X1087120Y640080D02*
D03*
X696319Y1456427D02*
D03*
X182668Y1456696D02*
D03*
X695960Y1021080D02*
D03*
X185674Y1108964D02*
D03*
X53086Y1031494D02*
D03*
X1245438Y1303447D02*
D03*
X575564Y1119632D02*
D03*
X690880Y1270000D02*
D03*
X919480Y889000D02*
D03*
X767080Y1456352D02*
D03*
X843280Y1137920D02*
D03*
X1158240Y579120D02*
D03*
Y1076960D02*
D03*
Y1016000D02*
D03*
X990600Y889000D02*
D03*
X130200Y111760D02*
D03*
X225400D02*
D03*
X382880Y1391920D02*
D03*
X287680D02*
D03*
D54*
X1450949Y106508D02*
D03*
X1425549Y131908D02*
D03*
X1450949Y157308D02*
D03*
X797560Y883920D02*
D03*
X822960Y909320D02*
D03*
X848360Y883920D02*
D03*
X680720Y1143000D02*
D03*
X706120Y1117600D02*
D03*
X680720Y1092200D02*
D03*
D55*
X381740Y1143510D02*
D03*
Y1174510D02*
D03*
Y1205510D02*
D03*
X283740D02*
D03*
Y1174510D02*
D03*
Y1143510D02*
D03*
D56*
X294640Y1026160D02*
D03*
X307340Y1045210D02*
D03*
X320040Y1026160D02*
D03*
X332740Y1045210D02*
D03*
X345440Y1026160D02*
D03*
X358140Y1045210D02*
D03*
X370840Y1026160D02*
D03*
D57*
X837900Y152400D02*
D03*
X736900D02*
D03*
D58*
X824900Y52400D02*
D03*
X787400D02*
D03*
X749900D02*
D03*
X1066800Y386080D02*
D03*
X1434221Y401842D02*
D03*
X1021080Y462280D02*
D03*
Y487680D02*
D03*
X980440Y1193800D02*
D03*
X1005840D02*
D03*
X1173480Y1137920D02*
D03*
X1005840Y955040D02*
D03*
X1158240Y513080D02*
D03*
Y487680D02*
D03*
X1163320Y817880D02*
D03*
Y792480D02*
D03*
D59*
X1066800Y360680D02*
D03*
X1021080Y513080D02*
D03*
X1158240Y462280D02*
D03*
X1163320Y767080D02*
D03*
D60*
X1459621Y401842D02*
D03*
X1031240Y1193800D02*
D03*
X1148080Y1137920D02*
D03*
X980440Y955040D02*
D03*
D61*
X137160Y528320D02*
D03*
X233680D02*
D03*
X137160Y381000D02*
D03*
X238760D02*
D03*
X233680Y675640D02*
D03*
X137160D02*
D03*
D62*
X87160Y528320D02*
D03*
X283680D02*
D03*
X87160Y381000D02*
D03*
X288760D02*
D03*
X283680Y675640D02*
D03*
X87160D02*
D03*
D63*
X40000Y1460000D02*
D03*
X1460000D02*
D03*
Y40000D02*
D03*
X40000D02*
D03*
D64*
X952500Y352044D02*
D03*
M02*
