M48
;Layer_Color=9474304
;FILE_FORMAT=4:4
METRIC,LZ
;TYPE=PLATED
T1F00S00C0.3000
T2F00S00C0.7100
T3F00S00C0.7112
T4F00S00C0.8000
T5F00S00C0.9000
T6F00S00C1.0000
T7F00S00C1.3000
T8F00S00C1.5000
T9F00S00C2.4000
T10F00S00C3.2600
T11F00S00C3.6800
%
T01
X01410685Y00027472
X01430685
X01420685Y00047472
X01400685
X01410685Y00067472
X01430685
X01450685
X01470685
X01480685Y00087472
X01460685
X01440685
X01420685
X01400685
X01410685Y00147472
X01420685Y00167472
X01430685Y00187472
X01410685
Y00227472
X01470685
X01480685Y00207472
X01470685Y00187472
X01480685Y00167472
X01470685Y00147472
X01480685Y00127472
X01460685
X01440685
X01470685Y00107472
X01390685
X01380685Y00127472
Y00167472
Y00207472
X01350685Y00227472
X01290685
X01280685Y00207472
X01250685Y00227472
X01210685
X01190685
X01200685Y00207472
X01220685
X01120685
X01100685
X01110685Y00227472
X01130685
Y00147472
X01110685
X01120685Y00127472
X01140685
X01160685
X01150685Y00107472
X01160685Y00087472
X01150685Y00067472
X01130685
X01110685
X01090685
X01070685
X01050685
X01030685
X01010685
X01020685Y00087472
X01040685
X01030685Y00107472
X01010685
X01020685Y00127472
X01040685
X01030685Y00147472
X01010685
X01020685Y00167472
Y00207472
X01080685Y00167472
X01070685Y00147472
X01080685Y00127472
X01090685Y00107472
X01100685Y00087472
X01080685
X01100685Y00047472
X01120685
X01040685
X01020685
X01000685
X01010685Y00027472
X01030685
X01050685
X01000685Y00087472
Y00127472
X01190685Y00067472
X01230685
X01250685
X01270685
X01290685
X01310685
X01330685
X01370685
X01390685
X01380685Y00087472
Y00047472
X01390685Y00027472
X01350685
X01310685
X01290685
X01300685Y00087472
Y00127472
X01310685Y00147472
X01260685Y00127472
X01250685Y00107472
X01260685Y00087472
X01350685Y00107472
X00990685
X00970685
X00980685Y00087472
X00960685
X00970685Y00067472
X00990685
X00980685Y00047472
X00960685
X00940685
X00920685
X00930685Y00067472
X00950685
Y00027472
X00970685
X00990685
X00930685
X00910685
X00890685
X00870685
X00850685
X00830685
X00810685
X00790685
Y00067472
X00810685
X00830685
X00850685
X00870685
X00890685
X00900685Y00087472
X00880685
X00860685
X00840685
X00820685
X00800685
X00780685
X00760685
X00740685
X00720685
X00700685
X00680685
X00660685
X00670685Y00107472
X00690685
X00710685
X00730685
X00750685
X00770685
X00790685
X00810685
X00830685
X00850685
X00870685
X00890685
X00910685
X00930685
X00940685Y00127472
X00920685
X00900685
X00880685
X00860685
X00890685Y00147472
X00910685
X00930685
X00950685
X00970685
X00960685Y00167472
X00940685
X00920685
X00900685
X00880685
Y00207472
X00900685
X00920685
X00940685
X00960685
X00860685
X00840685
X00820685
X00800685
X00780685
X00760685
X00740685
X00720685
X00700685
X00680685
X00660685
X00670685Y00227472
X00690685
X00710685
X00730685
X00750685
X00770685
X00790685
X00810685
X00800685Y00167472
X00780685
X00790685Y00147472
X00770685
X00780685Y00127472
X00800685
X00760685
X00700685
X00680685
X00660685
X00670685Y00147472
X00690685
X00700685Y00167472
X00680685
X00660685
X00610685Y00187472
Y00147472
X00620685Y00127472
X00600685
X00610685Y00107472
X00620685Y00087472
X00630685Y00067472
X00650685
X00670685
X00690685
X00710685
X00730685
X00750685
X00770685
X00610685
X00620685Y00047472
X00590685Y00067472
X00570685
X00550685
X00530685
X00510685
X00490685
X00470685
X00480685Y00087472
X00500685
X00510685Y00107472
X00530685
X00550685
X00570685
X00590685
X00580685Y00127472
X00560685
X00540685
X00550685Y00147472
X00570685
X00590685
X00580685Y00167472
X00560685
X00550685Y00187472
X00530685
X00510685
X00490685
X00470685
X00450685
X00430685
Y00227472
Y00147472
X00410685
X00390685
X00370685
X00350685
X00330685
X00310685
X00290685
X00270685
X00250685
X00230685
X00210685
X00220685Y00167472
X00240685
X00260685
X00280685
X00290685Y00187472
X00310685
X00330685
X00340685Y00207472
X00320685
X00330685Y00227472
X00310685
X00290685
X00270685
X00250685
X00220685
X00210685Y00207472
Y00187472
X00230685
X00250685
X00270685
X00280685Y00207472
X00260685
X00240685
Y00127472
X00260685
X00280685
X00290685Y00107472
X00310685
X00330685
X00340685Y00087472
X00320685
X00280685
X00260685
X00240685
X00220685
Y00127472
X00250685Y00107472
X00270685
Y00027472
X00290685
X00310685
X00340685Y00047472
X00380685
X00400685
X00410685Y00067472
X00390685
X00370685
X00380685Y00087472
X00400685
X00390685Y00107472
X00400685Y00127472
X00380685
X00440685
X00450685Y00107472
X00490685
Y00147472
X00510685
X00520685Y00167472
X00500685
X00480685
X00530685Y00227472
X00550685
X00570685
X00590685
X00580685Y00207472
X00560685Y00087472
X00540685
Y00047472
X00560685
X00570685Y00027472
X00550685
X00530685
X00510685
X00490685
X00470685
X00450685
X00440685Y00047472
X00480685
X00500685
X00520685
X00250685Y00027472
X00230685
X00210685
X00320685Y00167472
X00340685
X00200685
X00170685
X00150685
X00130685
X00110685
X00090685
X00100685Y00187472
X00120685
X00140685
X00160685
X00180685
X00190685Y00207472
X00170685
X00150685
X00130685
X00110685
X00090685
X00100685Y00227472
X00120685
X00140685
X00160685
X00180685
X00200685
X00190685Y00147472
X00160685
X00140685
X00120685
X00100685
X00110685Y00127472
X00130685
X00150685
X00170685
X00160685Y00107472
X00170685Y00087472
X00150685
X00130685
X00110685
X00090685
X00100685Y00107472
X00090685Y00127472
X00060685
X00040685
X00050685Y00147472
X00070685
X00060685Y00167472
X00040685
X00050685Y00187472
X00070685
X00060685Y00207472
X00040685
X00050685Y00227472
X00070685
X00030685
Y00187472
Y00147472
Y00107472
X00050685
X00070685
X00060685Y00087472
X00040685
X00050685Y00067472
X00070685
X00100685
X00120685
X00140685
X00160685
X00170685Y00047472
X00150685
X00130685
X00110685
X00090685
Y00027472
X00110685
X00130685
X00150685
X00170685
X00190685
X00200685Y00087472
X00190685Y00107472
X00200685Y00127472
X00070685Y00027472
X00030685Y00067472
X00040685Y00247472
X00060685
X00070685Y00267472
X00090685
X00120685
X00140685
X00160685
X00180685
X00200685
X00190685Y00287472
X00170685
X00150685
X00130685
X00140685Y00307472
X00160685
X00180685
X00200685
X00190685Y00327472
X00170685
X00150685
X00130685
X00140685Y00347472
X00160685
X00180685
X00200685
X00190685Y00367472
X00170685
X00150685
X00130685
X00120685Y00387472
X00130685Y00407472
X00150685
X00170685
X00190685
X00200685Y00427472
X00180685
X00160685
X00140685
X00120685
X00130685Y00447472
X00150685
X00170685
X00190685
X00200685Y00467472
X00180685
X00160685
X00140685
X00120685
X00130685Y00487472
X00150685
X00170685
X00190685
X00200685Y00507472
X00180685
X00160685
X00140685
X00120685
X00090685
X00070685
X00050685
X00030685
X00040685Y00527472
X00060685
X00070685Y00547472
X00090685
X00120685
X00140685
X00160685
X00180685
X00200685
X00190685Y00567472
X00170685
X00150685
X00130685
X00140685Y00587472
X00160685
X00180685
X00200685
X00190685Y00607472
X00170685
X00150685
X00130685
X00140685Y00627472
X00160685
X00180685
X00200685
X00120685
X00090685
X00070685
X00050685
X00030685
X00040685Y00607472
X00060685
X00080685
X00100685
X00090685Y00587472
X00070685
X00050685
X00030685
X00040685Y00567472
X00060685
X00080685
X00100685
X00120685Y00587472
X00100685Y00527472
Y00487472
X00080685
X00060685
X00040685
X00050685Y00467472
X00070685
X00090685
X00100685Y00447472
X00080685
X00060685
X00040685
X00050685Y00427472
X00070685
X00090685
X00100685Y00407472
X00080685
X00060685
X00040685
X00050685Y00387472
X00070685
X00080685Y00367472
X00100685
X00090685Y00347472
X00070685
X00050685
X00030685
X00040685Y00367472
X00060685
Y00327472
X00080685
X00090685Y00307472
X00070685
X00050685
X00030685
X00040685Y00327472
Y00287472
X00060685
X00050685Y00267472
X00030685
X00130685Y00247472
X00150685
X00170685
X00190685
X00120685Y00307472
Y00347472
X00160685Y00387472
X00180685
X00200685
X00190685Y00527472
X00170685
X00150685
X00050685Y00547472
X00030685
Y00467472
Y00427472
Y00387472
X00220685
X00230685Y00407472
X00250685
X00260685Y00427472
X00240685
X00220685
X00230685Y00447472
X00250685
X00260685Y00467472
X00240685
X00220685
X00230685Y00487472
X00250685
X00260685Y00507472
X00240685
X00220685
X00210685Y00527472
X00220685Y00547472
X00240685
X00260685
X00250685Y00567472
X00230685
X00210685
X00220685Y00587472
X00240685
X00260685
X00250685Y00607472
X00230685
X00210685
X00220685Y00627472
X00240685
X00260685
X00290685
X00310685
X00330685
X00340685Y00607472
X00330685Y00587472
X00310685
X00290685
X00300685Y00607472
X00280685
Y00567472
X00300685
X00310685Y00547472
X00330685
X00340685Y00567472
X00380685
X00390685Y00547472
X00410685
X00430685
X00450685
X00470685
X00490685
X00510685
X00530685
X00550685
X00560685Y00567472
X00570685Y00587472
X00550685
X00530685
X00510685
X00490685
X00470685
X00450685
X00430685
X00410685
X00420685Y00607472
X00440685
X00460685
X00480685
X00500685
X00520685
X00540685
X00560685
X00580685
Y00527472
X00590685Y00507472
X00570685
X00550685
X00530685
X00510685
X00490685
X00500685Y00487472
X00520685
X00540685
X00560685
X00580685
X00590685Y00467472
X00570685
Y00427472
X00580685Y00407472
X00560685
X00570685Y00387472
X00590685
X00580685Y00367472
X00560685
X00540685
X00550685Y00387472
X00510685
X00490685
X00470685
X00450685
X00430685
X00410685
X00390685
X00360685Y00367472
X00340685
X00350685Y00347472
X00370685
X00380685Y00327472
X00360685
X00340685
X00350685Y00307472
X00370685
X00390685
X00400685Y00287472
X00380685
X00360685
X00340685
X00350685Y00267472
X00370685
X00380685Y00247472
X00400685
X00420685
X00440685
X00480685
X00500685
X00520685
X00540685
X00560685
X00580685
X00570685Y00267472
X00550685
X00530685
X00540685Y00287472
X00560685
X00570685Y00307472
X00590685
X00550685
X00530685
X00540685Y00327472
X00560685
X00500685
X00490685Y00307472
X00470685
X00450685
X00460685Y00327472
X00440685
X00450685Y00347472
X00470685
X00480685Y00367472
X00500685
X00460685
X00440685
Y00407472
X00450685Y00427472
X00470685
X00490685
X00510685
X00500685Y00447472
X00480685
X00460685
X00440685
X00450685Y00467472
X00440685Y00487472
X00420685
X00400685
X00380685
X00390685Y00507472
X00410685
X00430685
X00450685
X00440685Y00567472
X00420685
X00500685
X00520685
X00380685Y00607472
Y00527472
X00340685
X00330685Y00507472
X00310685
X00290685
X00300685Y00527472
X00290685Y00547472
X00250685Y00527472
X00280685Y00487472
X00300685
X00310685Y00467472
X00330685
X00340685Y00487472
Y00447472
X00330685Y00427472
X00310685
X00290685
X00300685Y00447472
X00280685
X00290685Y00467472
X00300685Y00407472
X00280685
X00260685Y00387472
X00250685Y00367472
X00230685
X00210685
X00220685Y00347472
X00240685
X00260685
X00250685Y00327472
X00230685
X00210685
X00220685Y00307472
X00240685
X00270685
X00290685
X00310685
X00330685
Y00347472
X00310685
X00290685
X00300685Y00367472
X00280685
Y00327472
X00300685
Y00287472
X00280685
X00290685Y00267472
X00270685
X00240685
X00220685
X00210685Y00287472
Y00247472
X00280685
X00320685
X00340685
X00360685
X00330685Y00267472
Y00387472
X00310685
X00340685Y00407472
X00210685
Y00447472
Y00487472
X00440685Y00287472
X00460685
X00480685
X00500685
X00610685Y00307472
X00660685Y00327472
X00680685
X00690685Y00347472
X00670685
X00660685Y00367472
X00670685Y00387472
X00660685Y00407472
X00670685Y00427472
X00650685
X00660685Y00447472
X00680685
X00690685Y00467472
X00670685
X00650685
X00630685
X00640685Y00487472
X00660685
X00670685Y00507472
X00650685
X00630685
X00640685Y00527472
X00660685
X00670685Y00547472
X00650685
X00630685
X00610685
Y00587472
X00630685
X00670685
X00690685
X00680685Y00607472
X00660685
X00670685Y00627472
X00720685Y00607472
X00730685Y00587472
X00750685
X00790685
X00830685
X00870685
X00890685
X00910685
X00930685
X00950685
X00970685
Y00547472
X00950685
X00920685Y00527472
X00900685
Y00487472
X00920685
X00940685
X00950685Y00467472
X00910685
X00920685Y00447472
X00900685
X00910685Y00427472
X00940685Y00407472
X00970685Y00387472
X00900685Y00367472
Y00327472
Y00247472
X00920685
X00840685
X00830685Y00267472
Y00307472
X00800685Y00247472
X00760685
X00750685Y00267472
X00720685Y00287472
Y00327472
Y00367472
X00740685
X00750685Y00347472
X00770685
X00760685Y00407472
X00770685Y00427472
X00750685
X00760685Y00447472
X00770685Y00467472
X00750685
X00760685Y00487472
X00740685
X00720685
X00730685Y00507472
X00750685
X00770685
X00780685Y00527472
X00810685Y00507472
X00830685
X00840685Y00487472
X00820685
X00800685
X00810685Y00427472
X00830685
X00860685Y00407472
X00720685
Y00447472
X00710685Y00507472
X00720685Y00527472
X00750685Y00627472
X00790685
X00830685
X00990685
X00600685Y00607472
Y00487472
X00640685Y00447472
X00620685Y00407472
X00600685
X00610685Y00387472
X00620685Y00367472
X00600685
Y00247472
X00660685
X00680685
X00690685Y00267472
X00670685
X00680685Y00287472
X00660685
X00720685Y00247472
X01010685Y00267472
X01050685
X01070685
X01090685
X01100685Y00287472
X01080685
X01060685
X01040685
Y00327472
X01050685Y00347472
X01040685Y00367472
X01050685Y00387472
X01090685
X01100685Y00407472
X01140685
X01130685Y00387472
X01140685Y00367472
X01130685Y00347472
X01100685Y00367472
Y00327472
X01080685
X01090685Y00307472
X01170685
X01190685
X01200685Y00327472
Y00287472
X01220685
X01210685Y00267472
X01190685
X01250685
X01290685
X01310685
X01350685
X01340685Y00247472
X01390685Y00267472
Y00347472
X01350685
X01330685
X01310685
X01290685
X01300685Y00367472
X01320685
X01340685
X01360685
X01350685Y00307472
X01330685
X01310685
X01270685
X01250685
Y00347472
X01280685Y00287472
X01270685Y00427472
X01300685Y00447472
X01290685Y00467472
X01300685Y00487472
X01280685
X01290685Y00507472
X01250685
Y00467472
X01240685Y00447472
X01180685
X01190685Y00467472
X01180685Y00487472
X01190685Y00507472
X01170685
X01160685Y00527472
X01120685
X01100685
X01080685
X01090685Y00507472
X01110685
X01130685
X01140685Y00487472
X01120685
X01110685Y00467472
X01090685
X01100685Y00447472
X01080685
X01050685Y00467472
X01040685Y00487472
Y00527472
X01020685
Y00567472
X01030685Y00587472
X01070685
X01100685Y00567472
X01120685
X01180685
X01220685
X01250685Y00587472
Y00627472
X01290685
X01310685
Y00587472
X01390685
X01380685Y00567472
X01390685Y00627472
X01380685Y00487472
X01360685
X01390685Y00467472
Y00427472
X01200685Y00407472
X01180685
X01170685Y00387472
X01140685Y00447472
X01050685Y00427472
X01020685Y00447472
X01010685Y00387472
Y00347472
X01040685Y00247472
X01130685Y00267472
X01110685Y00627472
X01170685
X01210685
X01050685
X01030685
X01010685
X01410685
Y00587472
X01420685Y00567472
X01400685
Y00527472
X01420685
X01440685Y00487472
X01460685
X01400685
X01410685Y00467472
X01420685Y00447472
X01400685
X01410685Y00427472
X01430685
X01450685Y00387472
X01460685Y00367472
X01430685Y00347472
X01400685Y00367472
X01450685Y00307472
X01480685Y00287472
Y00247472
X01410685Y00267472
X01420685Y00647472
X01400685
X01420685Y00687472
X01410685Y00707472
X01420685Y00767472
X01410685Y00787472
X01420685Y00807473
X01400685
X01410685Y00827473
X01430685Y00867473
X01450685
Y00907473
X01430685
X01410685
X01400685Y00887473
X01410685Y00947473
X01450685Y00987473
X01430685Y01027473
X01450685Y00667472
X01480685Y00687472
X01380685
X01390685Y00667472
X01380685Y00647472
Y00727472
X01390685Y00787472
Y00827473
Y00867473
Y00907473
X01350685
X01330685
X01310685
X01290685
X01270685
X01250685
Y00947473
Y00987473
Y01027473
X01220685Y01007473
X01180685
X01170685Y01027473
Y00987473
X01150685
X01140685Y00967473
X01180685
X01170685Y00907473
X01150685
X01140685Y00887473
Y00847473
X01100685
X01110685Y00867473
X01100685Y00887473
X01110685Y00907473
X01090685
X01110685Y00947473
X01120685Y01007473
X01100685
X01110685Y01027473
X01030685Y00987473
Y00907473
X01010685
X01020685Y00887473
X01000685Y00847473
X01010685Y00787472
X01030685
X01050685
X01070685
X01090685
X01110685
X01130685
X01120685Y00807473
X01100685
X01080685
X01060685
X01090685Y00827473
X01110685
Y00747472
X01130685
X01150685
X01140685Y00727472
X01120685
X01100685
X01080685
X01060685
X01070685Y00747472
X01090685
Y00707472
X01110685
X01130685
X01140685Y00687472
X01120685
X01100685
X01080685
X01060685
X01070685Y00707472
X01050685
Y00747472
X01020685Y00727472
X01010685Y00707472
X01020685Y00687472
X01000685
Y00647472
X01020685
X01040685
X01060685
X01070685Y00667472
X01090685
X01110685
X01130685
X01150685
X01170685
X01210685
X01220685Y00687472
X01210685Y00707472
X01220685Y00727472
X01210685Y00747472
X01250685
X01290685
X01300685Y00767472
X01280685
Y00727472
X01300685
X01310685Y00707472
X01290685
X01300685Y00687472
X01280685
X01290685Y00667472
X01310685
X01270685
X01250685
Y00707472
X01340685Y00767472
Y00847473
X01320685
X01300685
X01290685Y00867473
X01300685Y00887473
X01280685
X01250685Y00867473
X01230685
X01210685
X01220685Y00887473
X01210685Y00907473
X01300685Y00927473
X01320685
X01340685
X01310685Y00947473
X01300685Y01007473
X01310685Y01027473
X01370685
X01350685Y00867473
X01140685Y00647472
X01120685
X01050685Y00667472
X00980685Y00687472
X00960685
X00970685Y00707472
X00990685
X00980685Y00727472
X00990685Y00747472
Y00787472
X00970685
X00950685
Y00827473
X00970685
X00990685
X00980685Y00847473
X00960685
X00940685
X00920685
X00900685
X00880685
X00860685
X00840685
X00820685
X00800685
X00810685Y00867473
X00830685
X00820685Y00887473
X00850685Y00907473
X00870685
X00880685Y00887473
X00900685
X00940685
X00960685
X00970685Y00907473
X00950685
X00930685
X00950685Y00947473
Y00987473
X00930685
Y00827473
X00910685
Y00747472
X00890685
X00900685Y00727472
X00920685
X00930685Y00707472
X00910685
X00890685
X00900685Y00687472
X00920685
Y00647472
X00940685
X00950685Y00667472
X00980685Y00647472
X00900685
X00860685
X00800685
X00780685
X00750685Y00667472
Y00707472
X00790685
X00800685Y00767472
X00820685
X00830685Y00827473
X00760685Y00847473
X00740685
X00720685
X00700685
X00690685Y00827473
Y00787472
X00710685
X00720685Y00807473
Y00767472
X00700685
X00690685Y00747472
Y00707472
X00670685
X00660685Y00687472
X00640685
X00620685
X00600685
Y00647472
X00620685
X00660685
X00670685Y00667472
X00700685Y00647472
X00720685
Y00687472
Y00727472
X00750685Y00747472
X00660685Y00767472
X00640685
X00620685Y00747472
X00600685
X00640685Y00807473
X00660685
Y00847473
X00640685
X00670685Y00907473
X00710685Y00947473
X00700685Y00967473
X00730685Y00987473
X00760685Y01007473
Y00967473
X00790685Y00947473
Y00907473
X00770685Y00867473
X00750685
X00730685
X00610685Y01007473
X00980685Y00807473
X00950685Y00747472
X00580685
X00560685
X00540685
X00520685
X00500685
X00480685
X00460685
X00440685
X00420685
X00400685
X00380685
X00360685
X00340685
X00320685
X00300685
X00280685
X00260685
X00240685
X00220685
X00230685Y00767472
X00250685
X00270685
X00290685
X00310685
X00330685
X00350685
X00370685
X00390685
X00410685
X00430685
X00450685
X00470685
X00490685
X00510685
X00530685
X00520685Y00787472
X00500685
X00480685
X00460685
X00440685
X00420685
X00400685
X00380685
X00360685
X00340685
X00320685
X00300685
X00280685
X00260685
X00240685
X00220685
X00230685Y00807473
X00250685
X00270685
X00290685
X00310685
X00330685
X00350685
X00370685
X00390685
X00410685
X00430685
X00450685
X00470685
X00490685
X00510685
X00530685
X00520685Y00827473
X00500685
X00480685
X00460685
X00440685
X00420685
X00400685
X00380685
X00360685
X00340685
X00320685
X00300685
X00280685
X00260685
X00240685
X00220685
X00230685Y00847473
X00250685
X00270685
X00290685
X00310685
X00330685
X00350685
X00370685
X00390685
X00410685
X00430685
X00450685
X00470685
X00490685
X00510685
X00530685
X00520685Y00927473
X00530685Y00987473
X00560685
X00580685
X00590685Y01007473
X00570685
X00550685
X00560685Y01027473
X00580685
X00530685
X00550685Y00967473
X00570685
X00450685Y00947473
X00440685Y00887473
X00420685
X00400685
X00380685
X00360685
X00340685
X00320685
X00300685
X00280685
X00250685Y00907473
X00240685Y00927473
X00220685
X00210685Y00947473
X00220685Y00967473
X00240685
X00250685Y00987473
Y01027473
X00270685
X00280685Y01007473
X00300685
X00310685Y00987473
X00330685
X00340685Y01007473
X00380685
X00400685
X00370685Y00987473
X00300685Y00967473
X00280685
X00290685Y00947473
X00210685Y00987473
X00220685Y01007473
X00230685Y01027473
X00210685
Y00907473
X00220685Y00887473
X00210685Y00847473
Y00807473
Y00767472
Y00727472
X00230685
X00250685
X00270685
X00260685Y00707472
X00240685
X00220685
X00230685Y00687472
X00250685
X00260685Y00667472
X00250685Y00647472
X00230685
X00210685
X00220685Y00667472
X00210685Y00687472
X00280685
X00300685
X00320685
X00330685Y00707472
X00310685
X00290685
X00300685Y00727472
X00320685
X00340685
X00360685
X00370685Y00707472
X00390685
Y00667472
X00410685
X00430685
X00450685
X00470685
X00480685Y00687472
X00500685
X00520685
X00540685
X00560685
X00580685
X00560685Y00647472
X00540685
X00520685
X00460685Y00687472
X00440685
X00420685
X00360685
X00350685Y00667472
X00330685
X00310685
X00300685Y00647472
X00280685
X00340685
X00380685
X00410685Y00907473
X00180685Y00927473
X00170685Y00947473
X00180685Y00967473
X00160685
X00170685Y00987473
X00160685Y01007473
X00200685
X00190685Y01027473
X00080685
X00090685Y01007473
X00070685
X00050685
X00030685
X00040685Y00987473
X00060685
X00080685
X00090685Y00967473
X00070685
X00050685
X00030685
X00040685Y00947473
X00060685
X00080685
X00100685
X00080685Y00907473
X00030685Y00927473
Y00887473
X00140685
X00150685Y00847473
X00170685
X00190685
X00200685Y00827473
X00180685
X00160685
X00140685
X00150685Y00807473
X00170685
X00190685
X00200685Y00787472
X00180685
X00160685
X00140685
X00150685Y00767472
X00170685
X00190685
X00200685Y00747472
X00180685
X00160685
X00140685
X00120685
X00100685
X00080685
X00060685
X00070685Y00727472
X00090685
X00110685
X00130685
X00150685
X00170685
X00190685
X00200685Y00707472
X00180685
X00160685
X00140685
X00120685
X00130685Y00687472
X00150685
X00170685
X00190685
X00200685Y00667472
X00180685
X00160685
X00170685Y00647472
X00190685
X00150685
X00130685
X00120685Y00667472
X00100685Y00687472
X00080685
X00060685
X00040685
X00050685Y00707472
Y00727472
X00070685Y00707472
X00090685
X00070685Y00667472
X00050685
X00030685
X00040685Y00647472
X00060685
X00080685
X00100685
X00030685Y00707472
Y01047473
X00050685
X00070685
X00080685Y01067473
X00100685
X00110685Y01087473
X00090685
X00070685
X00050685
X00030685
X00040685Y01107473
X00060685
X00080685
X00100685
X00110685Y01127473
X00090685
X00070685
X00050685
X00030685
X00040685Y01147473
X00060685
X00080685
X00100685
X00110685Y01167473
X00090685
X00070685
X00050685
X00030685
X00040685Y01187473
X00060685
X00080685
X00100685
X00120685
X00150685
X00170685
X00190685
X00200685Y01167473
X00180685
X00160685
X00140685
X00150685Y01147473
X00170685
X00190685
X00200685Y01127473
X00180685
X00160685
X00140685
X00150685Y01107473
X00130685
X00140685Y01087473
X00130685Y01067473
X00140685Y01047473
X00170685Y01067473
X00190685
X00200685Y01087473
X00130685Y01147473
X00140685Y01227473
X00160685
X00180685
X00200685
X00190685Y01247473
X00170685
X00150685
X00160685Y01267473
X00180685
X00200685
X00190685Y01287473
X00170685
X00150685
X00160685Y01307473
X00180685
X00200685
Y01327473
X00180685
X00160685
X00140685
Y01307473
Y01267473
X00080685Y01327473
Y01367473
X00090685Y01387473
X00110685
X00130685
X00150685
X00180685Y01367473
X00190685Y01347473
X00120685Y01407473
X00080685
X00060685
X00040685
X00050685Y01387473
X00070685
X00030685
Y01347473
X00040685Y01067473
X00060685
X00210685
X00220685Y01087473
X00230685Y01107473
X00210685
X00220685Y01127473
X00250685
Y01167473
X00220685
X00230685Y01187473
X00210685
Y01147473
X00230685
X00250685Y01207473
X00260685Y01227473
X00280685
X00300685
X00320685
X00340685
X00360685
X00380685
X00400685
X00420685
X00440685
X00460685
X00480685
X00500685
X00520685
X00530685Y01247473
X00510685
X00490685
X00470685
X00450685
X00430685
X00410685
X00390685
X00370685
X00350685
X00330685
X00310685
X00290685
X00270685
X00250685
X00230685
X00210685
X00220685Y01267473
X00240685
X00250685Y01287473
X00270685
X00290685
X00300685Y01307473
X00320685
X00340685
X00360685
X00380685
X00400685
X00420685
X00410685Y01327473
X00390685
X00370685
X00350685
X00360685Y01347473
X00380685
X00400685
X00420685
X00410685Y01367473
X00390685
X00370685
X00350685
X00360685Y01387473
X00370685Y01407473
X00390685
X00410685
X00420685Y01387473
X00400685
X00450685
X00470685
X00490685
X00510685
X00530685
X00550685
X00570685
X00590685
X00580685Y01407473
X00560685
X00540685
X00520685
X00500685
X00480685
X00460685
Y01367473
X00480685
X00500685
X00520685
X00530685Y01347473
X00510685
X00490685
X00470685
X00450685
X00460685Y01327473
X00480685
X00500685
X00520685
Y01307473
X00500685
X00480685
X00460685
X00470685Y01287473
X00490685
X00510685
X00530685
X00520685Y01267473
X00500685
X00480685
X00460685
X00440685
X00420685
X00400685
X00380685
X00360685
X00340685
X00320685
X00300685
X00280685
Y01307473
X00260685
X00240685
X00220685
Y01327473
X00250685
X00270685
X00290685
X00310685
X00320685Y01347473
X00300685
X00310685Y01367473
X00260685Y01387473
X00270685Y01407473
X00250685
X00220685
X00230685Y01387473
Y01287473
X00210685
X00220685Y01227473
X00310685Y01207473
X00320685Y01187473
X00310685Y01167473
X00320685Y01147473
X00310685Y01127473
X00350685
Y01167473
Y01207473
X00410685
X00430685
X00450685
X00470685
X00490685
X00510685
X00530685
X00540685Y01187473
X00560685
X00580685
X00590685Y01167473
X00570685
X00550685
X00530685
X00510685
X00490685
X00470685
X00450685
X00430685
X00410685
X00420685Y01187473
X00440685
X00460685
X00480685
X00500685
X00520685
Y01147473
X00540685
X00560685
X00580685
X00590685Y01127473
Y01087473
X00570685
X00550685
X00560685Y01107473
X00550685Y01127473
X00530685
X00510685
X00490685
X00470685
X00450685
X00430685
X00410685
X00420685Y01147473
X00440685
X00460685
X00480685
X00500685
Y01047473
X00530685Y01067473
X00560685
X00580685
X00590685Y01047473
X00570685
X00550685
X00470685Y01067473
X00330685
X00290685
X00270685
X00250685
X00260685Y01047473
X00280685
X00240685
X00330685Y01287473
X00350685
X00370685
X00390685
X00410685
X00450685
X00350685Y01407473
X00620685
X00630685Y01387473
X00610685
X00640685Y01367473
X00660685
Y01327473
X00680685
X00700685
X00690685Y01347473
Y01307473
X00670685
X00640685Y01327473
X00750685Y01307473
X00810685
X00880685Y01287473
X00920685
X00940685
X00950685Y01307473
X00930685
X00940685Y01327473
X00960685
X00970685Y01347473
X00950685
Y01387473
X00960685Y01407473
X00990685Y01387473
X00870685
X00880685Y01407473
X00920685Y01327473
X00930685Y01267473
X00950685
X00960685Y01247473
X00940685
X00950685Y01227473
X00960685Y01207473
X00980685
X00990685Y01227473
X00980685Y01167473
X00950685Y01187473
Y01147473
X00960685Y01127473
Y01087473
X00950685Y01067473
X00960685Y01047473
X00880685Y01087473
Y01127473
X00860685
X00870685Y01147473
X00830685Y01187473
X00840685Y01207473
X00800685
X00790685Y01187473
X00750685
X00730685
X00710685
X00720685Y01167473
X00740685
X00760685
Y01127473
X00780685
X00740685
X00760685Y01087473
X00770685Y01067473
X00780685Y01047473
X00760685
X00720685
X00730685Y01067473
X00710685
X00700685Y01087473
X00690685Y01107473
X00680685Y01127473
Y01167473
X00630685
X00610685
X00620685Y01187473
X00600685
Y01147473
X00620685
X00630685Y01127473
X00610685
X00620685Y01107473
X00600685
X00610685Y01087473
X00600685Y01067473
X00890685Y01227473
X00730685Y01387473
X00740685Y01407473
X01020685
X01080685
X01070685Y01387473
X01080685Y01367473
X01100685
Y01327473
X01120685
X01140685
X01160685
X01180685
X01200685
X01190685Y01347473
X01170685
X01130685
X01070685
X01040685Y01327473
X01100685Y01287473
X01120685
X01140685
X01180685
X01200685
X01190685Y01307473
X01240685Y01327473
X01260685
X01280685
X01290685Y01347473
X01270685
Y01307473
X01290685
X01280685Y01287473
X01260685
X01270685Y01267473
X01290685
X01280685Y01247473
X01260685
X01240685
X01250685Y01227473
X01270685
X01290685
X01310685
X01300685Y01207473
X01280685
X01290685Y01187473
X01310685
X01300685Y01167473
X01360685
X01350685Y01147473
X01340685Y01127473
X01350685Y01107473
X01340685Y01087473
X01360685Y01047473
X01380685
X01300685
X01240685
X01250685Y01067473
X01170685
X01180685Y01087473
Y01047473
X01160685
X01120685
X01100685
X01110685Y01067473
X01120685Y01127473
X01130685Y01147473
Y01187473
X01150685
X01160685Y01207473
X01140685
X01120685
X01100685
Y01247473
X01080685
X01060685
X01070685Y01227473
X01060685Y01207473
X01040685
X01050685Y01187473
X01070685
X01010685Y01227473
X01020685Y01247473
X01040685Y01087473
X01000685
X01010685Y01067473
X01000685Y01047473
X01200685Y01127473
X01190685Y01147473
Y01187473
X01200685Y01207473
X01190685Y01227473
X01250685Y01187473
X01320685Y01287473
X01340685
X01370685Y01307473
X01360685Y01327473
X01320685
Y01407473
X01340685
X01360685
X01380685
X01370685Y01387473
X01390685Y01347473
X01280685Y01407473
X01260685
X01220685
X01200685
X01180685
X01160685
X01140685
X01190685Y01387473
X01210685
X01200685Y01367473
X01440685
X01450685Y01387473
Y01347473
X01430685
X01440685Y01327473
X01420685
X01410685Y01307473
X01420685Y01407473
X01400685
X01450685Y01227473
X01440685Y01207473
X01430685Y01187473
X01440685Y01167473
X01460685
X01450685Y01107473
X01430685
X01440685Y01047473
X01470685Y01427473
X01420685Y01447473
X01400685
X01410685Y01467473
X01430685
X01390685
X01370685
X01350685
X01330685
X01310685
X01290685
X01270685
X01250685
X01230685
X01210685
X01190685
X01170685
X01150685
X01130685
X01110685
X01070685
X01080685Y01447473
X01070685Y01427473
X01010685
X01020685Y01447473
X01030685Y01467473
X01140685Y01447473
X01160685
X01180685
X01200685
X01220685
X01240685
X01260685
X01280685
X01300685
X01320685
X01340685
X01360685
X01380685
X01230685Y01427473
X01210685
X01190685
X01170685
X01150685
X00990685
Y01467473
X00950685
X00960685Y01447473
X00950685Y01427473
X00840685Y01447473
X00770685Y01427473
X00750685
X00730685
X00740685Y01447473
X00720685
X00620685
X00580685
X00560685
X00540685
X00520685
X00500685
X00480685
X00460685
X00470685Y01427473
X00490685
X00510685
X00530685
X00550685
X00570685
X00450685
X00420685
X00400685
X00380685
X00300685
X00280685
X00260685
X00270685Y01447473
X00290685
X00310685
X00250685
X00220685
X00230685Y01467473
X00210685
X00230685Y01427473
X00160685Y01447473
X00150685Y01467473
X00110685
X00070685
X00080685Y01447473
X00070685Y01427473
X00050685
X00030685
T02
X01450949Y00106508
X01425549Y00131908
X01450949Y00157308
X0084836Y0088392
X0079756
X0082296Y0090932
X0070612Y011176
X0068072Y01143
Y010922
T03
X01416558Y00205232
X01364488Y00191008
X0136528Y0017148
X01303782Y00171704
X01261045Y00189165
X01227836Y00184404
X01201166Y0015367
X01201928Y00108204
X01125982Y00175006
X01082802Y00189738
X01023874Y00229108
X01333754Y00125984
X00940308Y00230378
X0064008Y00189738
X0058928Y0057531
X006858Y0055372
X00812038Y00575818
X0084455Y0056769
X0085976Y00551404
Y0062608
X00964184Y00625348
X00991362Y00588518
X00937484Y00551404
X0093596Y00422626
X009525Y00352044
X00953008Y00333248
X00953516Y0031369
X0096904Y0028324
X00990854Y00332994
X00846328Y00320802
X00832104Y00335026
X0081156Y0031112
X0079756Y0029464
X00864616
X00825754Y00375666
X00767842Y00376174
X0075692Y0033528
X0073536Y00284002
X0064008Y0030988
X0083566Y004572
X01024636Y00408686
X01114298Y00423672
X01203198Y00424942
X01221486Y00440944
X0124714Y00429768
X01253744Y0037592
X0121412Y00354076
X01181354Y0037592
X01157986Y00354076
X0114424Y00303754
Y00241584
X01053816
X01316766
X01364488Y00248158
X0136528Y00308834
X01366012Y0035179
X01288542Y003302
X01263142Y00537464
X0121793Y0051816
X01185672Y00538734
X0123568Y00599216
X0105156Y00551688
X0147828Y00550672
X01461516Y00612902
X0141478Y00398018
X01402588Y00409448
X01407668Y00354076
X01437102Y00308834
X01397762Y00278384
X01462532Y0024765
X01462278Y00733552
X01409954
X0146177Y00854202
X01457198Y00925322
X0147955Y00977138
X0141097Y00962914
X01331214Y00963422
X013602Y00926816
X0137033Y00859282
X01290574Y0082677
X01300734Y0081407
X0126368Y00775746
X0123571Y00796798
X0121409Y00775746
X0121282Y0081788
X01180846Y00935482
X01127506Y0097536
X010528Y00994186
X01035558Y00954278
X01052322Y00864362
X0108077Y00836168
X0101216Y0083563
X01235964Y00984504
X01285748Y0093472
X013602Y00655574
X00934212Y0078105
X00883412Y00768858
X008115Y00829848
X0070736
X00735584Y0078105
X00767588Y00693928
X00767334Y00651256
X00747268Y00935482
X00776732Y009779
X00824484Y00977392
X00852678Y00975868
X00793242Y0102616
X006631Y01016508
X00522814Y00941647
X00533146Y0091948
X00507746Y0090678
X00493497Y00891251
X00458978Y00900176
X0041529Y01014984
X00294386Y00978916
X0029337Y00903224
X00404876Y01060196
X00227076Y0135636
X00654558Y01392936
X00732028Y01361694
Y01293876
X0071671Y01266776
X0067437Y01293876
X00646938Y01250442
X00650495Y01231153
X00664972Y01114552
X0074803Y01046226
X00793242Y01044448
X008242Y01044926
X00869442Y01060704
X00887222Y01072642
X00901954Y01086104
X00899414Y0103632
X0085217Y01110742
X00834644Y01163828
X00859028Y01212342
X00872998Y01231138
X008763Y0125095
X00874268Y01273556
X0088011Y01337056
X00879094Y01362964
X009766Y01422624
X00929132Y0121285
X00995172Y01161796
X01019048Y0126111
X0101727Y0128651
X0103124Y0131572
X01123188Y01260856
X0117399Y01273812
X01195832Y0126111
X01244092Y01260856
X01238758Y01156716
X01223518Y01161288
X01285494Y01149858
X01264666Y0110998
X01198118Y01110234
X01102106Y01110742
X01285748Y0105664
X0136017Y0122174
X01359916Y0123825
X01390916Y01311535
X0109263Y01425878
X0141351Y01221486
X014338Y01240058
X00928624Y01429512
X00859028Y01429004
X00880618Y0145796
T04
X0008716Y00381
X0013716
Y0052832
X0008716
X0023368
X0028368
X0028876Y00381
X0023876
X0023368Y0067564
X0028368
X0013716
X0008716
T05
X014478Y0021336
X010668Y0009652
X01066646Y00044072
X0079756Y0052832
X0102108Y0051308
Y0048768
Y0046228
X0108712Y0048768
X0115824
Y0051308
Y0046228
Y0040132
X010668Y0038608
Y0036068
X01066849Y00313436
X0108712Y0057912
X0115824
X01434221Y00401842
X01459621
X014478Y003302
X0115824Y0064008
Y0069596
X0116332Y0076708
Y0079248
Y0081788
X0115824Y00889
Y0095504
Y01016
X0100584Y0095504
X0108712Y0064008
X009906Y00889
X0091948
X0098044Y0095504
X0069596Y0102108
X0037084Y0102616
X0034544
X0032004
X0029464
X00185674Y01108964
X00053086Y01031494
X0030734Y0104521
X0033274
X0035814
X00575564Y01119632
X0069088Y0127
X0084328Y0113792
X0098044Y011938
X0100584
X0103124
X0114808Y0113792
X0117348
X0115824Y0107696
X01158055Y01304647
X01245438Y01303447
X01341513Y01303699
X01437571Y01304084
X0076708Y01456352
X00696319Y01456427
X00182668Y01456696
T06
X007499Y000524
X007874
X008249
X01226039Y01361049
X01253739
X01281439
X01309139
X01336839
X01322989Y01389449
X01295289
X01267589
X01239889
T07
X002254Y0011176
X001302
X0028768Y0139192
X0038288
T08
X0028374Y0114351
Y0117451
Y0120551
X0038174
Y0117451
Y0114351
T09
X0146Y0004
X0004
X0146Y0146
X0004
T10
X01156489Y01375249
X01406389
T11
X007369Y001524
X008379
M30
